<?xml version="1.0" standalone="no"?>
<!DOCTYPE svg PUBLIC "-//W3C//DTD SVG 20010904//EN"
 "http://www.w3.org/TR/2001/REC-SVG-20010904/DTD/svg10.dtd">
<svg version="1.0" xmlns="http://www.w3.org/2000/svg"
 width="32.000000pt" height="32.000000pt" viewBox="0 0 32.000000 32.000000"
 preserveAspectRatio="xMidYMid meet">

<g transform="translate(0.000000,32.000000) scale(0.100000,-0.100000)"
fill="#000000" stroke="none">
<path d="M0 256 c0 -60 1 -64 21 -59 16 5 19 11 14 32 -8 36 22 65 57 56 20
-5 26 -2 31 14 5 20 1 21 -59 21 l-64 0 0 -64z"/>
<path d="M197 299 c5 -16 11 -19 32 -14 36 8 65 -22 56 -57 -5 -20 -2 -26 14
-31 20 -5 21 -1 21 59 l0 64 -64 0 c-60 0 -64 -1 -59 -21z"/>
<path d="M140 285 c0 -15 -46 -32 -57 -21 -9 9 -34 -15 -27 -26 10 -16 -6 -58
-21 -58 -8 0 -15 -9 -15 -20 0 -11 7 -20 15 -20 15 0 31 -42 21 -58 -7 -11 18
-35 27 -26 11 11 57 -6 57 -21 0 -8 9 -15 20 -15 11 0 20 7 20 15 0 15 46 32
57 21 9 -9 34 15 27 26 -10 16 6 58 21 58 8 0 15 9 15 20 0 11 -7 20 -15 20
-15 0 -32 46 -21 57 9 9 -15 34 -26 27 -16 -10 -58 6 -58 21 0 8 -9 15 -20 15
-11 0 -20 -7 -20 -15z m65 -80 c14 -13 25 -33 25 -45 0 -27 -43 -70 -70 -70
-12 0 -32 11 -45 25 -14 13 -25 34 -25 45 0 27 43 70 70 70 12 0 32 -11 45
-25z"/>
<path d="M126 194 c-31 -30 -9 -84 34 -84 24 0 50 26 50 50 0 24 -26 50 -50
50 -10 0 -26 -7 -34 -16z"/>
<path d="M0 64 l0 -64 64 0 c60 0 64 1 59 21 -5 16 -11 19 -31 14 -35 -9 -65
20 -57 56 5 21 2 27 -14 32 -20 5 -21 1 -21 -59z"/>
<path d="M292 121 c-8 -5 -11 -17 -7 -32 8 -33 -24 -64 -56 -54 -20 7 -38 -6
-39 -27 0 -5 29 -8 65 -8 l65 0 0 65 c0 65 -4 72 -28 56z"/>
</g>
</svg>
