<?xml version="1.0" encoding="utf-8"?>
<!-- Generator: Adobe Illustrator 24.3.0, SVG Export Plug-In . SVG Version: 6.00 Build 0)  -->
<svg version="1.1" id="Ebene_1" xmlns="http://www.w3.org/2000/svg" xmlns:xlink="http://www.w3.org/1999/xlink" x="0px" y="0px"
	 viewBox="0 0 39 39" style="enable-background:new 0 0 39 39;" xml:space="preserve">
<style type="text/css">
	.st0{opacity:0.2;fill:url(#SVGID_1_);}
	.st1{fill:url(#SVGID_2_);}
</style>
<g>
	<linearGradient id="SVGID_1_" gradientUnits="userSpaceOnUse" x1="0.3715" y1="20.1641" x2="38.4501" y2="20.1641">
		<stop  offset="0" style="stop-color:#52A1CB"/>
		<stop  offset="1" style="stop-color:#E71B80"/>
	</linearGradient>
	<path class="st0" d="M6.3,28.7c-3.2,0-5.9-3.8-5.9-8.5s2.6-8.5,5.9-8.5h26.3c3.2,0,5.9,3.8,5.9,8.5s-2.6,8.5-5.9,8.5H6.3z"/>
	<linearGradient id="SVGID_2_" gradientUnits="userSpaceOnUse" x1="3.7304" y1="20.1646" x2="35.0906" y2="20.1646">
		<stop  offset="0" style="stop-color:#52A1CB"/>
		<stop  offset="1" style="stop-color:#E71B80"/>
	</linearGradient>
	<path class="st1" d="M32.6,23.8H6.2c-1.4,0-2.5-1.6-2.5-3.6c0-2,1.1-3.6,2.5-3.6h26.3c1.4,0,2.5,1.6,2.5,3.6
		C35.1,22.2,34,23.8,32.6,23.8z"/>
</g>
</svg>
