<?xml version="1.0" encoding="utf-8"?>
<!-- Generator: Adobe Illustrator 24.3.0, SVG Export Plug-In . SVG Version: 6.00 Build 0)  -->
<svg version="1.1" id="Ebene_1" xmlns="http://www.w3.org/2000/svg" xmlns:xlink="http://www.w3.org/1999/xlink" x="0px" y="0px"
	 viewBox="0 0 39 39" style="enable-background:new 0 0 39 39;" xml:space="preserve">
<style type="text/css">
	.st0{opacity:0.2;fill:url(#SVGID_1_);}
	.st1{fill:url(#SVGID_2_);}
</style>
<linearGradient id="SVGID_1_" gradientUnits="userSpaceOnUse" x1="10.7521" y1="4.4391" x2="28.1317" y2="34.5415">
	<stop  offset="0" style="stop-color:#FDC61D"/>
	<stop  offset="0.3294" style="stop-color:#ED6E28"/>
	<stop  offset="1" style="stop-color:#E72A65"/>
</linearGradient>
<path class="st0" d="M32.7,13.6h-7.3V6.2c0-3.3-2.7-5.9-5.9-5.9c-3.3,0-5.9,2.7-5.9,5.9v7.3H6.2c-3.3,0-5.9,2.7-5.9,5.9
	c0,3.3,2.7,5.9,5.9,5.9h7.3v7.3c0,3.3,2.7,5.9,5.9,5.9c3.3,0,5.9-2.7,5.9-5.9v-7.3h7.3c3.3,0,5.9-2.7,5.9-5.9
	C38.6,16.2,35.9,13.6,32.7,13.6z"/>
<linearGradient id="SVGID_2_" gradientUnits="userSpaceOnUse" x1="10.9253" y1="4.7399" x2="27.9575" y2="34.2406">
	<stop  offset="0" style="stop-color:#52A1CB"/>
	<stop  offset="1" style="stop-color:#E71B80"/>
</linearGradient>
<path class="st1" d="M35.5,16.4h-13v-13c0-1.7-1.4-3.1-3.1-3.1c-1.7,0-3.1,1.4-3.1,3.1v13h-13c-1.7,0-3.1,1.4-3.1,3.1
	c0,1.7,1.4,3.1,3.1,3.1h13v13c0,1.7,1.4,3.1,3.1,3.1c1.7,0,3.1-1.4,3.1-3.1v-13h13c1.7,0,3.1-1.4,3.1-3.1
	C38.6,17.8,37.3,16.4,35.5,16.4z"/>
</svg>
