<svg preserveAspectRatio="xMidYMid meet" data-bbox="0 0 429.531 203.645" viewBox="0 0 393.37 207.11" xmlns="http://www.w3.org/2000/svg" data-type="ugc" role="img">
    <g>
        <path d="M172.52 58l13.26-13.29L207 23.5l4.82-4.83-2.12 1.66.3-.2-2.53 1.06.34-.06h-5.63l.33.06-2.53-1.06.3.2-2.12-1.66L209.42 30l27.07 27.19L269.3 90l28.4 28.4c4.6 4.61 9.15 9.27 13.77 13.76l.2.19c3.91 3.93 11.1 4.24 15 0a10.76 10.76 0 0 0 0-15l-5.47-5.47L307 97.73l-19.9-19.91-22.29-22.28-21.66-21.67-17.71-17.69-10.69-10.7c-.57-.58-1.13-1.17-1.73-1.73a11.65 11.65 0 0 0-14-1.63A14.3 14.3 0 0 0 196.61 4c-.64.61-1.24 1.24-1.86 1.85l-18.94 19-17.26 17.21-1 1c-3.92 3.93-4.23 11.11 0 15a10.79 10.79 0 0 0 15 0z" fill="#dbb52a"></path>
        <path d="M99.8 113.27H11.38l2.81.38h-.27l2.52 1.06-.23-.12 2.11 1.65-.19-.18 1.66 2.12-.12-.22 1.06 2.53-.07-.24.38 2.81v-.26l-.38 2.81.09-.25-1.06 2.53.17-.22-1.65 2.11 11.08-11 26.56-26.55L88 60.11l27.76-27.77c4.48-4.48 9.05-8.89 13.46-13.45a1 1 0 0 1 .18-.18l-2.12 1.65.3-.19-2.53 1 .32-.06h-5.62l.34.06-2.53-1 .3.19-2.12-1.65L127 30l27.12 27.16L186.93 90l28.39 28.4c4.61 4.61 9.15 9.28 13.82 13.76l.19.2c3.93 3.92 11.1 4.23 15 0a10.78 10.78 0 0 0 0-15l-4.89-4.89-12.87-12.8-18.06-18.16-20.93-20.83-20.79-20.8-18.24-18.24L135.61 8.7c-1.65-1.65-3.26-3.39-5-5a11.47 11.47 0 0 0-9.5-3.14 11.78 11.78 0 0 0-6.71 3.18.57.57 0 0 0-.11.11c-.26.24-.49.48-.72.72l-3.24 3.23-12.42 12.43-18 18L59.12 59 38.23 79.91 20.08 98 7.57 110.57l-3.37 3.35c-.25.27-.53.52-.78.79a11.54 11.54 0 0 0 8.37 19.73h88c5.54 0 10.84-4.87 10.59-10.59a10.76 10.76 0 0 0-10.58-10.58z" fill="#192c44"></path>
        <path d="M256.85 21.17h88.42l-10.59-10.58v33.87l10.59-10.59H288a10.59 10.59 0 0 0-7.5 18.05l8.68 8 20.66 19L335 102.11 356.61 122c3.54 3.25 7 6.53 10.59 9.74l.15.14a11.07 11.07 0 0 0 7.48 3.1 10.73 10.73 0 0 0 7.48-3.1 10.57 10.57 0 0 0 0-15l-8.67-8L353 89.84l-25.19-23.15-21.61-19.87c-3.52-3.24-7-6.56-10.58-9.74l-.15-.14L288 55.05h57.28a10.74 10.74 0 0 0 10.58-10.59V10.59A10.73 10.73 0 0 0 345.27 0h-88.42c-5.53 0-10.85 4.87-10.58 10.59a10.77 10.77 0 0 0 10.58 10.58z" fill="#192c44"></path>
        <path d="M334.68 31.41v2.46h-2.42a2.39 2.39 0 0 0 1.85-.84 3.26 3.26 0 0 0 .57-1.62z" fill="#192c44"></path>
        <path d="M332.24 21.17h2.44v2.43a2.44 2.44 0 0 0-.86-1.85 3.2 3.2 0 0 0-1.58-.58z" fill="#192c44"></path>
        <text transform="translate(0 193.52)" style="isolation:isolate" font-size="46.39" font-family="OpenSans-Bold,Open Sans" font-weight="700" fill="#192c44">
            ENTERPRISES LLC
        </text>
    </g>
</svg>