<svg preserveAspectRatio="xMidYMid meet" data-bbox="0 0 600.672 277.632" viewBox="0 0 550.1 282.46" xmlns="http://www.w3.org/2000/svg" data-type="ugc" role="img" aria-labelledby="svgcid-bzjzyl-2vkw89"><title id="svgcid-bzjzyl-2vkw89"></title>
    <g>
        <g>
            <g>
                <g>
                    <g>
                        <g>
                            <g>
                                <g>
                                    <g>
                                        <path d="M245.84 81.77L264.55 63l29.87-29.87 6.8-6.81-3 2.33.42-.27-3.57 1.5.48-.09h-7.95l.48.09-3.57-1.5.42.27-3-2.33 16 16 38.19 38.37 46.3 46.3L422.47 167c6.48 6.5 12.9 13.08 19.41 19.41l.29.27c5.52 5.54 15.67 6 21.12 0a15.2 15.2 0 0 0 0-21.12l-7.72-7.72-20-20-28.1-28.1-31.41-31.39-30.56-30.56-25-25-15.07-15c-.8-.82-1.6-1.66-2.45-2.45A16.43 16.43 0 0 0 283.18 3a20.86 20.86 0 0 0-3.34 2.66c-.9.85-1.75 1.74-2.63 2.61L250.48 35l-24.34 24.34-1.38 1.36c-5.52 5.54-6 15.67 0 21.13a15.24 15.24 0 0 0 21.14 0z" fill="#ffffff"></path>
                                        <path d="M143.24 159.82H18.49l4 .53h-.39l3.56 1.5-.33-.17 3 2.33-.26-.25 2.34 3-.18-.32 1.5 3.57-.09-.34.53 4v-.37l-.53 4 .11-.36-1.49 3.57.24-.31-2.33 3 15.59-15.6 37.47-37.48 45.33-45.32 39.18-39.18c6.32-6.31 12.77-12.54 19-19a3 3 0 0 1 .25-.25l-3 2.33.42-.27-3.57 1.49.46-.09h-7.93l.48.09-3.57-1.49.41.27-3-2.33 15.9 15.93 38.27 38.33 46.3 46.3L306.24 167c6.5 6.5 12.9 13.09 19.49 19.42l.27.27c5.54 5.54 15.66 6 21.13 0a15.2 15.2 0 0 0 0-21.12l-6.9-6.9-18.13-18L296.62 115l-29.53-29.38-29.33-29.36L212 30.53l-18.23-18.25c-2.33-2.33-4.6-4.78-7-7A16.2 16.2 0 0 0 173.31.79a16.68 16.68 0 0 0-9.47 4.48 1.29 1.29 0 0 0-.16.17c-.36.33-.69.67-1 1L158.09 11l-17.52 17.54-25.39 25.39-29.33 29.35-29.47 29.47-25.62 25.57L13.11 156l-4.75 4.74c-.36.37-.75.73-1.11 1.1a16.28 16.28 0 0 0 11.82 27.84h124.17c7.82 0 15.3-6.87 14.94-14.93a15.19 15.19 0 0 0-14.94-14.93z" fill="#ffffff"></path>
                                        <path d="M364.83 29.87h124.74l-14.93-14.93v47.79l14.93-14.94h-80.81a14.94 14.94 0 0 0-10.58 25.47l12.25 11.26 29.15 26.89 35.52 32.66 30.49 28c5 4.59 9.91 9.22 14.93 13.74l.21.2a15.73 15.73 0 0 0 10.56 4.37 15.19 15.19 0 0 0 10.56-4.38 14.94 14.94 0 0 0 0-21.12l-12.23-11.35-29.14-26.81L465 94.1l-30.49-28c-5-4.57-9.86-9.26-14.93-13.74l-.21-.19-10.61 25.5h80.81a15.16 15.16 0 0 0 14.94-14.94V14.94A15.14 15.14 0 0 0 489.57 0H364.83C357 0 349.54 6.87 349.9 14.94a15.19 15.19 0 0 0 14.93 14.93z" fill="#ffffff"></path>
                                    </g>
                                    <path d="M474.64 44.31v3.48h-3.42a3.4 3.4 0 0 0 2.61-1.19 4.4 4.4 0 0 0 .81-2.29z" fill="#ffffff"></path>
                                    <path d="M471.19 29.87h3.45v3.42a3.47 3.47 0 0 0-1.21-2.6 4.52 4.52 0 0 0-2.24-.82z" fill="#ffffff"></path>
                                </g>
                            </g>
                        </g>
                        <text transform="translate(0 263.46)" style="isolation:isolate" font-size="64.87" font-family="OpenSans-Bold,Open Sans" font-weight="700" fill="#ffffff">
                            ENTERPRISES LLC
                        </text>
                    </g>
                </g>
            </g>
        </g>
    </g>
</svg>