<?xml version="1.0" encoding="UTF-8"?>
<svg data-bbox="0.002 -0.004 127.266 27.895" viewBox="0 0 127.268 27.89" height="27.89" width="127.268" xmlns="http://www.w3.org/2000/svg" data-type="ugc">
    <g>
        <g>
            <path fill="rgba(25,44,68,0.87)" d="M3.47 7.601c0 .153-.028.3-.028.454v9.26c-.023.394-.156.519-.567.541H.494a.473.473 0 0 1-.479-.475 2.7 2.7 0 0 1-.011-.366V.872A2.633 2.633 0 0 1 .018.504.5.5 0 0 1 .504.028a2.67 2.67 0 0 1 .368 0h2.751a3.2 3.2 0 0 1 .368 0 .581.581 0 0 1 .513.405c.043.133.079.283.113.405q1.25 4.9 2.5 9.79c.04.15.085.3.125.454.159-.028.139-.153.162-.244q1.211-4.767 2.424-9.532c.062-.238.119-.479.19-.714.136-.454.283-.567.762-.567h2.863a3.549 3.549 0 0 1 .425 0 .493.493 0 0 1 .482.527v16.4a4.434 4.434 0 0 1 0 .476.411.411 0 0 1-.408.411c-.864 0-1.729.017-2.594 0-.266 0-.408-.173-.434-.445v-9.2c0-.193 0-.383-.014-.6a.8.8 0 0 0-.221.414l-.87 3.489-1.417 5.584a3.337 3.337 0 0 1-.122.405.507.507 0 0 1-.479.357H6.574a.533.533 0 0 1-.507-.4 5.299 5.299 0 0 1-.128-.459L3.686 8.015c-.037-.142-.091-.283-.139-.422z"/>
            <path fill="rgba(25,44,68,0.87)" d="M65.049 8.282a1.581 1.581 0 0 0-.054.615v8.571a.363.363 0 0 1-.368.38h-2.7c-.283 0-.414-.133-.451-.417a3.049 3.049 0 0 1-.017-.425V.608c.026-.439.147-.567.567-.592h2.438a.541.541 0 0 1 .456.315c.068.145.125.283.184.439q1.7 4.161 3.4 8.328c.071.173.153.343.238.536.142-.125.091-.255.091-.366V.53c0-.38.133-.516.513-.522h2.488c.371 0 .507.156.533.516v16.84c-.023.349-.145.476-.488.49s-.6 0-.9 0h-1.482a.6.6 0 0 1-.646-.434c-.057-.147-.122-.283-.184-.439q-1.667-4.09-3.339-8.18a1.29 1.29 0 0 0-.279-.519z"/>
            <path fill="rgba(25,44,68,0.87)" d="M127.268 8.953v5.674a4.041 4.041 0 0 1-.2 1.3 2.574 2.574 0 0 1-1.276 1.491 3.662 3.662 0 0 1-1.675.439h-3.92a3.622 3.622 0 0 1-1.19-.23 2.751 2.751 0 0 1-1.947-2.52c-.02-.21-.014-.422-.014-.635V3.409a4.675 4.675 0 0 1 .1-1.156 2.673 2.673 0 0 1 1.618-1.9 4.337 4.337 0 0 1 1.652-.349c1.148 0 2.3-.017 3.444 0a5.27 5.27 0 0 1 1.134.167 2.8 2.8 0 0 1 2.245 2.783v.527zm-6.769-.026v4.969c0 .692.283.995.984 1.023.476.02.952 0 1.417 0a2 2 0 0 0 .465-.082.621.621 0 0 0 .479-.51 3.274 3.274 0 0 0 .06-.567V4.197a3.3 3.3 0 0 0-.054-.567.646.646 0 0 0-.649-.587 22.768 22.768 0 0 0-2.007 0 .694.694 0 0 0-.686.649 3.8 3.8 0 0 0-.017.476z"/>
            <path fill="rgba(25,44,68,0.87)" d="M40.035 14.403a42.087 42.087 0 0 0-4.32-.017 1.049 1.049 0 0 0-.19.524c-.156.743-.306 1.485-.465 2.225-.15.694-.193.726-.918.728h-2.381c-.249-.026-.351-.139-.329-.38a2.663 2.663 0 0 1 .077-.363L35.497.892c.034-.136.065-.283.1-.411.113-.346.232-.442.612-.473h3.118a2.945 2.945 0 0 1 .317 0 .485.485 0 0 1 .459.374c.091.34.179.683.264 1.023q1.675 6.8 3.347 13.605c.176.72.354 1.437.527 2.157.133.567.045.672-.516.677h-2.54a.431.431 0 0 1-.417-.343 6.228 6.228 0 0 1-.113-.462c-.173-.774-.343-1.548-.516-2.321-.019-.1-.07-.215-.104-.315zm-2.132-9.946c-.145.065-.133.181-.156.283l-.618 2.948q-.357 1.7-.711 3.4c-.034.167-.1.34 0 .5a15.159 15.159 0 0 0 2.982-.014c-.493-2.372-.995-4.739-1.5-7.117z"/>
            <path fill="rgba(25,44,68,0.87)" d="M94.986 3.182c-.119-.164-.269-.133-.405-.133h-4.453c-.607 0-.7-.1-.709-.711V.75a1.988 1.988 0 0 1 .023-.317.442.442 0 0 1 .425-.4 2.7 2.7 0 0 1 .371 0h8.895a2.653 2.653 0 0 1 .368.014.374.374 0 0 1 .349.527 4.542 4.542 0 0 1-.2.49q-1.865 4.195-3.713 8.407l-2.092 4.745a1.349 1.349 0 0 0-.184.544c.147.122.312.079.462.079h4.932a.428.428 0 0 1 .456.473c.014.264 0 .53 0 .794v1.216c0 .405-.145.5-.519.524h-9.419a3.755 3.755 0 0 1-.473 0 .354.354 0 0 1-.323-.493 3.632 3.632 0 0 1 .176-.439l2.702-6.136q1.582-3.58 3.16-7.163c.067-.156.12-.303.171-.433z"/>
        </g>
        <g>
            <g>
                <path fill="rgba(25,44,68,0.87)" d="M99.866 27.312h-4.364a3.1 3.1 0 0 1-.357-.014.153.153 0 0 1-.144-.136 1.264 1.264 0 0 1 0-.213c0-.142.055-.2.191-.209a2.65 2.65 0 0 1 .287-.01h9.023c.307.012.421.172.307.467a.192.192 0 0 1-.132.1 2.475 2.475 0 0 1-.357.015z"/>
                <path fill="rgba(25,44,68,0.87)" d="M28.792 26.793a.623.623 0 0 1 0 .469 2.212 2.212 0 0 1-.232.046h-9a.9.9 0 0 1-.493-.058.625.625 0 0 1 0-.46.8.8 0 0 1 .172-.051c.106-.01.215-.01.321-.01h8.734a.893.893 0 0 1 .498.064z"/>
                <path fill="rgba(25,44,68,0.87)" d="M57.867 26.238a2.873 2.873 0 0 1-.206-.268.733.733 0 0 1 .257-1.03 1.109 1.109 0 0 1 .858-.118c.033 0 .058.036.1.064a1.2 1.2 0 0 1-.009.134.211.211 0 0 1-.221.191 1.3 1.3 0 0 0-.283.031.362.362 0 0 0-.309.414.36.36 0 0 0 .343.352 1.656 1.656 0 0 0 .669-.033c.014-.019.034-.034.041-.055.1-.3.1-.3.448-.232l.046.156c.017.056.031.089.048.141l.172.053c.045.014.089.031.127.045.072.307.072.307-.309.427-.012.07-.029.151-.036.232a2.4 2.4 0 0 1-.014.249 1.391 1.391 0 0 1-.112.378.968.968 0 0 1-.959.5 1.031 1.031 0 0 1-.985-.53.8.8 0 0 1 .1-.9 1.718 1.718 0 0 1 .234-.201zm1.251.252a3.16 3.16 0 0 0-.781-.014.111.111 0 0 0-.034 0 .469.469 0 0 0-.024.91 1.1 1.1 0 0 0 .352.029.489.489 0 0 0 .484-.438 3.918 3.918 0 0 0 0-.487z"/>
                <path fill="rgba(25,44,68,0.87)" d="M77.462 25.771a.711.711 0 0 0 .014-.462c-.3-.172-.3-.172-.239-.424a1.564 1.564 0 0 1 .687 0 .581.581 0 0 1 .074.39v1.706c0 .129.01.257.015.393a1.724 1.724 0 0 1 .172.079.2.2 0 0 1 .093.242.16.16 0 0 1-.161.115c-.215.012-.434.039-.6-.172-.088.048-.172.1-.251.139a.884.884 0 0 1-1.189-.395 1.356 1.356 0 0 1 0-1.267.922.922 0 0 1 1.135-.45c.066.025.14.061.25.106zm-1.061 1a2.6 2.6 0 0 0 .118.4.457.457 0 0 0 .462.271.477.477 0 0 0 .455-.287.891.891 0 0 0-.024-.858.5.5 0 0 0-.875-.017 1.081 1.081 0 0 0-.136.487z"/>
                <path fill="rgba(25,44,68,0.87)" d="M48.662 27.392a1.936 1.936 0 0 1 .192.064.192.192 0 0 1 .1.239.154.154 0 0 1-.16.117 2.022 2.022 0 0 1-.542-.015.486.486 0 0 1-.089-.368v-.816a1.742 1.742 0 0 0-.019-.285.343.343 0 0 0-.391-.28.661.661 0 0 0-.566.479 1.79 1.79 0 0 0-.021.844.932.932 0 0 1 .264.154c.039.045 0 .153 0 .244a1.049 1.049 0 0 1-.213.045h-.716a.137.137 0 0 1-.146-.127c-.012-.086-.012-.172.077-.218.06-.033.127-.055.206-.089.024-.687.022-1.373 0-2.079a1.715 1.715 0 0 1-.206-.081.244.244 0 0 1-.1-.091.172.172 0 0 1 .136-.261h.585c.13.333.012.673.082.983.1.057.144-.015.2-.055a.944.944 0 0 1 .687-.158.609.609 0 0 1 .59.565c.022.172.012.355.019.534a3.122 3.122 0 0 0 .033.654z"/>
                <path fill="rgba(25,44,68,0.87)" d="M65.561 26.901c.024.072.038.1.046.139.065.273.161.364.431.384a1.182 1.182 0 0 0 .321-.01.4.4 0 0 0 .343-.319.362.362 0 0 0-.185-.393 4.541 4.541 0 0 0-.45-.22 4.783 4.783 0 0 1-.482-.23.712.712 0 0 1-.354-.687.731.731 0 0 1 .467-.664 1.373 1.373 0 0 1 1.112.027.46.46 0 0 1 .306.475 1.768 1.768 0 0 1-.024.211.367.367 0 0 1-.362.041c-.022-.034-.045-.053-.048-.074-.022-.151-.082-.28-.245-.312a.7.7 0 0 0-.554.053.343.343 0 0 0-.036.529 1.117 1.117 0 0 0 .271.172c.141.065.288.115.431.172a2.377 2.377 0 0 1 .256.129.807.807 0 0 1 0 1.389 1.31 1.31 0 0 1-1.363-.027.584.584 0 0 1-.275-.661.151.151 0 0 1 .136-.144 2.022 2.022 0 0 1 .258.02z"/>
                <path fill="rgba(25,44,68,0.87)" d="M33.531 26.941a.343.343 0 0 1 .36-.019c.021.065.043.144.072.22a.543.543 0 0 0 .081.153.766.766 0 0 0 .894-.01.383.383 0 0 0-.012-.515 1.03 1.03 0 0 0-.266-.172c-.127-.064-.264-.108-.395-.172a3.272 3.272 0 0 1-.321-.158.735.735 0 0 1-.36-.788.721.721 0 0 1 .515-.616 1.358 1.358 0 0 1 .946.014c.367.129.467.357.343.778h-.309c-.019-.031-.05-.057-.057-.088-.033-.148-.093-.276-.256-.307a.7.7 0 0 0-.553.053.321.321 0 0 0-.069.494.781.781 0 0 0 .228.172c.127.064.266.106.4.172a3.443 3.443 0 0 1 .39.177.736.736 0 0 1 .376.717.788.788 0 0 1-.472.7 1.359 1.359 0 0 1-1.2-.024.553.553 0 0 1-.343-.57.941.941 0 0 1 .008-.211z"/>
                <path fill="rgba(25,44,68,0.87)" d="M39.45 26.079c-.07-.019-.115-.029-.16-.043-.122-.041-.161-.1-.149-.2a.172.172 0 0 1 .16-.161 1.157 1.157 0 0 1 .6.046 3.322 3.322 0 0 1 .043.814 6.253 6.253 0 0 0 .027.834c.058.027.122.055.182.088a.185.185 0 0 1 .1.237c-.014.041-.051.094-.088.1a.82.82 0 0 1-.525-.019c-.072-.033-.122-.11-.2-.18-.072.046-.148.1-.228.142a.929.929 0 0 1-.654.125.623.623 0 0 1-.53-.553 2.474 2.474 0 0 1-.017-.319v-.607c0-.093-.017-.185-.027-.288l-.288-.1a1.225 1.225 0 0 1-.024-.172.132.132 0 0 1 .124-.148 4.645 4.645 0 0 1 .536 0 .149.149 0 0 1 .137.144 2 2 0 0 1 .014.249v.963a.391.391 0 0 0 .654.318.7.7 0 0 0 .319-.534 2.48 2.48 0 0 0-.012-.736z"/>
                <path fill="rgba(25,44,68,0.87)" d="M82.307 27.27l.158.276a1.114 1.114 0 0 1-.858.326 1.064 1.064 0 0 1-1-.577 1.183 1.183 0 0 1 .052-1.22 1.081 1.081 0 0 1 1.334-.364.934.934 0 0 1 .5.942.57.57 0 0 1-.065.137c-.472.06-.949-.015-1.43.045a.489.489 0 0 0 .209.47.623.623 0 0 0 .537.129 5 5 0 0 0 .56-.165zm-.343-.8c0-.2-.015-.251-.1-.333a.434.434 0 0 0-.328-.115.5.5 0 0 0-.414.172c-.065.081-.144.161-.067.306a5.322 5.322 0 0 0 .9-.029z"/>
                <path fill="rgba(25,44,68,0.87)" d="M88.749 27.107a.343.343 0 0 1 .063.094.343.343 0 0 0 .268.257.56.56 0 0 0 .448-.048.192.192 0 0 0 .019-.328 1.334 1.334 0 0 0-.251-.13c-.142-.064-.292-.11-.427-.184a.973.973 0 0 1-.278-.215.515.515 0 0 1 .067-.731.634.634 0 0 1 .18-.112 1.189 1.189 0 0 1 .939.014.41.41 0 0 1 .271.453.16.16 0 0 1-.113.163.257.257 0 0 1-.268-.045.171.171 0 0 1-.036-.062c-.033-.094-.079-.184-.187-.192a1.2 1.2 0 0 0-.343.017.184.184 0 0 0-.069.3.578.578 0 0 0 .172.122c.1.046.2.072.3.113a2.164 2.164 0 0 1 .354.172.551.551 0 0 1-.021.966 1.253 1.253 0 0 1-.367.132 1.171 1.171 0 0 1-.8-.129.463.463 0 0 1-.269-.431c0-.148.057-.208.218-.213a.56.56 0 0 1 .13.017z"/>
                <path fill="rgba(25,44,68,0.87)" d="M43.741 26.325a.27.27 0 0 1-.045-.057c-.038-.088-.07-.182-.172-.216a.584.584 0 0 0-.386 0 .187.187 0 0 0-.062.318.992.992 0 0 0 .245.141c.141.062.292.1.431.172a.585.585 0 0 1 .405.608.624.624 0 0 1-.5.536 1.219 1.219 0 0 1-.906-.07.486.486 0 0 1-.306-.408c-.017-.182.05-.256.245-.256a.484.484 0 0 1 .1.024c.021.029.053.055.058.086.029.172.149.232.3.269a.541.541 0 0 0 .445-.07.172.172 0 0 0 .031-.276 1.02 1.02 0 0 0-.239-.151c-.118-.055-.247-.089-.366-.146a1.363 1.363 0 0 1-.306-.18.56.56 0 0 1 .125-.917 1.217 1.217 0 0 1 1.006 0 .376.376 0 0 1 .216.227.343.343 0 0 1-.021.343c-.072.088-.187.066-.298.023z"/>
                <path fill="rgba(25,44,68,0.87)" d="M70.387 27.801a2.107 2.107 0 0 1-.3.015.434.434 0 0 1-.412-.343 1.94 1.94 0 0 1-.051-.457v-1.317c0-.129-.01-.259-.014-.343-.088-.148-.269-.1-.3-.247a.893.893 0 0 1 0-.209 1.619 1.619 0 0 1 .707-.014.535.535 0 0 1 .079.386v1.851a.3.3 0 0 0 .209.33c.16.053.112.192.077.348z"/>
                <path fill="rgba(25,44,68,0.87)" d="M85.558 27.368c.276.156.276.156.233.414a1.048 1.048 0 0 1-.2.039h-.687a.151.151 0 0 1-.172-.153.172.172 0 0 1 .1-.2c.055-.022.112-.038.18-.06a2.024 2.024 0 0 0 .034-.244v-.862c0-.189-.015-.194-.218-.263a1.078 1.078 0 0 1-.106-.05.631.631 0 0 1-.01-.172.14.14 0 0 1 .07-.112.714.714 0 0 1 .62.046.712.712 0 0 1 .141.182 1.246 1.246 0 0 1 .2-.141 1.736 1.736 0 0 1 .33-.125.141.141 0 0 1 .172.129 2.5 2.5 0 0 1 0 .254.657.657 0 0 1-.139.057.64.64 0 0 0-.57.6 1.868 1.868 0 0 0 .022.663z"/>
                <path fill="rgba(25,44,68,0.87)" d="M72.931 27.392a5.469 5.469 0 0 0-.012-1.315c-.046-.014-.1-.026-.156-.045-.117-.039-.153-.094-.141-.206a.156.156 0 0 1 .161-.156 4.849 4.849 0 0 1 .5 0 .146.146 0 0 1 .137.139 2.41 2.41 0 0 1 .014.256v.994c0 .1.012.209.019.326a.96.96 0 0 1 .206.074.24.24 0 0 1 .1.134.172.172 0 0 1-.163.218h-.786a.149.149 0 0 1-.158-.117.194.194 0 0 1 .07-.221 1.124 1.124 0 0 1 .209-.081z"/>
                <path fill="rgba(25,44,68,0.87)" d="M51.201 27.766c-.058-.247-.058-.247.237-.395a11.468 11.468 0 0 0 .017-1.267l-.209-.074a.19.19 0 0 1 .034-.364 1.2 1.2 0 0 1 .585.036.536.536 0 0 1 .062.357v1c0 .1.014.209.021.321a1.749 1.749 0 0 1 .172.064c.112.048.151.108.122.221a.2.2 0 0 1-.1.127 2.961 2.961 0 0 1-.941-.026z"/>
                <path fill="rgba(25,44,68,0.87)" d="M72.985 24.914a.493.493 0 0 1 .4-.026 1.234 1.234 0 0 1 .048.221c0 .158-.055.206-.218.209s-.24-.041-.245-.22a1.623 1.623 0 0 1 .014-.185z"/>
                <path fill="rgba(25,44,68,0.87)" d="M51.48 24.677a.515.515 0 0 1 .4-.026 1.1 1.1 0 0 1 .043.221c0 .16-.055.206-.218.209s-.24-.041-.24-.217a1.6 1.6 0 0 1 .015-.187z"/>
            </g>
        </g>
    </g>
</svg>
