<?xml version="1.0" encoding="UTF-8"?>
<svg data-bbox="-0.001 -0.018 2995.651 2543.158" viewBox="0 0 2999.11 2547.87" xmlns="http://www.w3.org/2000/svg" data-type="ugc">
    <g>
        <g>
            <path d="M1899.16 604.29c-282.93 50.67-265.23-22.9-265.23-22.9S1668 511.2 1729.28 514c0 0 33.3.74 73.68 25 48.21 28.94 85.94 67.69 85.94 67.69q6.35 6.48 12.4 13.07m0 0c103.44 112.9 136.53 245.85 144.6 286.44l-2.78 9.64s-192 242.72-859.61 624.54c-85.35 48.82-174.6 92.1-262.32 135.92q-106.22 53-214 102.84C493.84 1878 276.65 1968.86 55.72 2049.5c0 0-46 20-31.81 26.55 2.18 1 5.42 3.17 16.71 1.41 170.38-26.56 642.27-136.64 642.27-136.64s292-55.75 559.32-218.07c81.75-49.66 162.75-100.54 242.5-153.33C1583.09 1504.35 1678 1435 1774 1365.69c275.8-200.61 313.06-354.93 313.06-354.93 47.62-163 27-281.61 27-281.61-5.94-87.81-48.61-182.69-48.61-182.69-55-106.21-153.34-246.85-290.48-238.75-77.57 4.57-148.81 78.74-187.79 140.87-53 84.45-78 187.36-41.56 283 27.37 71.89 88.65 104.4 160.85 112.57 134.63 15.26 275.9-42.4 394.9-99.34q39.64-19 78.24-40.13c61.84-34 122.27-69.82 187.78-97.14 300.56-132.13 393.33 44.19 393.33 44.19 9.95 12.88 3.8 23.79 3.8 23.79-82.78 74.68-236.86-108.76-236.86-108.76-114.52-124.21-172.79-532-172.79-532-9.49-87.11-37.46 7.07-57 89.3 0 0-32.48 151 23.9 351.73 8.78 31.28 19.82 64.78 32.88 100.35l3.5 15.32c41.53 84.92 89.58 170.6 155.56 239.24 31.48 32.74 69.51 64.3 114.22 76.47 21.31 5.79 47.57 8.15 67.9-2.55 48.75-25.68 78.83-75.55 98.09-125.44 54.08-140.11 72.08-353.4-94.81-422.71-26.91-11.18-56.48-18.4-85.72-19.34a389.7 389.7 0 0 0-57.39 3.37c-78 10.05-153.38 38-224.17 71.35-77.14 36.32-148.47 83.27-225.92 118.34q-47.45 21.48-96.37 39.46c-33.34 12.33-68.82 27-104 33.5l-6.33 1.14" fill="#010101"/>
            <path d="M1050.12 694.28c37.23 18.43 73.42 38 107 59.76 38.72 25 76.74 50.84 107.65 85.57 17 19.12 81.77 103.76 58.74 132.57 0 0 18.07-22.61 18.59-57.42l.29-17.72-1.53-7.52s-25.45 25-76.46 60.82l-5.16 3.62c-71.55 49.86-146.49 94.7-221.09 139.84-77.59 47-156.15 92.41-235.74 135.35l-7 3.09q-96.78 51.9-195.38 100.24c-90.78 44.48-179.49 90.94-273.58 127-83.37 32-172.9 39-221.66-12.35C81.92 1423 68 1386.1 67.89 1332.9c-.1-39.77 6.37-79.22 14.65-118 4.17-19.51 8.83-38.92 13.42-58.33 16.82-71.1 38.5-140.62 59.72-210.61l.46-1.72c6.64-22.06 3.18-50.63-17.64-18.28l-17.83 37.29q-9.86 27-19.06 54.14-17.94 52.91-33.41 106.58c-14.64 50.86-30.52 102.58-42.58 153.61q-1.83 7.82-3.55 15.68-3.7 16.93-6.84 34c-4.54 24.71-8.21 49.6-10.79 74.59-7.23 70.11-8.46 146.64 18.49 213.06 27.25 67.14 85.8 103 157.72 102.66 35.71-.18 69.59-9.07 102.9-21 70.13-25.09 137.91-56.85 204.87-89.32q60.8-29.49 120.79-60.57 58.24-30 115.45-60.6c58-31 115.58-62.55 173.34-95q78.07-43.83 155.53-88.69c217.71-126.46 228.78-155.06 228.78-155.06 72.12-63 96.54-178.7 96.57-178.78 14.75-67.95 14.57-140.35-3.56-207.82a296.76 296.76 0 0 0-21.7-56.32c-35.5-69.78-100.3-127.23-167.67-165.27-11.78-6.64-23.77-12.91-35.85-19-14-7-28.08-13.83-42.35-20.23-45.29-20.42-90.73-39.39-132.67-59.53-10.08-4.8-19.91-10.2-30.08-14.86C711.35 319 531.19 46.61 531.19 46.61c-1-1.58-2-3.15-3-4.71-61.87-97.71-40.3 30.14-15.65 139 50.91 224.78 244.19 381.07 443.92 471.22 31.03 13.97 63.54 27.23 93.66 42.16z" fill="#010101"/>
            <path d="M2362.61 1887.27v195.63c-1 .08-2 .13-3 .22-1.41-11.2-.44-22.61-.61-33.91-.18-12 0-23.94 0-35.9V1906c-.55-.1-1.13-.22-1.68-.31-1 2.16-2.1 4.25-3 6.46q-32.72 82-65.49 164c-1 2.65-3.29 4.79-5 7.19-1.92-2.48-4.57-4.65-5.69-7.44q-32.55-81.61-64.77-163.34a12.88 12.88 0 0 0-4.69-6.51v89.09c0 15.12.12 30.2 0 45.29-.13 14.28.64 28.61-.51 42.81-1-.05-2.08-.11-3.09-.14v-195.68c.47-.41 1-.79 1.45-1.2 1.54 2.33 3.55 4.47 4.55 7q26.63 67 53 134c6.24 15.83 12.55 31.63 19.47 49 1.9-4.53 3.22-7.5 4.41-10.54q34.14-86 68.29-172c1.06-2.68 2.94-5 4.41-7.49z" stroke="#000000" stroke-miterlimit="10" stroke-width="6.685" fill-rule="evenodd"/>
            <path d="M2765.33 2083.38v-194.81c22.12 0 44.08-1.87 65.58.56 20.59 2.33 36 16 48 32.8 31.79 44.66 23.74 112-17.15 144.63-13.81 11-29.47 16.82-47.25 16.82-16.21-.01-32.37 0-49.18 0zm4.59-5.17c14.66 0 28.56-.14 42.46 0 23.82.32 43.06-9.29 58.26-27.14 28.34-33.24 31.24-85.57 6.94-122.71-11.31-17.32-26.37-31-47-34.16-19.77-3-40.08-2.18-60.69-3.06z" stroke="#000000" stroke-miterlimit="10" stroke-width="6.685" fill-rule="evenodd"/>
            <path d="M2741.15 1985c-.47 26.56-7.94 50.56-25.46 70.85-31.31 36.32-82.79 36.58-114.54.67-34.81-39.37-34.55-104.49.6-143.55 31.77-35.31 82.83-34.79 113.91 1.3 17.51 20.35 24.97 44.34 25.49 70.73zm-4.49.2c-.21-25.37-7.61-48.19-24.45-67.48-29.94-34.31-78.34-34.22-108.32.1-32.33 37-32.4 97.19-.17 134.31 29.86 34.4 78.25 34.67 108.35.46 16.93-19.18 24.38-41.98 24.59-67.35z" stroke="#000000" stroke-miterlimit="10" stroke-width="6.685" fill-rule="evenodd"/>
            <path d="M2553.1 1984.6c-.39 26.65-7.79 50.67-25.23 71-31.21 36.46-82.64 37-114.51 1.21-35.18-39.41-34.86-105.16.66-144.2 31.75-34.85 82.36-34.29 113.38 1.4 17.6 20.27 25.1 44.25 25.7 70.59zm-4.49.64c-.23-25.37-7.63-48.19-24.46-67.48-29.93-34.31-78.33-34.22-108.3.1-32.34 37-32.4 97.19-.18 134.31 29.86 34.4 78.26 34.67 108.36.46 16.89-19.22 24.37-42.02 24.58-67.39z" stroke="#000000" stroke-miterlimit="10" stroke-width="6.685" fill-rule="evenodd"/>
            <path d="M2342.73 2351.44c21 0 41.07-.74 61.05.24 18.57.9 30.78 12.26 36.89 29.1 7.39 20.3 4.64 39.49-10.19 56-2.51 2.77-5.52 5.09-9.1 8.39 22.06 10 32.44 27.06 31.72 50.77-.85 27.31-19.84 45.83-47.16 46-20.78.09-41.52 0-63.21 0zm4.12 184.47c23.82 0 46.84 1.33 69.64-.4 18.28-1.45 31.26-19.57 32.06-39.71.79-21.52-11.15-42.39-29.31-44.13-23.79-2.29-48-.56-72.39-.56zm.32-178.91v86.73a27.92 27.92 0 0 0 4 .73c16.25 0 32.45.22 48.7 0 21.73-.31 38.2-17 39.55-39.91 1.47-24.64-12.52-45.43-34-47.27-19.06-1.54-38.32-.28-58.25-.28z" stroke="#000000" stroke-miterlimit="10" stroke-width="6.685" fill-rule="evenodd"/>
            <path d="M2301.63 2217.31c.19-46.88 30-86.08 71.83-93.42 27.1-4.75 50 4.67 68.7 24 34.54 35.73 36.42 96.88 4.51 135.09-34.84 41.78-93.26 39.86-125.53-4.1-12.69-17.25-19.6-39.06-19.51-61.57zm163.29.69c-.8-21.73-6.44-41.4-19.44-58.61-30.28-40.1-83.51-42-116.53-4.31-30.55 34.93-30 92.81 1.21 127.14s79.55 34.37 110.7-.17c16.48-18.26 23.3-40.24 24.06-64.05z" stroke="#000000" stroke-miterlimit="10" stroke-width="6.685" fill-rule="evenodd"/>
            <path d="M2671.86 2452.2q43.93 44.09 87.84 88.1c-.9.94-1.75 1.92-2.62 2.84-32.36-31.08-63.56-63.42-95.81-94.61l-3.66 1.63v91.08l-3.3-.07V2352.8c24.24 0 49.24-2.29 73.58.67 22.35 2.69 36.7 28.79 33.64 53.28-3.21 25.56-20.6 42.38-44.56 42.77-14.65.25-29.3.05-43.95.05-.39.87-.78 1.76-1.16 2.63zm-13.62-8.77a18.07 18.07 0 0 0 3.74 1c18.55.08 37.1.3 55.65 0 21.48-.37 37.69-17.2 39.52-40.48 1.75-21.75-12.15-44-31.84-45.93-22-2.07-44.31-.47-67.07-.47z" stroke="#000000" stroke-miterlimit="10" stroke-width="6.685" fill-rule="evenodd"/>
            <path d="M2274.85 2253.5c-11.83 31.56-32.88 53.65-67.87 58.75-32 4.63-56.79-9.34-75.26-34.69-14.83-20.34-20.47-43.72-18.27-68.66 2.06-23.26 10.49-44 26.94-61.07 44.36-46 116.19-25.7 135.84 38.41l-4.42 1.27c-12.82-40.44-48.7-64.72-87-58.26-24.85 4.18-42.72 18.88-54.5 40.46-17 31.12-17.52 63.24-1.07 94.54 14.41 27.44 37.32 44.2 69.16 43.44 32.72-.75 54.79-19.23 68.76-47.86a82.24 82.24 0 0 0 3.24-7.75z" stroke="#000000" stroke-miterlimit="10" stroke-width="6.685" fill-rule="evenodd"/>
            <path d="M2624.24 2542.19c-4.92-12.38-9.9-24.75-14.73-37.16-10.47-26.74-10.44-26.74-39.36-26.74-17.77 0-35.57.58-53.29-.27-8.84-.41-12.58 2.87-15.31 10.79-5.09 15-11.22 29.63-17.07 44.36-1.26 3.14-3.11 6-4.67 9.09-1.15-.54-2.25-1.09-3.37-1.62q36.75-94.86 73.56-189.71c1.47-.17 2.91-.26 4.39-.42l74 190c-1.39.56-2.77 1.11-4.15 1.68zm-27.52-70.07c-14.73-37.83-29-74.56-44.32-113.92l-44.15 113.92z" stroke="#000000" stroke-miterlimit="10" stroke-width="6.685" fill-rule="evenodd"/>
            <path d="M2995.61 2127.44h-100.15V2216H2968v3.76h-72.57v88.71h100.22c0 1.17 0 2.32-.07 3.5h-104.69v-188.15h104.61c.02 1.18.05 2.42.11 3.62z" stroke="#000000" stroke-miterlimit="10" stroke-width="6.685" fill-rule="evenodd"/>
            <path d="M2761.49 2123.71H2866c0 1 0 2 .08 2.95h-100v89.12h72.44c0 1.39 0 2.77.08 4.15h-72.92v88.3h100.52v3.65h-104.71z" stroke="#000000" stroke-miterlimit="10" stroke-width="6.685" fill-rule="evenodd"/>
            <path d="M2633.23 2219.93v92.61h-2.81v-188.9h108l.12 3h-104.29v89.19h77c.06 1.38.1 2.75.15 4.13z" stroke="#000000" stroke-miterlimit="10" stroke-width="6.685" fill-rule="evenodd"/>
            <path d="M2577.28 2220.3h-78.49v92.22c-.95 0-1.91 0-2.9-.05v-188.93h108.5c0 1.07.09 2.18.17 3.26h-104.74v89.38h77.47c0 1.39-.01 2.76-.01 4.12z" stroke="#000000" stroke-miterlimit="10" stroke-width="6.685" fill-rule="evenodd"/>
        </g>
    </g>
</svg>
