<?xml version="1.0" encoding="UTF-8"?>
<svg data-bbox="0 0 144.57 111.216" viewBox="0 0 144.57 111.2" xmlns="http://www.w3.org/2000/svg" data-type="color">
    <g>
        <g>
            <path d="M26.46 109.32c-.07.36-.29 1.38-.39 1.72h-5.39v-.3c1-.08 1.1-.17 1.1-1v-4.34c0-1-.09-1-1-1.09V104h5c0 .27.05 1 .09 1.57l-.33.06a2.9 2.9 0 0 0-.35-.94c-.16-.23-.46-.31-1.27-.31h-.82c-.34 0-.37 0-.37.35v2.48h1.06c1 0 1.06-.09 1.2-.82h.33v2.09H25c-.14-.78-.22-.85-1.19-.85h-1.08v2.06c0 .52.07.75.27.89a2.63 2.63 0 0 0 1.17.14c.84 0 1.16-.09 1.4-.37a3.07 3.07 0 0 0 .55-1z" fill="#231f20" data-color="1"/>
            <path d="M34.24 111v-.3c.91-.09.95-.15.94-1.3v-4.45l-2.72 6h-.23l-2.5-5.82-.17 3.11c-.05.89-.05 1.37 0 1.81s.29.6 1 .68v.3h-2.6v-.3c.65-.08.87-.2.95-.66s.12-.86.21-2l.16-2.27c.1-1.42 0-1.46-1-1.56V104H30l2.55 5.45 2.61-5.45h1.9v.31c-1 .08-1.06.11-1 1.23l.11 4c0 1.15.07 1.21 1 1.3v.3z" fill="#231f20" data-color="1"/>
            <path d="M50.27 111.14h-.39a2.07 2.07 0 0 1-1.81-1c-.39-.54-.79-1.21-1.13-1.75-.19-.3-.38-.44-1-.44h-.36v1.74c0 .93.1 1 1 1.06v.3h-2.9v-.3c.91-.07 1-.13 1-1.06v-4.39c0-.92-.09-1-1-1v-.3h2.78a3.27 3.27 0 0 1 1.79.37 1.65 1.65 0 0 1 .73 1.43 2 2 0 0 1-1.42 1.87c.19.36.66 1.09 1 1.58a9.53 9.53 0 0 0 .9 1.13 1.66 1.66 0 0 0 .81.52zm-4.11-3.55a1.88 1.88 0 0 0 1.22-.3 1.56 1.56 0 0 0 .61-1.35 1.5 1.5 0 0 0-1.64-1.62 1.17 1.17 0 0 0-.6.11c-.08.06-.13.19-.13.48v2.68z" fill="#231f20" data-color="1"/>
            <path d="M55.89 111.05v-.3c.71-.09.81-.18.66-.6s-.37-1-.61-1.68h-2.38c-.18.49-.35 1-.5 1.4-.24.69-.14.8.7.88v.3h-2.43v-.3c.71-.1.86-.17 1.25-1.13l2.32-5.72.34-.1c.7 1.88 1.45 4 2.16 5.85.36.93.5 1 1.23 1.1v.3zm-1.09-5.83c-.35.94-.71 1.88-1.05 2.78h2.06z" fill="#231f20" data-color="1"/>
            <path d="M65.24 105.65a2.72 2.72 0 0 0-.35-1c-.18-.26-.37-.34-1.21-.34h-.8v5.37c0 .86.1 1 1.16 1v.3h-3.21v-.3c1-.07 1.1-.18 1.1-1v-5.37h-.69c-.93 0-1.15.09-1.29.34a3.14 3.14 0 0 0-.36 1h-.33c.06-.65.11-1.36.14-2h.22c.16.25.3.27.62.27h4.41a.59.59 0 0 0 .57-.27h.24c0 .5.05 1.3.11 1.93z" fill="#231f20" data-color="1"/>
            <path d="M67.13 111.05v-.3c.91-.07 1-.13 1-1.06v-4.36c0-.93-.09-1-1-1.06V104h3v.31c-.92.06-1 .13-1 1.06v4.36c0 .94.09 1 1 1.06v.3z" fill="#231f20" data-color="1"/>
            <path d="M38.86 111v-.3c.92-.07 1-.14 1-1.06v-4.36c0-.93-.09-1-1-1.06V104h3v.31c-.91.06-1 .13-1 1.06v4.36c0 .94.09 1 1 1.06v.3z" fill="#231f20" data-color="1"/>
            <path d="M83.09 109.24a10 10 0 0 1-.64 1.67 9.41 9.41 0 0 1-2 .29c-2.79 0-4-1.87-4-3.61 0-2.29 1.81-3.8 4.3-3.8a9.46 9.46 0 0 1 2 .29c.09.62.16 1.06.22 1.65l-.33.08a1.94 1.94 0 0 0-2.17-1.63 2.92 2.92 0 0 0-2.86 3.2c0 2 1.23 3.43 2.92 3.43 1.14 0 1.75-.6 2.31-1.69z" fill="#231f20" data-color="1"/>
            <path d="M92.2 104.26c-.67 0-.93.19-1 .64v2.67a3.86 3.86 0 0 1-.85 2.88 2.74 2.74 0 0 1-2 .75 2.62 2.62 0 0 1-2.78-3.11v-2.73c0-1-.08-1-1-1.1V104h2.9v.31c-.88 0-1 .12-1 1.1v2.49c0 1.75.71 2.75 2.1 2.75 1.61 0 2.11-1.3 2.11-3.1v-.83a12.55 12.55 0 0 0-.08-1.8c-.06-.43-.3-.56-1.08-.61V104h2.68z" fill="#231f20" data-color="1"/>
            <path d="M93.7 111v-.3c.92-.07 1-.14 1-1.06v-4.36c0-.93-.09-1-1-1.06V104h3v.31c-.91.06-1 .13-1 1.06v4.36c0 .94.09 1 1 1.06v.3z" fill="#231f20" data-color="1"/>
            <path d="M102.19 105.61c-.2-.7-.49-1.45-1.46-1.45a1.16 1.16 0 0 0-1.24 1.2c0 .79.53 1.17 1.42 1.61s1.93 1 1.93 2.17a2.22 2.22 0 0 1-2.48 2.06 3.89 3.89 0 0 1-1.1-.16 3.46 3.46 0 0 1-.55-.23 13.76 13.76 0 0 1-.3-1.69l.33-.07c.17.66.68 1.76 1.83 1.76a1.23 1.23 0 0 0 1.34-1.31c0-.8-.61-1.19-1.45-1.62s-1.85-.92-1.85-2.15a2.06 2.06 0 0 1 2.31-1.94 4.71 4.71 0 0 1 1.4.25c.05.39.1.82.2 1.5z" fill="#231f20" data-color="1"/>
            <path d="M104.39 111v-.3c.91-.07 1-.14 1-1.06v-4.36c0-.93-.09-1-1-1.06V104h3v.31c-.92.06-1 .13-1 1.06v4.36c0 .94.09 1 1 1.06v.3z" fill="#231f20" data-color="1"/>
            <path d="M116.66 104.26c-.62 0-.89.17-.94.65a16.58 16.58 0 0 0-.06 1.83v4.4h-.35l-4.76-5.72v2.74c0 1 0 1.53.06 1.84.06.56.32.69 1.08.74v.3H109v-.3c.65 0 .93-.18 1-.71 0-.34.07-.87.07-1.87v-2.4c0-.79 0-.84-.23-1.1a1.19 1.19 0 0 0-1-.4V104h1.65l4.67 5.48v-2.69a16.65 16.65 0 0 0-.08-1.81c-.05-.49-.32-.63-1.09-.67V104h2.63z" fill="#231f20" data-color="1"/>
            <path d="M123.89 109.32c-.06.36-.29 1.38-.39 1.72h-5.39v-.3c1-.08 1.11-.17 1.11-1v-4.34c0-1-.09-1-1-1.09V104h5c0 .27 0 1 .08 1.57l-.32.06a2.67 2.67 0 0 0-.36-.94c-.15-.23-.46-.31-1.26-.31h-.85c-.35 0-.37 0-.37.35v2.48h1c1 0 1.06-.09 1.21-.82h.32v2.09h-.32c-.15-.78-.23-.85-1.2-.85h-1.06v2.06c0 .52.07.75.27.89a2.58 2.58 0 0 0 1.16.14c.85 0 1.16-.09 1.41-.37a3.26 3.26 0 0 0 .55-1z" fill="#231f20" data-color="1"/>
            <path fill="#231f20" d="M31.69 96.45l1.91 1.07.72-1.38-1.87-1.07-.76 1.38z" data-color="1"/>
            <path fill="#231f20" d="M29.84 95.06l-.7 1.39L31 97.52l.75-1.38-1.91-1.08z" data-color="1"/>
            <path fill="#231f20" d="M25.62 83.61l.72-1.37-1.86-1.09-.76 1.42 1.9 1.04z" data-color="1"/>
            <path fill="#231f20" d="M37.03 84.39l-1.91-1.08-.7 1.41 1.87 1.04.74-1.37z" data-color="1"/>
            <path fill="#231f20" d="M38.89 85.77l.72-1.38-1.87-1.08-.75 1.41 1.9 1.05z" data-color="1"/>
            <path d="M38 92.12c.56-.32.88-.59 1-.83a9.18 9.18 0 0 0 .66-2.21 2.4 2.4 0 0 0-1.35-2 1.56 1.56 0 0 0-.72-.31c-.1 0-.2.27-.3.67a3.11 3.11 0 0 0-.13.79q1.38 1.29 1.38 1.62c0 .29-.34.55-1 .81a4 4 0 0 1-.87.27 4.29 4.29 0 0 1-1 .07 3.61 3.61 0 0 1-1.16-.15 1.89 1.89 0 0 1-.91-.8v-1.36a.93.93 0 0 0-.06-.39l-.21-.15a.56.56 0 0 0-.34.29c0 .06-.11.42-.25 1.08a2.82 2.82 0 0 1-.28.94 3.13 3.13 0 0 1-1.92.53h-1.38a4.94 4.94 0 0 1-2-.27 3.52 3.52 0 0 1-1.63-2.35c-.07-.22-.11-.39-.14-.51-.13-1.39-.21-2.43-.24-3.13-.06-.1-.11-.15-.16-.15s-.31.12-.36.36l-.17.94a2.28 2.28 0 0 0-.07 1l-1.8 1.23a9.39 9.39 0 0 0-1.11.83 2.46 2.46 0 0 0-.68 1.16 2.48 2.48 0 0 0-.13.58c0 .37.3.56.9.56a9.08 9.08 0 0 0 1.58-.19c.81-.15 1.25-.31 1.32-.49a4.33 4.33 0 0 0 .26-.65 7.81 7.81 0 0 0 1.44 2.12 3.76 3.76 0 0 0 2.46.69h2.05a3 3 0 0 0 2.25-1l.52.61a2 2 0 0 0 1.58.47h.63a4.82 4.82 0 0 0 2.34-.68zm-15.34-2.54h-.15l-.06-.17a17.3 17.3 0 0 1 2-1.07 5.93 5.93 0 0 1 .16.9 17.48 17.48 0 0 1-1.95.34z" fill="#231f20" data-color="1"/>
            <path fill="#231f20" d="M23.76 82.23l-1.9-1.08-.7 1.42 1.86 1.04.74-1.38z" data-color="1"/>
            <path d="M41.92 90.44a3.65 3.65 0 0 0 0 .56v1.74a.22.22 0 0 0 .2.14h.09a8.85 8.85 0 0 0 .49-3.06 26.81 26.81 0 0 0-.62-4l-.24-1.13c-.14-.78-.23-1.31-.27-1.58-.08-.49-.21-1.12-.39-1.91a.42.42 0 0 0-.3-.25c-.12 0-.25.26-.38.65 0 .09-.1.33-.22.75.53 2.84 1 5.29 1.46 7.35a7.57 7.57 0 0 1 .18.74z" fill="#231f20" data-color="1"/>
            <path d="M46.11 87.75a.6.6 0 0 0-.51.34 1.11 1.11 0 0 0-.18.6v.45a6 6 0 0 0 .42.89 3 3 0 0 1 .43 1.06c0 .42-.58 1-1.75 1.82A12.21 12.21 0 0 1 39.84 95c-1.22.14-2.3.26-3.24.34a1.61 1.61 0 0 0 .4.26 6.43 6.43 0 0 0 2.65.4A8.93 8.93 0 0 0 44 94.88a8.28 8.28 0 0 0 2.63-2.29 5 5 0 0 0 .64-2v-.39a5.12 5.12 0 0 0-1.08-2.43z" fill="#231f20" data-color="1"/>
            <path d="M54.45 86.85a1.71 1.71 0 0 0-.9.52A5 5 0 0 0 52 90.26c-.09.49-.53.73-1.3.75a2.17 2.17 0 0 1-.87-.14c-.69-.43-1.07-1.73-1.13-3.9l-.07-2.51a28.47 28.47 0 0 0-.27-3.26l-.11-.8a.28.28 0 0 0-.31-.23q-.45 0-.45 1.5a4.25 4.25 0 0 0 .11.85 5.33 5.33 0 0 1 .11.84c0 .82 0 1.62.05 2.38a33.33 33.33 0 0 0 .24 4.11c.31 2 1 2.92 2 2.92h.68a5.11 5.11 0 0 0 .64 0 1.26 1.26 0 0 0 1.11-.91 11.28 11.28 0 0 1 .42-1 9.11 9.11 0 0 1 1.38.26l1.15.62h.43a1.93 1.93 0 0 0 .34-1.19 9.38 9.38 0 0 0-.34-1.55c-.3-1.44-.75-2.15-1.36-2.15zm-1.08 2.42c.08-.52.26-.77.53-.77a.9.9 0 0 1 .68.48 1.37 1.37 0 0 1 .33.78 6.2 6.2 0 0 0-1.54-.49z" fill="#231f20" data-color="1"/>
            <path d="M61.7 97.21a3.19 3.19 0 0 0-1 .25 3.48 3.48 0 0 1-1 .25c-.57 0-.88-.13-.94-.37a.66.66 0 0 1 .37-.29 4.53 4.53 0 0 1 .47-.1.36.36 0 0 0 .27.18.94.94 0 0 0 .48-.46 1.38 1.38 0 0 0 .25-.67.83.83 0 0 0 0-.12.61.61 0 0 0-.33-.12 2.5 2.5 0 0 0-1.41.59c-.55.41-.83.81-.83 1.2 0 .54.16.85.49.94l.65.17a4.88 4.88 0 0 1-.58.83c.08.25.19.35.32.32q1-.56 1.59-1l.74-.42a1.26 1.26 0 0 0 .42-.51 1.32 1.32 0 0 0 .22-.63c-.04-.01-.09-.04-.18-.04z" fill="#231f20" data-color="1"/>
            <path d="M64.06 82.42l-.49-.08c-.54-.17-.81-.37-.81-.61a4.75 4.75 0 0 1 .06-.87 4.69 4.69 0 0 0 .1-.56 1.85 1.85 0 0 0 0-.31.3.3 0 0 0-.15 0 .39.39 0 0 0-.14 0 7.63 7.63 0 0 0-.53 1 5.22 5.22 0 0 0-.26 1.89 4 4 0 0 0 0 .54 5.41 5.41 0 0 0 .7.72A11.56 11.56 0 0 1 62 88a31.77 31.77 0 0 0-2.83-3.79 13.14 13.14 0 0 0-3.45-3.14.42.42 0 0 0-.24-.07c-.33 0-.56.2-.69.59a6.34 6.34 0 0 0-.27 2 5.38 5.38 0 0 0 0 .65 2.51 2.51 0 0 0 1.1.83 3.5 3.5 0 0 0 1.37.3 1.62 1.62 0 0 0 .86-.24 19.22 19.22 0 0 1 3.42 4.35 11.57 11.57 0 0 1-1.85 2.26 2.94 2.94 0 0 1-.58.4 2.5 2.5 0 0 0-.55.45.27.27 0 0 0 0 .17v.72c0 .32.15.46.35.48a15 15 0 0 1 1.82-.43c1.38-.26 2.1-.41 2.15-.45a1.67 1.67 0 0 0 .52-.92c0-.11.09-.46.17-1a4.21 4.21 0 0 0-.83-2.17 12.14 12.14 0 0 0 1-4.27v-.23a1.35 1.35 0 0 0 .36-.28 2.41 2.41 0 0 0 .28-.6 2.63 2.63 0 0 0 .2-.65c-.01-.34-.09-.49-.25-.54zm-2.74 9.08a.74.74 0 0 1-.29 0c0-.08.11-.24.32-.47a2.76 2.76 0 0 0 .42-.54c.19.41.32.7.38.85s-.28.16-.83.16z" fill="#231f20" data-color="1"/>
            <path d="M66.86 84.65c-.14-.78-.23-1.31-.26-1.58a68 68 0 0 0-.39-1.91.46.46 0 0 0-.31-.25c-.12 0-.25.26-.37.65 0 .09-.11.33-.22.75q.78 4.26 1.46 7.35c.1.42.16.68.17.78s0 .32 0 .56v1.74a.24.24 0 0 0 .21.14h.08a8.85 8.85 0 0 0 .5-3.06 26 26 0 0 0-.63-4c-.1-.61-.19-.98-.24-1.17z" fill="#231f20" data-color="1"/>
            <path fill="#231f20" d="M77.19 85.6l.75-1.39-1.89-1.07-.73 1.41 1.87 1.05z" data-color="1"/>
            <path fill="#231f20" d="M75.35 84.21l-1.87-1.07-.75 1.41 1.87 1.05.75-1.39z" data-color="1"/>
            <path d="M80.71 86.9a2.14 2.14 0 0 0-1.06-.57 1.31 1.31 0 0 0-.32.68 3.38 3.38 0 0 0-.12.77 6.25 6.25 0 0 1 1.3 1.54c0 .2-.32.43-.94.69a10.29 10.29 0 0 1-1.21.41 12.36 12.36 0 0 1-3.36.64h-1.15a5.28 5.28 0 0 1-1.88-.3 1.5 1.5 0 0 1-.84-1.47 9.34 9.34 0 0 1 1.49-2.83c0-.29-.09-.43-.26-.43a.34.34 0 0 0-.23.1 3.34 3.34 0 0 0-.69.73 6.49 6.49 0 0 0-.56.9c0 .09-.14.43-.3 1a6.35 6.35 0 0 0-.28 1.69c0 1.59.91 2.38 2.72 2.38a17.15 17.15 0 0 0 6.08-.94 6.67 6.67 0 0 0 1.7-.81 2.57 2.57 0 0 0 .8-1.57 4.18 4.18 0 0 0 .13-.77 2.29 2.29 0 0 0-1.02-1.84z" fill="#231f20" data-color="1"/>
            <path d="M87.94 93a1.67 1.67 0 0 0 .52-.92c0-.11.08-.46.17-1a4.31 4.31 0 0 0-.83-2.17 12.09 12.09 0 0 0 1-4.27 1.55 1.55 0 0 0 0-.23 1.39 1.39 0 0 0 .37-.28 2.87 2.87 0 0 0 .28-.6 2.44 2.44 0 0 0 .19-.65c0-.24-.07-.39-.23-.44l-.5-.08c-.54-.17-.81-.37-.81-.61a3.87 3.87 0 0 1 .07-.87c.06-.33.09-.51.09-.56a1.16 1.16 0 0 0 0-.31.25.25 0 0 0-.15 0L88 80a9.4 9.4 0 0 0-.53 1 5.48 5.48 0 0 0-.25 1.89 2.84 2.84 0 0 0 0 .54 4.85 4.85 0 0 0 .7.72 11.31 11.31 0 0 1-.63 3.9 31.62 31.62 0 0 0-2.82-3.79A13.14 13.14 0 0 0 81 81.05a.45.45 0 0 0-.25-.07c-.33 0-.56.2-.69.59a6.34 6.34 0 0 0-.27 2v.65A2.57 2.57 0 0 0 81 85a3.54 3.54 0 0 0 1.37.3 1.63 1.63 0 0 0 .87-.24 18.94 18.94 0 0 1 3.41 4.35 11.49 11.49 0 0 1-1.84 2.26 3.31 3.31 0 0 1-.58.4 2.28 2.28 0 0 0-.55.45.27.27 0 0 0 0 .17v.72c0 .32.15.46.34.48a16 16 0 0 1 1.82-.43q2.03-.37 2.1-.46zm-1.23-2.1a2.76 2.76 0 0 0 .42-.54c.19.41.31.7.38.85s-.27.26-.82.26a.71.71 0 0 1-.29 0c-.01-.15.1-.31.31-.54z" fill="#231f20" data-color="1"/>
            <path d="M100.93 85.79c-.85-.82-1.87-1.73-3.07-2.72v-.09l.08-.15c1-.43 1.88-.82 2.74-1.17q3.24-1.3 4.83-2a1.61 1.61 0 0 0 .41-1.14c0-.27 0-.43-.11-.48q-4.26 1.61-7.83 3.24a3.58 3.58 0 0 0-1.12 2.55 1.45 1.45 0 0 0 .65 1.08l1 .85a18.72 18.72 0 0 1 2.2 2 3.94 3.94 0 0 1 1 2.08c0 .22-.16.37-.47.46l-1 .26a14.84 14.84 0 0 1-4 .43h-.69a6.66 6.66 0 0 0-.85-2.14c-.53-.79-1-1.18-1.46-1.18s-.93.45-1.47 1.36A4.32 4.32 0 0 0 91 91a1.64 1.64 0 0 0 .79 1.45 2.88 2.88 0 0 0 1.67.46 3.45 3.45 0 0 0 .76-.08 5.74 5.74 0 0 1-3.74 2.8 4.45 4.45 0 0 1-1.2.12 11.81 11.81 0 0 1-2.69-.45l-.87-.23h-.12a.24.24 0 0 0-.1.17l.07.16a5.2 5.2 0 0 0 3.82 1.72A4.86 4.86 0 0 0 91 97a7.09 7.09 0 0 0 2.44-1.71 7.28 7.28 0 0 0 1.72-2.42h1.7a16.09 16.09 0 0 0 2.83-.39 5.72 5.72 0 0 0 2.46-.81 3.85 3.85 0 0 0 .62-2.37 4.06 4.06 0 0 0-.62-1.82 7.62 7.62 0 0 0-1.22-1.69zM94.14 91a1.81 1.81 0 0 1-.71.09h-.21a1.47 1.47 0 0 1-.67-.18c-.25-.15-.38-.32-.38-.51a.77.77 0 0 1 .31-.56 1 1 0 0 1 .61-.27c.16 0 .38.18.66.55a1.63 1.63 0 0 1 .42.8.11.11 0 0 1-.03.08z" fill="#231f20" data-color="1"/>
            <path d="M103.45 76.75l.66.17a5.35 5.35 0 0 1-.57.83c.07.25.17.35.3.31.68-.37 1.21-.69 1.6-1l.74-.42a1.42 1.42 0 0 0 .42-.51 1.47 1.47 0 0 0 .22-.64c0-.05 0-.07-.14-.07a3.45 3.45 0 0 0-1 .24 3.17 3.17 0 0 1-1 .25c-.57 0-.88-.12-.93-.37a.65.65 0 0 1 .37-.28 3.61 3.61 0 0 1 .48-.11.36.36 0 0 0 .27.18.93.93 0 0 0 .47-.46 1.5 1.5 0 0 0 .22-.66.5.5 0 0 0 0-.13.53.53 0 0 0-.31-.11 2.46 2.46 0 0 0-1.42.58c-.56.41-.83.81-.83 1.2 0 .59.13.91.45 1z" fill="#231f20" data-color="1"/>
            <path d="M123.81 83.48a1.29 1.29 0 0 0-.61-.18c-.47-.09-.72-.23-.74-.41a2.3 2.3 0 0 1 0-.35 12.78 12.78 0 0 1 .18-1.36c0-.1 0-.16-.18-.16h-.15a7.89 7.89 0 0 0-.59 1.09 7.4 7.4 0 0 0-.19 1.83 1.45 1.45 0 0 0 .06.47l.67.7c.15 1.6.28 2.8.4 3.6 0 .38.08.62.1.72v1.36a4.34 4.34 0 0 1-1.72.17H121c-.37 0-.66-.36-.88-1.08a2.57 2.57 0 0 1-.07-.52l-.39-2.59c-.15-1.1-.33-2.17-.53-3.23v-.55c0-.32-.06-.56-.08-.72s0-.54 0-.7a.87.87 0 0 0-.18-.37c-.1-.15-.2-.23-.3-.23a1.77 1.77 0 0 0-.21 1.1 20.42 20.42 0 0 0 .3 3.08c.17 1 .34 2 .5 3.08a10.79 10.79 0 0 1 .13 1.33c0 .54-.4.92-1.19 1.17a5.79 5.79 0 0 1-1.53.23 7.7 7.7 0 0 1-1.35-.1A1.57 1.57 0 0 1 114 90a5.11 5.11 0 0 1-.48-1.65.24.24 0 0 0-.27-.27.85.85 0 0 0-.33.07 5.71 5.71 0 0 0-2.85 2.3 1.2 1.2 0 0 1-.79.57 7.61 7.61 0 0 1-.89 0 2.38 2.38 0 0 1-1-.14q-1-.65-1.14-3.9l-.06-2.51a28.47 28.47 0 0 0-.27-3.26l-.11-.8a.28.28 0 0 0-.31-.23q-.45 0-.45 1.5a4.91 4.91 0 0 0 .1.85 4.56 4.56 0 0 1 .12.84v2.38a36.26 36.26 0 0 0 .25 4.11c.32 2 1 2.92 2 2.92h.94a2.89 2.89 0 0 0 1-.16 3.47 3.47 0 0 0 1-.82 2.42 2.42 0 0 0 .72.31l.86.29c1 .47 1.57.71 1.62.71a2.45 2.45 0 0 0 .48-.58 3.4 3.4 0 0 0 1.48.27h1c1.47 0 2.39-.58 2.73-1.62a4.72 4.72 0 0 0 .45 1.18 1.22 1.22 0 0 0 1.09.47h.45a3.28 3.28 0 0 0 1.81-.37 2 2 0 0 0 .57-1.14c0-.54 0-.9-.06-1.06v-.5a35.25 35.25 0 0 0-.58-4.24 1.35 1.35 0 0 0 .47-.7c0-.14.14-.43.25-.86v-.09a.37.37 0 0 0 .01-.39zm-11.55 7.24c-.42-.17-.61-.29-.59-.35l.06-.19c.31-.38.52-.57.64-.57a10.31 10.31 0 0 1 .66 1.22.73.73 0 0 1 .08.26z" fill="#231f20" data-color="1"/>
            <path d="M144.33 36.38a2.62 2.62 0 0 0-.79.5 35.74 35.74 0 0 1-6 4.25c-2.65 1.54-4.8 2.31-6.43 2.31a9.41 9.41 0 0 1-7.92-4.3A12.39 12.39 0 0 1 120.7 32a12.72 12.72 0 0 1 5.15-2.45 25.3 25.3 0 0 1 6.87-1 16.42 16.42 0 0 1 5.28 1 3.66 3.66 0 0 0 1.11.32c.21 0 .3-.07.3-.16s-.23-.48-.74-.9a15.29 15.29 0 0 0-10-3.64 10.49 10.49 0 0 0-7.11 2.49c-2.24 2-3.34 4.75-3.34 8.37a11.66 11.66 0 0 0 3 7.22l.19 1c-3.52 1.53-6.07 2.71-7.62 3.54a26 26 0 0 0-7 5.33l-4.09 4.8c-2.14 2.15-4.29 3.21-6.37 3.21a3.2 3.2 0 0 1-2.76-1.32 4.74 4.74 0 0 1-1-3.18 22.25 22.25 0 0 1 1.66-7.15 27.1 27.1 0 0 0 1.68-5.31.25.25 0 0 0-.11-.21c-.14 0-.35.28-.62.79-2.59 5.05-3.88 9.16-3.88 12.3a8.78 8.78 0 0 0 2 5.81 5.66 5.66 0 0 0 4.46 2.28c2 0 4-1.15 6-3.43a63 63 0 0 1 7.64-7.85 30.23 30.23 0 0 1 5.26-2.86c1.26-.61 3.13-1.46 5.63-2.52a11.44 11.44 0 0 0 3.58.42 20.12 20.12 0 0 0 9.74-2.66 49.09 49.09 0 0 0 7.1-5.23 26.3 26.3 0 0 0 1.73-3.88c.21-.52.16-.75-.11-.75z" fill="#981b1e" data-color="2"/>
            <path fill="#981b1e" d="M120.413 6.837l4.943 4.943-4.943 4.943-4.943-4.943 4.943-4.943z" data-color="2"/>
            <path fill="#981b1e" d="M84.52 48.942l4.943 4.942-4.942 4.943-4.943-4.943 4.943-4.942z" data-color="2"/>
            <path fill="#981b1e" d="M15.92 5.14l4.74 4.74 4.94-4.94L20.66 0l-4.74 4.74L11.18 0 6.24 4.94l4.94 4.94 4.74-4.74z" data-color="2"/>
            <path d="M75.14 31.88c.16 1.78.28 3.45.37 5 .92 0 1.86-.09 2.83-.18-.16-2.13-.34-4.57-.54-7.36q-1.14-15.49-1.13-15.71c0-.44.09-.55.25-.3 1.48 1.64 2.19 2.1 2.19 1.36a4.84 4.84 0 0 0-.2-1.11c-.17-.62-.79-2.3-1.83-5s-1.59-4.19-1.89-4.79c-.14-.28-.25-.42-.35-.42s-.18.14-.32.42A16 16 0 0 0 73.11 8a9.12 9.12 0 0 1 .79 4c0 1.47.23 8.1 1.24 19.88z" fill="#981b1e" data-color="2"/>
            <path d="M65 42.89c-.1-1.52-.22-3.37-.37-5.57a11 11 0 0 1-2.28-1.41A6.36 6.36 0 0 1 59.62 31a12.22 12.22 0 0 1 .65-4c.34-1 .73-2 1.08-3 .18-.48 1.35-2.75 2-4.16v-.69c-.81 1.25-2.35 3.85-2.74 4.5a18.52 18.52 0 0 0-2.23 8.91A11.22 11.22 0 0 0 60.84 40 10.57 10.57 0 0 0 65 42.89z" fill="#981b1e" data-color="2"/>
            <path d="M91.44 40.45c1.24-.41 4.94-1.8 11-4.18a20 20 0 0 1 5.56-1.56c.65 0 1 .16 1 .5 0 .51-1 1.94-3.14 4.29a19.26 19.26 0 0 0-4.34 6.93 14.23 14.23 0 0 0-.62 2.44c0 .05 0 .07.05.12a13.59 13.59 0 0 0 1.57-2.56 16.62 16.62 0 0 1 2.35-3.3c.83-.9 1.66-1.83 2.47-2.77 1.45-1.82 2.33-3 2.61-3.42a8.74 8.74 0 0 0 1.77-4.5c0-1.77-1-2.65-2.93-2.65a15.36 15.36 0 0 0-4.92 1.21c-2 .87-4.06 1.75-6.11 2.6A87.71 87.71 0 0 1 87 37.27a49.72 49.72 0 0 1-12.55 1.82 32.37 32.37 0 0 1-4.93-.35q-.24-4-.75-11.06c-.65-8.86-1-13.36-1-13.45 0-.42.09-.51.25-.26 1.48 1.64 2.19 2.06 2.19 1.3a4.69 4.69 0 0 0-.2-1c-.17-.63-.79-2.31-1.83-5S66.63 5 66.35 4.4c-.14-.28-.25-.4-.35-.4s-.16.12-.3.35a15.84 15.84 0 0 0-1.4 4.29 9.44 9.44 0 0 1 .78 4c0 1.73.35 7.66 1.06 17.72s1.09 15.85 1.09 17.26c0 2.35-.26 3.68-.7 4.08a7.11 7.11 0 0 1-4.7 2 4.51 4.51 0 0 1-2.63-.57c-1.16-.74-1.94-2.3-2.36-4.7-.94-5.56-1.73-9.88-2.35-13Q52.33 25 47.83 19.05c-.3-.42-.54-.32-.67.3s-.3 1.36-.49 2.51a7.17 7.17 0 0 0-.21 2.06 77.92 77.92 0 0 1 4.83 12.27 34.41 34.41 0 0 1 1.36 7.59 3.09 3.09 0 0 1-.33 1.57 15.26 15.26 0 0 1-.87 1.27A33.44 33.44 0 0 1 43.4 54c-4.4 3-8.56 4.53-12.35 4.53-2.72 0-4.08-1.37-4.08-4.13a32.59 32.59 0 0 1 1.57-8.4c.11-.38.19-.69.23-.91l4.64 4.64L38.15 45l4.73 4.74 4.95-5L43 40a3.36 3.36 0 0 0 .2-.39 6.58 6.58 0 0 0 .67-3.6c-.1-.94-1.08-4.08-5.95-4.08-4.32 0-9.34 3.29-15 9.73-2.21 2.65-4.47 5.28-6.74 7.89-2.69 2.79-4.93 4.2-6.76 4.2a3.28 3.28 0 0 1-2.82-1.36 5.13 5.13 0 0 1-.95-3.25A22.89 22.89 0 0 1 7.33 42c.21-.56.42-1.08.61-1.55v1.08c0 3 1 4.45 3 4.45a9.05 9.05 0 0 0 4.54-1.66 12.26 12.26 0 0 0 3.46-3 8.55 8.55 0 0 0 .9-2.31 9.69 9.69 0 0 0 .47-2.52 13 13 0 0 0-.58-4.17 17.25 17.25 0 0 0-3.42-5.17c1.69-2.49 2.93-4.43 3.79-5.86a21.85 21.85 0 0 0 1.66-4 14 14 0 0 0 .9-4.18c0-1-.28-1.52-.86-1.52-.92 0-2.49 1.25-4.7 3.71q-3.42 4.7-5.32 7.64a7.2 7.2 0 0 1-1.52-1.87 4.77 4.77 0 0 1 1.63-.07c.56 0 .86-.07.88-.21s-.18-.3-.58-.58c-.73-.55-1.77-1.27-3.13-2.14a10.88 10.88 0 0 0-2.4-1.36c-.12 0-.26.48-.46 1.4a11.16 11.16 0 0 0-.33 2.63A1.63 1.63 0 0 0 6.4 22a9.15 9.15 0 0 1 1.25 1.36c.81 1.15 1.82 2.56 1.82 2.56S6.81 30.34 0 35.08v.07a4.8 4.8 0 0 0 1.2-.49 24.35 24.35 0 0 0 9.37-7.43c.53.63 1.13 1.32 1.84 2.06A47.87 47.87 0 0 0 9.3 35c-.49 1-.74 1.82-1 2.35-2.6 5.03-3.9 9.14-3.9 12.28a8.81 8.81 0 0 0 2 5.79 5.68 5.68 0 0 0 4.45 2.26 6.74 6.74 0 0 0 4.5-2.06 42.47 42.47 0 0 0 4.55-5 75.51 75.51 0 0 1 5.6-6.5c14.4-13.95 16.92-5.23 17.26-4l-4.6 4.6-4.74-4.74-4.74 4.74c-.18 0-.42.44-.71 1.22A28.73 28.73 0 0 0 25.7 56.7a8.44 8.44 0 0 0 1.15 4.55 4.49 4.49 0 0 0 4.09 2.26c3.39 0 7.13-1.32 11.23-3.92a37.33 37.33 0 0 0 9.12-8.06 12.72 12.72 0 0 0 2.51-6c.44 3 .79 5.07 1 6.11.49 2.91 1.46 4.89 2.93 6a5.67 5.67 0 0 0 4.22 1.11 7.47 7.47 0 0 0 5.15-3.63c1.7-2.72 2.6-6.41 2.66-11.12a24.62 24.62 0 0 0 2.64.14c1 0 2.16-.06 3.33-.17-.06 14.8-4 17-9 20.35-.24.15 10.58-2.82 12.18-17.59a28.71 28.71 0 0 0-.09-3.15 83.15 83.15 0 0 0 12.62-3.13zM19.25 16.78a1.62 1.62 0 0 1 .58-.28c.67 0 .12 1.41-1.66 4.2s-3 4.53-3.35 5a16 16 0 0 1-1.89-1.62c2.86-4 4.96-6.42 6.32-7.3zm-5.07 14a18.33 18.33 0 0 1 4.66 5.69c.11.19-.09.51-.58 1a13 13 0 0 1-4.08 2.7 7.46 7.46 0 0 1-2.61.69c-1.45 0-2.19-.46-2.19-1.41a1.92 1.92 0 0 1 0-.41 20.18 20.18 0 0 1 2.19-4.62 23 23 0 0 1 2.61-3.63z" fill="#981b1e" data-color="2"/>
        </g>
    </g>
</svg>
