<svg preserveAspectRatio="xMidYMid meet" data-bbox="-0.002 0 23.893 23.91" viewBox="-0.002 0 23.893 23.91" xmlns="http://www.w3.org/2000/svg" data-type="color" role="img" aria-labelledby="svgcid-ogvrdgg3hm4"><defs><style>#comp-koswqamv1 svg [data-color="1"] {fill: #192C44;}</style></defs><title id="svgcid-ogvrdgg3hm4"></title>
    <g>
        <g>
            <path d="M12.19 23.91H12c-1.87 0-3.6 0-5.29-.14a7.05 7.05 0 0 1-4.07-1.54 6.56 6.56 0 0 1-2.2-3.55A15.88 15.88 0 0 1 0 14.92V9a15.83 15.83 0 0 1 .39-3.76 6.52 6.52 0 0 1 2.2-3.55A7.05 7.05 0 0 1 6.66.15C8.35.05 10.08 0 12 0s3.6 0 5.29.15a7 7 0 0 1 4.07 1.54 6.46 6.46 0 0 1 2.2 3.55A15.33 15.33 0 0 1 23.88 9v6a15.75 15.75 0 0 1-.36 3.75 6.48 6.48 0 0 1-2.2 3.55 7.13 7.13 0 0 1-4.07 1.55c-1.61.02-3.25.06-5.06.06zM12 22.05c1.85 0 3.54-.05 5.19-.15a5.13 5.13 0 0 0 3-1.12 4.7 4.7 0 0 0 1.57-2.57 14.21 14.21 0 0 0 .3-3.32C22 14 22 13 22 12V9a14.25 14.25 0 0 0-.3-3.32 4.71 4.71 0 0 0-1.57-2.56 5.14 5.14 0 0 0-3-1.13c-1.65-.1-3.34-.14-5.18-.14s-3.54 0-5.18.14a5.14 5.14 0 0 0-3 1.13A4.71 4.71 0 0 0 2.2 5.7 14.25 14.25 0 0 0 1.9 9v5.87a14.21 14.21 0 0 0 .3 3.32 4.74 4.74 0 0 0 1.57 2.57 5.16 5.16 0 0 0 3 1.12c1.64.1 3.33.15 5.17.14zm0-4.25a5.84 5.84 0 1 1 5.75-5.8 5.84 5.84 0 0 1-5.84 5.84zm0-9.81a4 4 0 1 0 4 4 4 4 0 0 0-4-4zm6.4-3.74a1.4 1.4 0 1 0 1.4 1.4 1.4 1.4 0 0 0-1.4-1.4z" fill="#192c44" data-color="1"></path>
        </g>
    </g>
</svg>