<svg preserveAspectRatio="xMidYMid meet" data-bbox="-0.01 0 25.491 21.181" viewBox="-0.01 0 25.491 21.181" xmlns="http://www.w3.org/2000/svg" data-type="color" role="img" aria-labelledby="svgcid-bsnboo-zw2a"><defs><style>#comp-koswqamy1 svg [data-color="1"] {fill: #192C44;}</style></defs><title id="svgcid-bsnboo-zw2a"></title>
    <g>
        <g>
            <path d="M25.11 2.47a10.11 10.11 0 0 1-1.76.59A5.47 5.47 0 0 0 24.8.76a.3.3 0 0 0-.19-.37.31.31 0 0 0-.23 0 10.19 10.19 0 0 1-2.69 1.11.5.5 0 0 1-.17 0 .69.69 0 0 1-.47-.18A5.54 5.54 0 0 0 17.41 0a5.7 5.7 0 0 0-1.74.27 5.35 5.35 0 0 0-3.6 3.84 6 6 0 0 0-.13 2 .18.18 0 0 1 0 .16.21.21 0 0 1-.17.07 14.47 14.47 0 0 1-9.91-5.3A.29.29 0 0 0 1.4 1l-.06.07a5.51 5.51 0 0 0 .89 6.69A4.65 4.65 0 0 1 1 7.29a.29.29 0 0 0-.39.12.2.2 0 0 0 0 .13 5.51 5.51 0 0 0 3.21 5.08 4.52 4.52 0 0 1-1-.09.29.29 0 0 0-.34.23.32.32 0 0 0 0 .14 5.52 5.52 0 0 0 4.36 3.75 10.24 10.24 0 0 1-5.69 1.73H.42a.43.43 0 0 0-.42.32.45.45 0 0 0 .21.48 15.07 15.07 0 0 0 7.59 2 15.4 15.4 0 0 0 6.48-1.37A14.3 14.3 0 0 0 19 16.29a15.5 15.5 0 0 0 2.9-4.86 15.4 15.4 0 0 0 1-5.33V6a1 1 0 0 1 .35-.73 10.87 10.87 0 0 0 2.19-2.4.3.3 0 0 0-.09-.4.27.27 0 0 0-.24 0z" fill="#192c44" data-color="1"></path>
        </g>
    </g>
</svg>