<svg data-v-23d2c5be="" version="1.0" xmlns="http://www.w3.org/2000/svg" xmlns:xlink="http://www.w3.org/1999/xlink" width="100%" height="100%" viewBox="0 0 340.000000 250.000000" preserveAspectRatio="xMidYMid meet" color-interpolation-filters="sRGB" class="el-tooltip" style="margin: auto;"><rect data-v-23d2c5be="" x="0" y="0" width="100%" height="100%" fill="#fff" fill-opacity="1" class="background"></rect> <rect data-v-23d2c5be="" x="0" y="0" width="100%" height="100%" fill="url(#watermark)" fill-opacity="1" class="watermarklayer"></rect> <g data-v-23d2c5be="" class="iconmbgsvg" transform="translate(91.61000061035156,50)"><g fill="#3D85C6" hollow-target="textRect"><g transform="translate(3.3899993896484375,0)" mask="url(#e394021d-6a5a-4db7-b923-927390265a33)"><rect fill="#3D85C6" fill-opacity="0" stroke-width="2" x="0" y="0" width="150" height="150" class="image-rect"></rect> <svg x="0" y="0" width="150" height="150" filtersec="colorsb7681390791" class="image-svg-svg primary"><svg xmlns="http://www.w3.org/2000/svg" viewBox="0 0 796 966"><path fill="#3D85C6" d="M679.49 121.51C601.81 43.84 500 5 398.2 5 296.4 5 194.59 43.84 116.91 121.51a399.452 399.452 0 0 0-48.08 58.14c55.38-80.7 148.25-133.66 253.52-133.66 169.71 0 307.29 137.58 307.29 307.29 0 54.53-14.27 105.7-39.17 150.09-5.96 11.41-13.06 22.37-21.18 32.78-15.34 20.69-33.23 39.35-53.18 55.59L398.2 709.66 270.34 837.52 398.2 965.38 679.49 684.1c155.35-155.36 155.35-407.23 0-562.59z"></path><linearGradient id="36deef3a-3b45-480a-aaff-e57b8bdc6beb" gradientUnits="userSpaceOnUse" x1="-197.995" y1="-15561.66" x2="806.775" y2="-16269.453" gradientTransform="matrix(1 0 0 -1 0 -15512)"><stop offset="0" stop-color="#6FA8DC"></stop><stop offset=".167" stop-color="#6FA8DC"></stop><stop offset=".427" stop-color="#9FC5E8"></stop><stop offset=".699" stop-color="#3D85C6"></stop><stop offset="1" stop-color="#3D85C6"></stop></linearGradient><path fill="url(#36deef3a-3b45-480a-aaff-e57b8bdc6beb)" d="M629.65 353.28c0-169.72-137.58-307.29-307.29-307.29-105.27 0-198.15 52.96-253.52 133.66-.77 1.14-1.55 2.27-2.31 3.41-2.3 3.45-4.55 6.93-6.72 10.48-.17.27-.33.54-.49.81-94.48 153.32-75.3 356.85 57.6 489.75l88.79 88.79 127.86-127.86-88.79-88.79c-84.6-84.6-84.6-222.26 0-306.86 40.99-40.99 95.47-63.55 153.43-63.55s112.45 22.57 153.43 63.55c68.63 68.63 81.58 172.18 38.85 254 24.89-44.4 39.16-95.57 39.16-150.1z"></path><linearGradient id="ef2c5784-9146-41b6-ac43-da13a411a9d2" gradientUnits="userSpaceOnUse" x1="403.647" y1="-16190.992" x2="403.647" y2="-15876.043" gradientTransform="matrix(1 0 0 -1 0 -15512)"><stop offset="0" stop-color="#6FA8DC"></stop><stop offset=".167" stop-color="#6FA8DC"></stop><stop offset=".427" stop-color="#9FC5E8"></stop><stop offset=".699" stop-color="#3D85C6"></stop><stop offset="1" stop-color="#3D85C6"></stop></linearGradient><path fill="url(#ef2c5784-9146-41b6-ac43-da13a411a9d2)" d="M539.27 408.27c0 74.87-60.76 135.51-135.63 135.51s-135.62-60.64-135.62-135.51c0-21.91 5.19-42.57 14.45-60.87 22.24-44.38 68.21-74.76 121.17-74.76 52.96 0 98.81 30.26 121.06 74.53 9.38 18.42 14.57 39.08 14.57 61.1z"></path></svg></svg> <!----></g> <g transform="translate(0,54.68499946594238)"><g fill-rule="" class="tp-name"><g><path d="M40.50-24.77L38.74-15.08L28.21-15.08L25.61 0L13.26 0L20.41-40.63L45.76-40.63L42.32-30.23L30.88-30.23L29.96-24.77L40.50-24.77ZM11.83-3.12L11.31-0.20L-16.25-3.12L11.83-3.12ZM14.04-15.67L13.52-12.74L-14.04-15.67L14.04-15.67ZM15.15-21.91L14.63-18.98L-12.94-21.91L15.15-21.91ZM16.25-28.14L15.73-25.22L-11.83-28.14L16.25-28.14ZM17.29-34.38L16.84-31.46L-10.72-34.38L17.29-34.38ZM12.94-9.43L12.42-6.50L-15.15-9.43L12.94-9.43ZM18.39-40.63L17.88-37.70L-9.62-40.63L18.39-40.63ZM58.95-3.12L58.44-0.20L30.94-3.12L58.95-3.12ZM60.00-9.43L59.54-6.50L32.05-9.43L60.00-9.43ZM59.41-15.67L60.00-12.74L32.44-15.67L59.41-15.67ZM58.17-21.91L58.76-18.98L31.20-21.91L58.17-21.91ZM28.79-34.38L55.70-34.38L56.29-31.46L28.79-34.38ZM30.03-28.14L56.94-28.14L57.52-25.22L30.03-28.14ZM54.53-40.63L55.12-37.70L27.63-40.63L54.53-40.63ZM56.48-40.63L70.14-40.63L70.98-26.32L71.44-26.32L77.41-40.63L91.06-40.63L74.69-11.05L72.80 0L60.45 0L62.34-11.05L56.48-40.63ZM121.75 0L115.11-14.43Q114.85-14.88 114.85-15.70Q114.85-16.51 114.98-17.55L114.98-17.55L114.47-17.55L111.41 0L99.06 0L106.21-40.63L117.84-40.63L124.47-26.20Q124.67-25.74 124.67-24.93Q124.67-24.12 124.54-23.07L124.54-23.07L125.06-23.07L128.18-40.63L140.53-40.63L133.38 0L121.75 0ZM97.63-3.12L97.11-0.20L69.55-3.12L97.63-3.12ZM99.84-15.67L99.32-12.74L71.76-15.67L99.84-15.67ZM100.94-21.91L100.42-18.98L72.86-21.91L100.94-21.91ZM102.05-28.14L101.53-25.22L73.97-28.14L102.05-28.14ZM103.09-34.38L102.63-31.46L75.08-34.38L103.09-34.38ZM98.73-9.43L98.22-6.50L70.66-9.43L98.73-9.43ZM104.19-40.63L103.67-37.70L76.18-40.63L104.19-40.63Z" transform="translate(16.25, 40.625)"></path></g> <!----> <!----> <!----> <!----> <!----> <!----> <!----></g> <!----></g></g></g><mask id="e394021d-6a5a-4db7-b923-927390265a33"><g fill="white"><rect fill-opacity="1" stroke-width="2" x="0" y="0" width="150" height="150" class="image-rect"></rect> <svg x="0" y="0" width="150" height="150" filtersec="colorsb7681390791" class="image-svg-svg primary"><svg xmlns="http://www.w3.org/2000/svg" viewBox="0 0 796 966"><path d="M679.49 121.51C601.81 43.84 500 5 398.2 5 296.4 5 194.59 43.84 116.91 121.51a399.452 399.452 0 0 0-48.08 58.14c55.38-80.7 148.25-133.66 253.52-133.66 169.71 0 307.29 137.58 307.29 307.29 0 54.53-14.27 105.7-39.17 150.09-5.96 11.41-13.06 22.37-21.18 32.78-15.34 20.69-33.23 39.35-53.18 55.59L398.2 709.66 270.34 837.52 398.2 965.38 679.49 684.1c155.35-155.36 155.35-407.23 0-562.59z"></path><linearGradient id="36deef3a-3b45-480a-aaff-e57b8bdc6beb" gradientUnits="userSpaceOnUse" x1="-197.995" y1="-15561.66" x2="806.775" y2="-16269.453" gradientTransform="matrix(1 0 0 -1 0 -15512)"><stop offset="0" stop-color="#6FA8DC"></stop><stop offset=".167" stop-color="#6FA8DC"></stop><stop offset=".427" stop-color="#9FC5E8"></stop><stop offset=".699" stop-color="#3D85C6"></stop><stop offset="1" stop-color="#3D85C6"></stop></linearGradient><path d="M629.65 353.28c0-169.72-137.58-307.29-307.29-307.29-105.27 0-198.15 52.96-253.52 133.66-.77 1.14-1.55 2.27-2.31 3.41-2.3 3.45-4.55 6.93-6.72 10.48-.17.27-.33.54-.49.81-94.48 153.32-75.3 356.85 57.6 489.75l88.79 88.79 127.86-127.86-88.79-88.79c-84.6-84.6-84.6-222.26 0-306.86 40.99-40.99 95.47-63.55 153.43-63.55s112.45 22.57 153.43 63.55c68.63 68.63 81.58 172.18 38.85 254 24.89-44.4 39.16-95.57 39.16-150.1z"></path><linearGradient id="ef2c5784-9146-41b6-ac43-da13a411a9d2" gradientUnits="userSpaceOnUse" x1="403.647" y1="-16190.992" x2="403.647" y2="-15876.043" gradientTransform="matrix(1 0 0 -1 0 -15512)"><stop offset="0" stop-color="#6FA8DC"></stop><stop offset=".167" stop-color="#6FA8DC"></stop><stop offset=".427" stop-color="#9FC5E8"></stop><stop offset=".699" stop-color="#3D85C6"></stop><stop offset="1" stop-color="#3D85C6"></stop></linearGradient><path d="M539.27 408.27c0 74.87-60.76 135.51-135.63 135.51s-135.62-60.64-135.62-135.51c0-21.91 5.19-42.57 14.45-60.87 22.24-44.38 68.21-74.76 121.17-74.76 52.96 0 98.81 30.26 121.06 74.53 9.38 18.42 14.57 39.08 14.57 61.1z"></path></svg></svg> </g> <rect fill="#000" fill-opacity="1" x="-6.8899993896484375" y="51.18499946594238" width="163.77999877929688" height="47.630001068115234"></rect><g transform="translate(-3.3899993896484375,54.68499946594238)" fill="black"><g fill-rule="" class="tp-name"><g><path d="M40.50-24.77L38.74-15.08L28.21-15.08L25.61 0L13.26 0L20.41-40.63L45.76-40.63L42.32-30.23L30.88-30.23L29.96-24.77L40.50-24.77ZM11.83-3.12L11.31-0.20L-16.25-3.12L11.83-3.12ZM14.04-15.67L13.52-12.74L-14.04-15.67L14.04-15.67ZM15.15-21.91L14.63-18.98L-12.94-21.91L15.15-21.91ZM16.25-28.14L15.73-25.22L-11.83-28.14L16.25-28.14ZM17.29-34.38L16.84-31.46L-10.72-34.38L17.29-34.38ZM12.94-9.43L12.42-6.50L-15.15-9.43L12.94-9.43ZM18.39-40.63L17.88-37.70L-9.62-40.63L18.39-40.63ZM58.95-3.12L58.44-0.20L30.94-3.12L58.95-3.12ZM60.00-9.43L59.54-6.50L32.05-9.43L60.00-9.43ZM59.41-15.67L60.00-12.74L32.44-15.67L59.41-15.67ZM58.17-21.91L58.76-18.98L31.20-21.91L58.17-21.91ZM28.79-34.38L55.70-34.38L56.29-31.46L28.79-34.38ZM30.03-28.14L56.94-28.14L57.52-25.22L30.03-28.14ZM54.53-40.63L55.12-37.70L27.63-40.63L54.53-40.63ZM56.48-40.63L70.14-40.63L70.98-26.32L71.44-26.32L77.41-40.63L91.06-40.63L74.69-11.05L72.80 0L60.45 0L62.34-11.05L56.48-40.63ZM121.75 0L115.11-14.43Q114.85-14.88 114.85-15.70Q114.85-16.51 114.98-17.55L114.98-17.55L114.47-17.55L111.41 0L99.06 0L106.21-40.63L117.84-40.63L124.47-26.20Q124.67-25.74 124.67-24.93Q124.67-24.12 124.54-23.07L124.54-23.07L125.06-23.07L128.18-40.63L140.53-40.63L133.38 0L121.75 0ZM97.63-3.12L97.11-0.20L69.55-3.12L97.63-3.12ZM99.84-15.67L99.32-12.74L71.76-15.67L99.84-15.67ZM100.94-21.91L100.42-18.98L72.86-21.91L100.94-21.91ZM102.05-28.14L101.53-25.22L73.97-28.14L102.05-28.14ZM103.09-34.38L102.63-31.46L75.08-34.38L103.09-34.38ZM98.73-9.43L98.22-6.50L70.66-9.43L98.73-9.43ZM104.19-40.63L103.67-37.70L76.18-40.63L104.19-40.63Z" transform="translate(16.25, 40.625)"></path></g>       </g> </g></mask></svg>