<?xml version="1.0"?>
<svg xmlns="http://www.w3.org/2000/svg" xmlns:xlink="http://www.w3.org/1999/xlink" xmlns:svgjs="http://svgjs.com/svgjs" version="1.1" width="512" height="512" x="0" y="0" viewBox="0 0 385.914 385.914" style="enable-background:new 0 0 512 512" xml:space="preserve" class=""><g><link type="text/css" rel="stylesheet" id="dark-mode-general-link"/><link type="text/css" rel="stylesheet" id="dark-mode-custom-link"/><style lang="en" type="text/css" id="dark-mode-custom-style"/>
<g xmlns="http://www.w3.org/2000/svg">
	<g>
		<path d="M384.257,376.097l-88.16-87.88c52.6-9.434,87.593-59.722,78.159-112.321c-8.252-46.01-48.215-79.543-94.959-79.679    c-3.06,0-5.54,2.48-5.54,5.54c0,3.06,2.48,5.54,5.54,5.54c47.32,0.001,85.68,38.361,85.679,85.681    c-0.001,44.636-34.269,81.793-78.759,85.399l-37.6-37.44V47.017c-0.028-3.049-2.523-5.497-5.571-5.468    c-0.844,0.008-1.675,0.209-2.429,0.588l-123.64,66.8L9.657,1.817c-2.209-2.209-5.791-2.209-8,0c-2.209,2.209-2.209,5.791,0,8    l100.76,100.4h-68.92c-6.205,0.033-12.144,2.521-16.52,6.92c-4.428,4.405-6.918,10.394-6.92,16.64v118.28    c0.002,6.246,2.492,12.235,6.92,16.64c4.405,4.428,10.394,6.919,16.64,6.92h81.24l125.28,68c2.573,1.635,5.984,0.874,7.619-1.699    c0.566-0.891,0.865-1.925,0.861-2.981v-82.52l25.56,25.56c-1.193,2.805,0.114,6.047,2.92,7.24c0.683,0.29,1.418,0.44,2.16,0.44    h2.56l94.44,94.44c2.209,2.209,5.791,2.209,8,0C386.466,381.888,386.466,378.306,384.257,376.097z M110.697,165.897v98.68h-77.2    c-6.915,0-12.52-5.605-12.52-12.52v-118.24c0-6.915,5.605-12.52,12.52-12.52h77.2V165.897z M237.577,329.577l-115.8-62.76v-137.24    l115.8,115.76V329.577z M237.577,136.457v93.24l-112.6-112.44l112.6-60.96V136.457z" fill="#ffffff" data-original="#000000" style="" class=""/>
	</g>
</g>
<g xmlns="http://www.w3.org/2000/svg">
	<g>
		<path d="M278.657,144.697c-3.06,0-5.54,2.48-5.54,5.54c0,3.06,2.48,5.54,5.54,5.54c20.512,0,37.14,16.628,37.14,37.14    s-16.628,37.14-37.14,37.14c-3.06,0-5.54,2.48-5.54,5.54s2.48,5.54,5.54,5.54c26.631,0,48.22-21.589,48.22-48.22    S305.288,144.697,278.657,144.697z" fill="#ffffff" data-original="#000000" style="" class=""/>
	</g>
</g>
<g xmlns="http://www.w3.org/2000/svg">
</g>
<g xmlns="http://www.w3.org/2000/svg">
</g>
<g xmlns="http://www.w3.org/2000/svg">
</g>
<g xmlns="http://www.w3.org/2000/svg">
</g>
<g xmlns="http://www.w3.org/2000/svg">
</g>
<g xmlns="http://www.w3.org/2000/svg">
</g>
<g xmlns="http://www.w3.org/2000/svg">
</g>
<g xmlns="http://www.w3.org/2000/svg">
</g>
<g xmlns="http://www.w3.org/2000/svg">
</g>
<g xmlns="http://www.w3.org/2000/svg">
</g>
<g xmlns="http://www.w3.org/2000/svg">
</g>
<g xmlns="http://www.w3.org/2000/svg">
</g>
<g xmlns="http://www.w3.org/2000/svg">
</g>
<g xmlns="http://www.w3.org/2000/svg">
</g>
<g xmlns="http://www.w3.org/2000/svg">
</g>
</g></svg>
