<svg xmlns="http://www.w3.org/2000/svg" width="29.197" height="24.079" viewBox="0 0 29.197 24.079">
  <g id="eye-able-text" transform="translate(392 -225)">
    <g id="Group_340" data-name="Group 340" transform="translate(-120 13.18)">
      <g id="Group_339" data-name="Group 339" transform="translate(-272 211.82)">
        <path id="Path_600" data-name="Path 600" d="M213.876,173.407a1.2,1.2,0,0,1-1.2-1.2v-21.67a1.2,1.2,0,0,1,2.409,0V172.2A1.205,1.205,0,0,1,213.876,173.407Zm0,0" transform="translate(-202.739 -149.328)" fill="#fc573b"/>
        <path id="Path_601" data-name="Path 601" d="M145.44,154.145a1.2,1.2,0,0,1-1.2-1.2v-1.2H127.079v1.2a1.2,1.2,0,1,1-2.407,0v-2.407a1.2,1.2,0,0,1,1.2-1.2H145.44a1.2,1.2,0,0,1,1.2,1.2v2.407A1.2,1.2,0,0,1,145.44,154.145Zm0,0" transform="translate(-124.672 -149.328)" fill="#fc573b"/>
        <path id="Path_602" data-name="Path 602" d="M197.349,343.722h-4.816a1.2,1.2,0,1,1,0-2.409h4.816a1.2,1.2,0,1,1,0,2.409Zm0,0" transform="translate(-183.804 -319.643)" fill="#fc573b"/>
      </g>
      <path id="Path_603" data-name="Path 603" d="M277.876,249.843a1.2,1.2,0,0,1-1.2-1.2v-2.106a1.2,1.2,0,0,1,1.2-1.2h9.631a1.2,1.2,0,0,1,1.2,1.2v1.806a1.2,1.2,0,1,1-2.409,0v-.6h-7.224v.9A1.2,1.2,0,0,1,277.876,249.843Zm0,0" transform="translate(-531.515 -22.672)" fill="#fd907e"/>
      <path id="Path_604" data-name="Path 604" d="M320.533,258.557a1.2,1.2,0,0,1-1.2-1.2V246.517a1.2,1.2,0,1,1,2.409,0v10.836A1.2,1.2,0,0,1,320.533,258.557Zm0,0" transform="translate(-569.357 -22.658)" fill="#fd907e"/>
      <path id="Path_605" data-name="Path 605" d="M308.145,343.722h-3.612a1.2,1.2,0,1,1,0-2.409h3.612a1.2,1.2,0,1,1,0,2.409Zm0,0" transform="translate(-555.163 -107.823)" fill="#fd907e"/>
    </g>
  </g>
</svg>
