<svg xmlns="http://www.w3.org/2000/svg" width="36.159" height="41.321" viewBox="0 0 36.159 41.321">
  <g id="eye-able-bluefilter_yellow" transform="translate(-53.023 -24.1)">
    <path id="Path_591" data-name="Path 591" d="M136.331,123.916A12.916,12.916,0,1,1,123.416,111,12.913,12.913,0,0,1,136.331,123.916Z" transform="translate(-52.358 -79.16)" fill="#e0c503"/>
    <g id="Group_337" data-name="Group 337" transform="translate(53.023 24.1)">
      <path id="Path_592" data-name="Path 592" d="M238.419,30.487a1.714,1.714,0,0,1-1.719-1.719V25.819a1.719,1.719,0,1,1,3.438,0v2.948A1.72,1.72,0,0,1,238.419,30.487Z" transform="translate(-220.339 -24.1)" fill="#ffce0a"/>
      <path id="Path_593" data-name="Path 593" d="M57.334,137.333a1.74,1.74,0,0,1-.775-.187l-2.494-1.265a1.723,1.723,0,0,1,1.559-3.073l2.494,1.265a1.723,1.723,0,0,1-.784,3.26Z" transform="translate(-53.114 -122.956)" fill="#ffce0a"/>
      <path id="Path_594" data-name="Path 594" d="M54.749,331.133a1.723,1.723,0,0,1-.784-3.26l2.494-1.265a1.723,1.723,0,0,1,1.559,3.073l-2.494,1.265A1.74,1.74,0,0,1,54.749,331.133Z" transform="translate(-53.023 -299.494)" fill="#ffce0a"/>
      <path id="Path_595" data-name="Path 595" d="M238.419,422.687a1.714,1.714,0,0,1-1.719-1.719v-2.948a1.719,1.719,0,1,1,3.438,0v2.948A1.72,1.72,0,0,1,238.419,422.687Z" transform="translate(-220.339 -381.366)" fill="#ffce0a"/>
      <path id="Path_596" data-name="Path 596" d="M396.534,331.133a1.74,1.74,0,0,1-.775-.187l-2.494-1.265a1.723,1.723,0,1,1,1.559-3.073l2.494,1.265a1.723,1.723,0,0,1-.784,3.26Z" transform="translate(-362.1 -299.494)" fill="#ffce0a"/>
      <path id="Path_597" data-name="Path 597" d="M393.949,137.333a1.723,1.723,0,0,1-.784-3.26l2.494-1.265a1.723,1.723,0,0,1,1.559,3.073l-2.494,1.265A1.605,1.605,0,0,1,393.949,137.333Z" transform="translate(-362.009 -122.956)" fill="#ffce0a"/>
    </g>
    <path id="Path_598" data-name="Path 598" d="M136.831,123.916A12.916,12.916,0,1,1,123.916,111,12.913,12.913,0,0,1,136.831,123.916Z" transform="translate(-52.813 -79.16)" fill="#ffeb52"/>
  </g>
</svg>
