<?xml version="1.0"?>
<svg xmlns="http://www.w3.org/2000/svg" xmlns:xlink="http://www.w3.org/1999/xlink" xmlns:svgjs="http://svgjs.com/svgjs" version="1.1" width="512" height="512" x="0" y="0" viewBox="0 0 512 512" style="enable-background:new 0 0 512 512" xml:space="preserve" class=""><g><link type="text/css" rel="stylesheet" id="dark-mode-general-link"/><link type="text/css" rel="stylesheet" id="dark-mode-custom-link"/><style lang="en" type="text/css" id="dark-mode-custom-style"/>
<g xmlns="http://www.w3.org/2000/svg">
	<g>
		<path d="M501.874,482.794c-6.312-3.676-44.743-27.475-65.305-70.505c48.023-44.904,75.337-107.371,75.337-171.301    c0-132.31-115.369-240.956-255.953-240.956S0,108.678,0,240.988s115.369,240.956,255.953,240.956    c18.872,0,39.143-1.769,67.111-7.645c73.508,39.06,139.486,37.962,164.589,37.566c11.175-0.139,19.288,1.879,23.463-9.666    C513.942,494.455,509.762,485.51,501.874,482.794z M285.948,361.966c0,16.564-13.429,29.995-29.995,29.995    c-16.566,0-29.995-13.431-29.995-29.995V240.988c0-16.566,13.429-29.995,29.995-29.995c16.566,0,29.995,13.429,29.995,29.995    V361.966z M255.953,165.002c-16.566,0-29.995-13.431-29.995-29.995c0-16.566,13.429-29.995,29.995-29.995    c16.566,0,29.995,13.429,29.995,29.995C285.948,151.572,272.519,165.002,255.953,165.002z" fill="#ffffff" data-original="#000000" style="" class=""/>
	</g>
</g>
<g xmlns="http://www.w3.org/2000/svg">
</g>
<g xmlns="http://www.w3.org/2000/svg">
</g>
<g xmlns="http://www.w3.org/2000/svg">
</g>
<g xmlns="http://www.w3.org/2000/svg">
</g>
<g xmlns="http://www.w3.org/2000/svg">
</g>
<g xmlns="http://www.w3.org/2000/svg">
</g>
<g xmlns="http://www.w3.org/2000/svg">
</g>
<g xmlns="http://www.w3.org/2000/svg">
</g>
<g xmlns="http://www.w3.org/2000/svg">
</g>
<g xmlns="http://www.w3.org/2000/svg">
</g>
<g xmlns="http://www.w3.org/2000/svg">
</g>
<g xmlns="http://www.w3.org/2000/svg">
</g>
<g xmlns="http://www.w3.org/2000/svg">
</g>
<g xmlns="http://www.w3.org/2000/svg">
</g>
<g xmlns="http://www.w3.org/2000/svg">
</g>
</g></svg>
