<svg xmlns="http://www.w3.org/2000/svg" width="39.406" height="29.897" viewBox="0 0 39.406 29.897">
  <g id="diagram" transform="translate(0 -50)">
    <g id="Group_365" data-name="Group 365" transform="translate(0 50)">
      <path id="Path_711" data-name="Path 711" d="M37.808,68.942H34.689V64.91a.719.719,0,0,0-.761-.761H20.464V60.878h3.119a1.56,1.56,0,0,0,1.6-1.6V51.6a1.56,1.56,0,0,0-1.6-1.6H15.823a1.56,1.56,0,0,0-1.6,1.6v7.759a1.56,1.56,0,0,0,1.6,1.6h3.119v3.2H5.477a.719.719,0,0,0-.761.761v4.032H1.6A1.56,1.56,0,0,0,0,70.54V78.3a1.56,1.56,0,0,0,1.6,1.6H9.357a1.56,1.56,0,0,0,1.6-1.6V70.54a1.56,1.56,0,0,0-1.6-1.6H6.238V65.671h12.7v3.271H15.823a1.56,1.56,0,0,0-1.6,1.6V78.3a1.56,1.56,0,0,0,1.6,1.6h7.759a1.56,1.56,0,0,0,1.6-1.6V70.54a1.56,1.56,0,0,0-1.6-1.6H20.464V65.671h12.7v3.271H30.049a1.56,1.56,0,0,0-1.6,1.6V78.3a1.56,1.56,0,0,0,1.6,1.6h7.759a1.56,1.56,0,0,0,1.6-1.6V70.54A1.607,1.607,0,0,0,37.808,68.942ZM9.433,70.54c-.076-.076,0-.076,0,0V78.3c0,.076,0,.076-.076.076H1.6c-.076,0-.076,0-.076-.076V70.54c0-.076,0-.076.076-.076Zm14.226,0c-.076-.076,0-.076,0,0V78.3c0,.076,0,.076-.076.076H15.823c-.076,0-.076,0-.076-.076V70.54c0-.076,0-.076.076-.076ZM15.747,59.281c.076.076,0,.076,0,0V51.6c0-.076,0-.076.076-.076h7.759c.076,0,.076,0,.076.076v7.759c0,.076,0,.076-.076.076ZM37.884,78.223c0,.076-.076.076,0,0l-7.836.076c-.076,0-.076,0-.076-.076V70.54c0-.076,0-.076.076-.076h7.759c.076,0,.076,0,.076.076Z" transform="translate(0 -50)" fill="#fff"/>
    </g>
  </g>
</svg>
