<svg xmlns="http://www.w3.org/2000/svg" width="23.018" height="26.904" viewBox="0 0 23.018 26.904">
  <g id="eye-able-zoom-reset" transform="translate(0.5 0.5)">
    <path id="Path" d="M0,7.39a.682.682,0,0,0,.688.672h5.96a.7.7,0,0,0,.636-.412.661.661,0,0,0-.146-.731L4.558,4.4a9.242,9.242,0,0,1,6.451-2.6,9.085,9.085,0,0,1,9.177,8.961.916.916,0,0,0,1.832-.008A10.892,10.892,0,0,0,11.009,0,11.1,11.1,0,0,0,3.251,3.124L1.17,1.092A.685.685,0,0,0,.421.949.66.66,0,0,0,0,1.57V7.39Z" transform="translate(0)" fill="#fff" stroke="#fff" stroke-miterlimit="10" stroke-width="1"/>
    <path id="Path-2" data-name="Path" d="M22.01,4.266a.682.682,0,0,0-.688-.672H15.364a.7.7,0,0,0-.636.412.661.661,0,0,0,.146.731l2.579,2.519A9.237,9.237,0,0,1,11,9.86,9.083,9.083,0,0,1,1.831.9.91.91,0,0,0,.911,0,.91.91,0,0,0,0,.907a10.89,10.89,0,0,0,11,10.75A11.092,11.092,0,0,0,18.76,8.533l2.081,2.032a.705.705,0,0,0,.49.193.749.749,0,0,0,.267-.05.66.66,0,0,0,.421-.621V4.266Z" transform="translate(0 14.247)" fill="#fff" stroke="#fff" stroke-miterlimit="10" stroke-width="1"/>
  </g>
</svg>
