<svg id="eye-able-circle-x" xmlns="http://www.w3.org/2000/svg" width="19.321" height="19.321" viewBox="0 0 19.321 19.321">
  <path id="Path" d="M19.321,15.389a1.561,1.561,0,0,0-.482-1.14l-3.316-3.316a1.8,1.8,0,0,1,0-2.546l3.316-3.316a1.561,1.561,0,0,0,.482-1.14,1.6,1.6,0,0,0-.482-1.167L16.556.482A1.591,1.591,0,0,0,15.389,0a1.561,1.561,0,0,0-1.14.482L10.933,3.8a1.8,1.8,0,0,1-2.546,0L5.072.482A1.561,1.561,0,0,0,3.932,0,1.6,1.6,0,0,0,2.765.482L.482,2.765A1.591,1.591,0,0,0,0,3.932a1.561,1.561,0,0,0,.482,1.14L3.8,8.388a1.8,1.8,0,0,1,0,2.546L.482,14.249A1.561,1.561,0,0,0,0,15.389a1.6,1.6,0,0,0,.482,1.167l2.283,2.283a1.591,1.591,0,0,0,1.167.482,1.561,1.561,0,0,0,1.14-.482l3.316-3.316a1.8,1.8,0,0,1,2.546,0l3.316,3.316a1.561,1.561,0,0,0,1.14.482,1.6,1.6,0,0,0,1.167-.482l2.283-2.283A1.591,1.591,0,0,0,19.321,15.389Z" transform="translate(0 0)" fill="#fff"/>
</svg>
