<svg xmlns="http://www.w3.org/2000/svg" width="34.972" height="34.972" viewBox="0 0 34.972 34.972">
  <g id="eye-able-circle-x_1_" data-name="eye-able-circle-x (1)" transform="translate(-671.937 -22.016)">
    <path id="Path_721" data-name="Path 721" d="M454.872,443.354a2.825,2.825,0,0,0-.873-2.063l-6-6a3.263,3.263,0,0,1,0-4.608l6-6a2.825,2.825,0,0,0,.873-2.063A2.887,2.887,0,0,0,454,420.5l-4.132-4.131a2.879,2.879,0,0,0-2.113-.873,2.825,2.825,0,0,0-2.063.873l-6,6a3.263,3.263,0,0,1-4.608,0l-6-6a2.825,2.825,0,0,0-2.063-.873,2.887,2.887,0,0,0-2.113.873l-4.132,4.131a2.879,2.879,0,0,0-.873,2.113,2.825,2.825,0,0,0,.873,2.063l6,6a3.263,3.263,0,0,1,0,4.608l-6,6a2.825,2.825,0,0,0-.873,2.063,2.887,2.887,0,0,0,.873,2.113L424.9,449.6a2.879,2.879,0,0,0,2.113.873,2.825,2.825,0,0,0,2.063-.873l6-6a3.263,3.263,0,0,1,4.608,0l6,6a2.825,2.825,0,0,0,2.063.873,2.887,2.887,0,0,0,2.113-.873L454,445.467A2.879,2.879,0,0,0,454.872,443.354Z" transform="translate(252.037 -393.484)"/>
  </g>
</svg>
