<svg xmlns="http://www.w3.org/2000/svg" width="45" height="39.937" viewBox="0 0 45 39.937">
  <g id="eye-able-screenreader" transform="translate(-3.998 -4.348)">
    <path id="Path_457" data-name="Path 457" d="M46,8.658v0Z" transform="translate(2.998 0.272)" fill="#fff"/>
    <g id="Group_119" data-name="Group 119" transform="translate(27.206 13.098)">
      <g id="Group_111" data-name="Group 111" transform="translate(4.822 3.639)">
        <line id="Line_21" data-name="Line 21" y2="13.11" transform="translate(0.539)" fill="#fff"/>
        <rect id="Rectangle_44" data-name="Rectangle 44" width="1.078" height="13.11" fill="#fff"/>
      </g>
      <g id="Group_112" data-name="Group 112" transform="translate(7.239)">
        <line id="Line_22" data-name="Line 22" y2="20.387" transform="translate(0.539)" fill="#fff"/>
        <rect id="Rectangle_45" data-name="Rectangle 45" width="1.088" height="20.397" fill="#fff"/>
      </g>
      <g id="Group_113" data-name="Group 113" transform="translate(2.512 5.188)">
        <line id="Line_23" data-name="Line 23" y2="10.011" transform="translate(0.539)" fill="#fff"/>
        <rect id="Rectangle_46" data-name="Rectangle 46" width="1.078" height="10.011" fill="#fff"/>
      </g>
      <g id="Group_114" data-name="Group 114" transform="translate(0 7.2)">
        <line id="Line_24" data-name="Line 24" y2="5.987" transform="translate(0.539)" fill="#fff"/>
        <rect id="Rectangle_47" data-name="Rectangle 47" width="1.078" height="5.987" fill="#fff"/>
      </g>
      <g id="Group_115" data-name="Group 115" transform="translate(9.674 1.935)">
        <line id="Line_25" data-name="Line 25" y2="16.518" transform="translate(0.539)" fill="#fff"/>
        <rect id="Rectangle_48" data-name="Rectangle 48" width="1.088" height="16.518" fill="#fff"/>
      </g>
      <g id="Group_116" data-name="Group 116" transform="translate(12.003 5.188)">
        <line id="Line_26" data-name="Line 26" y2="10.011" transform="translate(0.549)" fill="#fff"/>
        <rect id="Rectangle_49" data-name="Rectangle 49" width="1.078" height="10.011" fill="#fff"/>
      </g>
      <g id="Group_117" data-name="Group 117" transform="translate(14.246 7.2)">
        <line id="Line_27" data-name="Line 27" y2="5.987" transform="translate(0.539)" fill="#fff"/>
        <rect id="Rectangle_50" data-name="Rectangle 50" width="1.078" height="5.987" fill="#fff"/>
      </g>
      <g id="Group_118" data-name="Group 118" transform="translate(16.219 9.501)">
        <line id="Line_28" data-name="Line 28" y2="1.376" transform="translate(0.549)" fill="#fff"/>
        <rect id="Rectangle_51" data-name="Rectangle 51" width="1.078" height="1.376" fill="#fff"/>
      </g>
    </g>
    <g id="Group_124" data-name="Group 124" transform="translate(3.998 4.348)">
      <g id="Group_120" data-name="Group 120" transform="translate(0 20.098)">
        <path id="Path_458" data-name="Path 458" d="M64.695,257.2H45.078a.578.578,0,1,0,0,1.155h1.174v4.572a8.183,8.183,0,0,0,8.172,8.172h.038v3.889H55.3V271.1h.038a8.183,8.183,0,0,0,8.172-8.172v-4.572h1.174a.588.588,0,0,0,.587-.578A.562.562,0,0,0,64.695,257.2Zm-1.723,5.727a7.629,7.629,0,0,1-7.624,7.624h-.924a7.629,7.629,0,0,1-7.624-7.624v-4.572H62.972Z" transform="translate(-44.5 -257.2)" fill="#fff"/>
      </g>
      <g id="Group_121" data-name="Group 121" transform="translate(3.898 21.87)">
        <path id="Path_459" data-name="Path 459" d="M91.151,285.5h.674a6.162,6.162,0,0,0,6.151-6.151V275.6H85v3.744A6.156,6.156,0,0,0,91.151,285.5Z" transform="translate(-85 -275.6)" fill="#fff"/>
      </g>
      <g id="Group_122" data-name="Group 122" transform="translate(3.908)">
        <path id="Path_460" data-name="Path 460" d="M86.043,54.551a5.217,5.217,0,0,1,5.207-5.207h.674a5.217,5.217,0,0,1,5.207,5.207V67.873h.943V54.551A6.162,6.162,0,0,0,91.925,48.4h-.674A6.162,6.162,0,0,0,85.1,54.551V67.873h.943Z" transform="translate(-85.1 -48.4)" fill="#fff"/>
      </g>
      <g id="Group_123" data-name="Group 123" transform="translate(5.602 1.646)">
        <path id="Path_461" data-name="Path 461" d="M112.239,69.966a4.47,4.47,0,0,0-.366-1.762h-.01a.32.32,0,0,1-.318-.318.333.333,0,0,1,.067-.193,4.441,4.441,0,0,0-.424-.6.317.317,0,0,1-.212.077.32.32,0,0,1-.318-.318.283.283,0,0,1,.087-.212,4.437,4.437,0,0,0-2.156-1.068.358.358,0,0,1,.067.193.312.312,0,0,1-.308.318.32.32,0,0,1-.318-.318.314.314,0,0,1,.135-.25c-.125-.01-.26-.019-.395-.019h-.616c-.135,0-.26.01-.385.019a.314.314,0,0,1,.135.25.318.318,0,0,1-.635,0,.269.269,0,0,1,.077-.193,4.437,4.437,0,0,0-2.156,1.068.325.325,0,0,1,.087.212.32.32,0,0,1-.318.318.336.336,0,0,1-.212-.077,4.44,4.44,0,0,0-.424.6.333.333,0,0,1,.067.193.314.314,0,0,1-.318.318h-.01a4.47,4.47,0,0,0-.366,1.762v13.36h9.51V69.966ZM103.1,82.951a.318.318,0,1,1,.318-.318A.309.309,0,0,1,103.1,82.951Zm0-2.108a.318.318,0,1,1,.318-.318A.309.309,0,0,1,103.1,80.843Zm0-2.1a.318.318,0,1,1,.318-.318A.314.314,0,0,1,103.1,78.745Zm0-2.108a.318.318,0,1,1,.318-.318A.314.314,0,0,1,103.1,76.637Zm0-2.108a.318.318,0,1,1,.318-.318A.309.309,0,0,1,103.1,74.529Zm0-2.108a.318.318,0,1,1,.318-.318A.309.309,0,0,1,103.1,72.421Zm0-2.1a.318.318,0,1,1,.318-.318A.314.314,0,0,1,103.1,70.322Zm.876,11.609a.32.32,0,0,1-.318-.318.314.314,0,0,1,.318-.318.318.318,0,1,1,0,.635Zm0-2.108a.32.32,0,0,1-.318-.318.314.314,0,0,1,.318-.318.318.318,0,1,1,0,.635Zm0-2.108a.32.32,0,0,1-.318-.318.314.314,0,0,1,.318-.318.32.32,0,0,1,.318.318A.314.314,0,0,1,103.98,77.715Zm0-2.1a.32.32,0,0,1-.318-.318.314.314,0,0,1,.318-.318.318.318,0,1,1,0,.635Zm0-2.108a.32.32,0,0,1-.318-.318.314.314,0,0,1,.318-.318.318.318,0,1,1,0,.635Zm0-2.108a.32.32,0,0,1-.318-.318.314.314,0,0,1,.318-.318.318.318,0,1,1,0,.635Zm0-2.108a.32.32,0,0,1-.318-.318.314.314,0,0,1,.318-.318.32.32,0,0,1,.318.318A.314.314,0,0,1,103.98,69.293Zm.876,13.659a.318.318,0,1,1,.318-.318A.314.314,0,0,1,104.856,82.951Zm0-2.108a.318.318,0,1,1,.318-.318A.314.314,0,0,1,104.856,80.843Zm0-2.1a.318.318,0,1,1,.318-.318A.32.32,0,0,1,104.856,78.745Zm0-2.108a.318.318,0,1,1,.318-.318A.32.32,0,0,1,104.856,76.637Zm0-2.108a.318.318,0,1,1,.318-.318A.314.314,0,0,1,104.856,74.529Zm0-2.108a.318.318,0,1,1,.318-.318A.314.314,0,0,1,104.856,72.421Zm0-2.1a.318.318,0,1,1,.318-.318A.32.32,0,0,1,104.856,70.322Zm0-2.108a.318.318,0,1,1,.318-.318A.32.32,0,0,1,104.856,68.214Zm.876,13.717a.318.318,0,1,1,.318-.318A.32.32,0,0,1,105.732,81.931Zm0-2.108a.318.318,0,1,1,.318-.318A.32.32,0,0,1,105.732,79.823Zm0-2.108a.318.318,0,1,1,.318-.318A.314.314,0,0,1,105.732,77.715Zm0-2.1a.318.318,0,1,1,.318-.318A.32.32,0,0,1,105.732,75.617Zm0-2.108a.318.318,0,1,1,.318-.318A.32.32,0,0,1,105.732,73.509Zm0-2.108a.318.318,0,1,1,.318-.318A.32.32,0,0,1,105.732,71.4Zm0-2.108a.318.318,0,1,1,.318-.318A.314.314,0,0,1,105.732,69.293Zm0-2.1a.318.318,0,1,1,.318-.318A.32.32,0,0,1,105.732,67.194Zm.876,15.757a.318.318,0,1,1,.318-.318A.314.314,0,0,1,106.608,82.951Zm0-2.108a.318.318,0,1,1,.318-.318A.314.314,0,0,1,106.608,80.843Zm0-2.1a.318.318,0,1,1,.318-.318A.32.32,0,0,1,106.608,78.745Zm0-2.108a.318.318,0,1,1,.318-.318A.32.32,0,0,1,106.608,76.637Zm0-2.108a.318.318,0,1,1,.318-.318A.314.314,0,0,1,106.608,74.529Zm0-2.108a.318.318,0,1,1,.318-.318A.314.314,0,0,1,106.608,72.421Zm0-2.1a.318.318,0,1,1,.318-.318A.32.32,0,0,1,106.608,70.322Zm0-2.108a.318.318,0,1,1,.318-.318A.32.32,0,0,1,106.608,68.214Zm.876,13.717a.318.318,0,1,1,.318-.318A.32.32,0,0,1,107.484,81.931Zm0-2.108a.318.318,0,1,1,.318-.318A.32.32,0,0,1,107.484,79.823Zm0-2.108a.318.318,0,1,1,.318-.318A.314.314,0,0,1,107.484,77.715Zm0-2.1a.318.318,0,1,1,.318-.318A.32.32,0,0,1,107.484,75.617Zm0-2.108a.318.318,0,1,1,.318-.318A.32.32,0,0,1,107.484,73.509Zm0-2.108a.318.318,0,1,1,.318-.318A.32.32,0,0,1,107.484,71.4Zm0-2.108a.318.318,0,1,1,.318-.318A.314.314,0,0,1,107.484,69.293Zm0-2.1a.318.318,0,1,1,.318-.318A.32.32,0,0,1,107.484,67.194Zm.876,15.757a.318.318,0,0,1,0-.635.312.312,0,0,1,.308.318A.3.3,0,0,1,108.36,82.951Zm0-2.108a.318.318,0,0,1,0-.635.312.312,0,0,1,.308.318A.3.3,0,0,1,108.36,80.843Zm0-2.1a.318.318,0,0,1,0-.635.312.312,0,0,1,.308.318A.306.306,0,0,1,108.36,78.745Zm0-2.108a.318.318,0,0,1,0-.635.312.312,0,0,1,.308.318A.306.306,0,0,1,108.36,76.637Zm0-2.108a.318.318,0,0,1,0-.635.312.312,0,0,1,.308.318A.3.3,0,0,1,108.36,74.529Zm0-2.108a.318.318,0,0,1,0-.635.312.312,0,0,1,.308.318A.3.3,0,0,1,108.36,72.421Zm0-2.1a.318.318,0,0,1,0-.635.312.312,0,0,1,.308.318A.306.306,0,0,1,108.36,70.322Zm0-2.108a.318.318,0,0,1,0-.635.312.312,0,0,1,.308.318A.306.306,0,0,1,108.36,68.214Zm3.5,1.473a.318.318,0,1,1-.318.318A.32.32,0,0,1,111.864,69.687Zm-2.628,12.244a.318.318,0,1,1,.318-.318A.32.32,0,0,1,109.236,81.931Zm0-2.108a.318.318,0,1,1,.318-.318A.32.32,0,0,1,109.236,79.823Zm0-2.108a.318.318,0,1,1,.318-.318A.314.314,0,0,1,109.236,77.715Zm0-2.1a.318.318,0,1,1,.318-.318A.32.32,0,0,1,109.236,75.617Zm0-2.108a.318.318,0,1,1,.318-.318A.32.32,0,0,1,109.236,73.509Zm0-2.108a.318.318,0,1,1,.318-.318A.32.32,0,0,1,109.236,71.4Zm0-2.108a.318.318,0,1,1,.318-.318A.314.314,0,0,1,109.236,69.293Zm0-2.1a.318.318,0,1,1,.318-.318A.32.32,0,0,1,109.236,67.194Zm.876,15.757a.318.318,0,1,1,.318-.318A.314.314,0,0,1,110.112,82.951Zm0-2.108a.318.318,0,1,1,.318-.318A.314.314,0,0,1,110.112,80.843Zm0-2.1a.318.318,0,1,1,.318-.318A.32.32,0,0,1,110.112,78.745Zm0-2.108a.318.318,0,1,1,.318-.318A.32.32,0,0,1,110.112,76.637Zm0-2.108a.318.318,0,1,1,.318-.318A.314.314,0,0,1,110.112,74.529Zm0-2.108a.318.318,0,1,1,.318-.318A.314.314,0,0,1,110.112,72.421Zm0-2.1a.318.318,0,1,1,.318-.318A.32.32,0,0,1,110.112,70.322Zm0-2.108a.318.318,0,1,1,.318-.318A.32.32,0,0,1,110.112,68.214Zm.876,13.717a.318.318,0,1,1,.318-.318A.32.32,0,0,1,110.988,81.931Zm0-2.108a.318.318,0,1,1,.318-.318A.32.32,0,0,1,110.988,79.823Zm0-2.108a.318.318,0,1,1,.318-.318A.314.314,0,0,1,110.988,77.715Zm0-2.1a.318.318,0,1,1,.318-.318A.32.32,0,0,1,110.988,75.617Zm0-2.108a.318.318,0,1,1,.318-.318A.32.32,0,0,1,110.988,73.509Zm0-2.108a.318.318,0,1,1,.318-.318A.32.32,0,0,1,110.988,71.4Zm0-2.108a.318.318,0,1,1,.318-.318A.314.314,0,0,1,110.988,69.293Zm.876,13.659a.318.318,0,1,1,.318-.318A.314.314,0,0,1,111.864,82.951Zm0-2.108a.318.318,0,1,1,.318-.318A.314.314,0,0,1,111.864,80.843Zm0-2.1a.318.318,0,1,1,.318-.318A.32.32,0,0,1,111.864,78.745Zm0-2.108a.318.318,0,1,1,.318-.318A.32.32,0,0,1,111.864,76.637Zm0-2.108a.318.318,0,1,1,.318-.318A.314.314,0,0,1,111.864,74.529Zm0-2.108a.318.318,0,1,1,.318-.318A.314.314,0,0,1,111.864,72.421Z" transform="translate(-102.7 -65.5)" fill="#fff"/>
      </g>
    </g>
    <path id="Path_462" data-name="Path 462" d="M99.686,444.141v-.664A1.376,1.376,0,0,0,98.31,442.1H88.876a1.376,1.376,0,0,0-1.376,1.376v.664Z" transform="translate(-79.363 -399.855)" fill="#fff"/>
  </g>
</svg>
