<svg xmlns="http://www.w3.org/2000/svg" width="23.228" height="21.107" viewBox="0 0 23.228 21.107">
                <g id="Group_375" data-name="Group 375" transform="translate(-1800.772 -848)">
                  <g id="Group_327" data-name="Group 327" transform="translate(2780.971 -2380.175)">
                    <g id="Group_276" data-name="Group 276" transform="translate(-980.2 3228.175)">
                      <g id="Group_141" data-name="Group 141" transform="translate(0 0)" opacity="0.5">
                        <g id="Group_140" data-name="Group 140" opacity="0.7">
                          <path id="Path_471" data-name="Path 471"
                            d="M2172.745,234.61a10.554,10.554,0,1,1,7.463-3.091A10.486,10.486,0,0,1,2172.745,234.61Zm0-18.414a7.86,7.86,0,1,0,7.86,7.86A7.869,7.869,0,0,0,2172.745,216.2Z"
                            transform="translate(-2162.191 -213.503)" />
                        </g>
                      </g>
                      <g id="Group_142" data-name="Group 142" transform="translate(0 0)">
                        <path id="Path_472" data-name="Path 472"
                          d="M2172.745,234.61a10.554,10.554,0,1,1,7.463-3.091A10.486,10.486,0,0,1,2172.745,234.61Zm0-18.414a7.86,7.86,0,1,0,7.86,7.86A7.869,7.869,0,0,0,2172.745,216.2Z"
                          transform="translate(-2162.191 -213.503)" fill="#fff" />
                      </g>
                      <g id="Group_143" data-name="Group 143" transform="translate(4.372 1.62)">
                        <path id="Path_473" data-name="Path 473"
                          d="M2258.33,244.524l-2.377-2.377-10.107,10-3.994-3.935-2.377,2.377,6.344,6.284.127-.127.028.028Z"
                          transform="translate(-2239.474 -242.147)" fill="#fff" />
                      </g>
                    </g>
                  </g>
                </g>
              </svg>