<svg xmlns="http://www.w3.org/2000/svg" width="30" height="30" viewBox="0 0 35 35">
  <g id="Group_358" data-name="Group 358" transform="translate(0.5 0.5)">
    <g id="_2" data-name="2">
      <g id="Group_186" data-name="Group 186">
        <path id="Path_480" data-name="Path 480" d="M20.188,10.625A1.063,1.063,0,0,0,21.25,9.563V5.313a1.063,1.063,0,0,0-2.125,0v4.25A1.063,1.063,0,0,0,20.188,10.625ZM29.75,0H4.25A4.25,4.25,0,0,0,0,4.25v25.5A4.25,4.25,0,0,0,4.25,34h25.5A4.25,4.25,0,0,0,34,29.75V4.25A4.25,4.25,0,0,0,29.75,0ZM8.5,2.125h17v9.563a1.063,1.063,0,0,1-1.062,1.063H9.563A1.063,1.063,0,0,1,8.5,11.688ZM31.875,29.75a2.124,2.124,0,0,1-2.125,2.125H4.25A2.124,2.124,0,0,1,2.125,29.75V4.25A2.124,2.124,0,0,1,4.25,2.125H6.375V12.75A2.125,2.125,0,0,0,8.5,14.875h17a2.125,2.125,0,0,0,2.125-2.125V2.125H29.75A2.125,2.125,0,0,1,31.875,4.25Z" fill="#fff" stroke="#fff" stroke-width="1"/>
      </g>
    </g>
  </g>
</svg>
