<svg id="eye-able-plus" xmlns="http://www.w3.org/2000/svg" width="28.844" height="28.844" viewBox="0 0 28.844 28.844">
  <path id="Path" d="M25.466,0H1.864A1.842,1.842,0,0,0,0,1.808V3.017A1.842,1.842,0,0,0,1.864,4.825H25.477a1.842,1.842,0,0,0,1.864-1.808V1.808A1.845,1.845,0,0,0,25.466,0Z" transform="translate(0.746 12.062)" fill="#fff"/>
  <g id="Group" transform="translate(0 0)">
    <path id="Path-2" data-name="Path" d="M1.973,8.848h24.9c1.074,0,1.973-1.482,1.973-3.315V3.315C28.844,1.471,27.969,0,26.872,0H1.973C.9,0,0,1.482,0,3.315V5.533C0,7.354.9,8.848,1.973,8.848Z" transform="translate(0 9.875)" fill="#fff"/>
    <path id="Path-3" data-name="Path" d="M0,1.973v24.9c0,1.074,1.482,1.973,3.315,1.973h2.23c1.844,0,3.315-.875,3.315-1.973V1.973C8.86.9,7.377,0,5.545,0H3.315C1.494,0,0,.875,0,1.973Z" transform="translate(9.981)" fill="#fff"/>
  </g>
</svg>
