<svg xmlns="http://www.w3.org/2000/svg" width="52.108" height="43.104" viewBox="0 0 52.108 43.104">
  <g id="eye-able-black_on" transform="translate(-1)">
    <ellipse id="Oval" cx="21.026" cy="21.552" rx="21.026" ry="21.552" transform="translate(1 0)" fill="#d1d8e0"/>
    <g id="Group" transform="translate(18.677 6.342)">
      <ellipse id="Oval-2" data-name="Oval" cx="3.134" cy="3.657" rx="3.134" ry="3.657" transform="translate(0 0)" fill="#a5b1c2"/>
      <path id="Path" d="M3.134.322a3.4,3.4,0,0,1,3.134,3.5V3.657A3.427,3.427,0,0,0,3.134,0,3.428,3.428,0,0,0,0,3.657v.161A3.407,3.407,0,0,1,3.134.322Z" transform="translate(0 0)" fill="#778ca3"/>
    </g>
    <g id="Group-2" data-name="Group" transform="translate(26.036 25.308)">
      <ellipse id="Oval-3" data-name="Oval" cx="4.69" cy="4.397" rx="4.69" ry="4.397" transform="translate(0 0)" fill="#a5b1c2"/>
      <path id="Path-2" data-name="Path" d="M4.69.4A4.558,4.558,0,0,1,9.37,4.6c0-.067.01-.134.01-.2A4.552,4.552,0,0,0,4.69,0,4.552,4.552,0,0,0,0,4.4a1.321,1.321,0,0,0,.01.2A4.551,4.551,0,0,1,4.69.4Z" transform="translate(0 0)" fill="#778ca3"/>
    </g>
    <g id="Group-3" data-name="Group" transform="translate(5.067 14.812)">
      <ellipse id="Oval-4" data-name="Oval" cx="6.231" cy="6.75" rx="6.231" ry="6.75" transform="translate(0 0)" fill="#a5b1c2"/>
      <path id="Path-3" data-name="Path" d="M6.231.605a6.471,6.471,0,0,1,6.221,6.448c.01-.1.01-.2.01-.3A6.51,6.51,0,0,0,6.231,0,6.51,6.51,0,0,0,0,6.75c0,.1,0,.2.01.3A6.478,6.478,0,0,1,6.231.605Z" transform="translate(0 0)" fill="#778ca3"/>
    </g>
    <ellipse id="Oval-5" data-name="Oval" cx="21.026" cy="21.552" rx="21.026" ry="21.552" transform="translate(11.055 0)" fill="none"/>
  </g>
</svg>
