<svg xmlns="http://www.w3.org/2000/svg" width="32.698" height="29.666" viewBox="0 0 32.698 29.666">
  <g id="eye-able-check" transform="translate(-26.296 -33.447)">
    <path id="Path_719" data-name="Path 719" d="M302.14,365.124l11.072,12.03a1.116,1.116,0,0,0,1.688-.053L334.295,353.2a1.118,1.118,0,0,0-.2-1.6l-4.761-3.527a1.113,1.113,0,0,0-1.547.215l-12.742,16.46a1.114,1.114,0,0,1-1.67.106l-5.494-5.49a1.117,1.117,0,0,0-1.586.007l-4.13,4.225A1.111,1.111,0,0,0,302.14,365.124Z" transform="translate(-275.55 -314.402)"/>
  </g>
</svg>
