<svg xmlns="http://www.w3.org/2000/svg" width="33.146" height="37.812" viewBox="0 0 33.146 37.812">
  <path id="eye-able-reset-top_1_" data-name="eye-able-reset-top (1)" d="M134.531,28.963a1.329,1.329,0,0,0-1.318,1.315A13.909,13.909,0,1,1,117.9,16.456v3.112a1.183,1.183,0,0,0,.719,1.078.93.93,0,0,0,.716.18.857.857,0,0,0,.6-.18l7.778-4.487a1.189,1.189,0,0,0,.716-1.135,1.172,1.172,0,0,0-.716-1.2L119.933,9.34a1.516,1.516,0,0,0-.6-.24h-.12a1.265,1.265,0,0,0-.6.24,1.293,1.293,0,0,0-.719,1.2V13.7a16.631,16.631,0,1,0,17.949,16.574,1.327,1.327,0,0,0-1.315-1.315Z" transform="translate(-102.7 -9.1)"/>
</svg>
