<svg xmlns="http://www.w3.org/2000/svg" width="20.676" height="24.531" viewBox="0 0 24.676 28.531">
  <g id="eye-able-reset-top" transform="translate(1.224 -8.25)">
    <path id="Path" d="M23.7,14.988a1,1,0,0,0-.981.992,10.356,10.356,0,1,1-11.4-10.429V7.9a.893.893,0,0,0,.535.813.685.685,0,0,0,.533.136.632.632,0,0,0,.446-.136l5.79-3.385a.9.9,0,0,0,.533-.857.886.886,0,0,0-.533-.9L12.829.181A1.12,1.12,0,0,0,12.383,0h-.089a.934.934,0,0,0-.446.181.977.977,0,0,0-.535.9V3.474A12.475,12.475,0,0,0,0,15.98,12.442,12.442,0,0,0,12.383,28.531,12.423,12.423,0,0,0,24.676,15.98a.994.994,0,0,0-.979-.992Z" transform="translate(-1.224 8.25)" fill="#fff"/>
  </g>
</svg>
