<svg xmlns="http://www.w3.org/2000/svg" width="43.1" height="40.424" viewBox="0 0 43.1 40.424">
  <g id="eye-able-settings" transform="translate(-14.5 -65.274)">
    <g id="Group_343" data-name="Group 343" transform="translate(15.5 66.295)">
      <g id="Group_342" data-name="Group 342" transform="translate(0 0)">
        <path id="Path_609" data-name="Path 609" d="M56.435,82.912a3.359,3.359,0,0,0-1.606-2.463,3.31,3.31,0,0,0-2.891-.258,1.649,1.649,0,0,1-2.055-.923,15,15,0,0,0-1.526-2.652,1.636,1.636,0,0,1,.23-2.247A3.3,3.3,0,0,0,49.8,71.746a3.361,3.361,0,0,0-1.34-2.62,20.526,20.526,0,0,0-4.431-2.559,3.367,3.367,0,0,0-2.948.148,3.286,3.286,0,0,0-1.666,2.354,1.637,1.637,0,0,1-1.841,1.321,14.442,14.442,0,0,0-3.039,0,1.637,1.637,0,0,1-1.841-1.321,3.28,3.28,0,0,0-1.666-2.354,3.359,3.359,0,0,0-2.948-.148,20.461,20.461,0,0,0-4.431,2.559,3.357,3.357,0,0,0-1.337,2.617,3.307,3.307,0,0,0,1.208,2.628,1.636,1.636,0,0,1,.23,2.244,15,15,0,0,0-1.526,2.652,1.647,1.647,0,0,1-2.074.915,3.314,3.314,0,0,0-2.872.263,3.354,3.354,0,0,0-1.606,2.463,20.227,20.227,0,0,0-.167,2.576,20.739,20.739,0,0,0,.164,2.576,3.359,3.359,0,0,0,1.606,2.463,3.319,3.319,0,0,0,2.891.258,1.647,1.647,0,0,1,2.055.923,15,15,0,0,0,1.526,2.652,1.636,1.636,0,0,1-.23,2.247A3.3,3.3,0,0,0,22.3,99.227a3.353,3.353,0,0,0,1.34,2.62,20.526,20.526,0,0,0,4.431,2.559,3.367,3.367,0,0,0,2.948-.148,3.286,3.286,0,0,0,1.666-2.354,1.642,1.642,0,0,1,1.841-1.321,14.441,14.441,0,0,0,3.039,0,1.637,1.637,0,0,1,1.841,1.321,3.28,3.28,0,0,0,1.666,2.354,3.344,3.344,0,0,0,1.622.419,3.385,3.385,0,0,0,1.323-.271,20.592,20.592,0,0,0,4.431-2.559,3.355,3.355,0,0,0,1.34-2.617A3.3,3.3,0,0,0,48.585,96.6a1.636,1.636,0,0,1-.23-2.244,15,15,0,0,0,1.526-2.652,1.649,1.649,0,0,1,2.055-.923l.019.005a3.293,3.293,0,0,0,2.872-.263,3.359,3.359,0,0,0,1.606-2.463,20.392,20.392,0,0,0,.167-2.576A20.933,20.933,0,0,0,56.435,82.912Zm-1.7,4.935a1.66,1.66,0,0,1-.786,1.214,1.6,1.6,0,0,1-1.406.121l-.011,0a3.361,3.361,0,0,0-4.209,1.833,13.474,13.474,0,0,1-1.354,2.354,3.334,3.334,0,0,0,.532,4.568,1.585,1.585,0,0,1,.581,1.269,1.654,1.654,0,0,1-.66,1.291,18.674,18.674,0,0,1-4.061,2.343,1.661,1.661,0,0,1-1.458-.071,1.582,1.582,0,0,1-.8-1.134,3.312,3.312,0,0,0-3.321-2.762c-.126,0-.258.005-.386.016a12.908,12.908,0,0,1-2.683,0,3.32,3.32,0,0,0-3.71,2.74,1.577,1.577,0,0,1-.8,1.134,1.67,1.67,0,0,1-1.458.071,18.851,18.851,0,0,1-4.061-2.343,1.649,1.649,0,0,1-.66-1.288,1.587,1.587,0,0,1,.584-1.269,3.331,3.331,0,0,0,.532-4.568,13.474,13.474,0,0,1-1.354-2.354,3.37,3.37,0,0,0-4.239-1.819,1.6,1.6,0,0,1-1.387-.126,1.639,1.639,0,0,1-.786-1.214,18.171,18.171,0,0,1,0-4.713,1.66,1.66,0,0,1,.786-1.214,1.6,1.6,0,0,1,1.4-.121,3.366,3.366,0,0,0,4.22-1.828,13.451,13.451,0,0,1,1.354-2.351,3.334,3.334,0,0,0-.532-4.568,1.585,1.585,0,0,1-.581-1.269,1.654,1.654,0,0,1,.66-1.291,18.674,18.674,0,0,1,4.061-2.343,1.661,1.661,0,0,1,1.458.071,1.576,1.576,0,0,1,.8,1.137,3.326,3.326,0,0,0,3.71,2.74,12.908,12.908,0,0,1,2.683,0,3.337,3.337,0,0,0,3.71-2.74,1.577,1.577,0,0,1,.8-1.134,1.652,1.652,0,0,1,1.458-.071A18.851,18.851,0,0,1,47.423,70.5a1.649,1.649,0,0,1,.66,1.288,1.587,1.587,0,0,1-.584,1.269,3.331,3.331,0,0,0-.532,4.568,13.475,13.475,0,0,1,1.354,2.354A3.369,3.369,0,0,0,52.561,81.8a1.6,1.6,0,0,1,1.387.126,1.644,1.644,0,0,1,.786,1.214,18.151,18.151,0,0,1,0,4.71Z" transform="translate(-15.5 -66.295)" fill="#fff" stroke="#fff" stroke-width="2"/>
      </g>
    </g>
    <g id="Group_345" data-name="Group 345" transform="translate(29.376 78.815)">
      <g id="Group_344" data-name="Group 344">
        <path id="Path_610" data-name="Path 610" d="M528.575,523.2a6.675,6.675,0,1,0,6.675,6.675A6.683,6.683,0,0,0,528.575,523.2Zm0,12.013a5.339,5.339,0,1,1,5.341-5.338A5.346,5.346,0,0,1,528.575,535.213Z" transform="translate(-521.9 -523.2)" fill="#fff"/>
      </g>
    </g>
  </g>
</svg>
