<svg xmlns="http://www.w3.org/2000/svg" width="35.976" height="36.549" viewBox="0 0 35.976 36.549">
  <g id="Group_363" data-name="Group 363" transform="translate(-1579.3 -921.447)">
    <g id="XMLID_2657_" transform="translate(1579.3 921.447)">
      <g id="XMLID_3033_" transform="translate(0 0)">
        <g id="XMLID_3209_" transform="translate(2.024 1.279)">
          <ellipse id="XMLID_3245_" cx="0.964" cy="0.964" rx="0.964" ry="0.964" transform="translate(14.24)" fill="#00a69c"/>
          <ellipse id="XMLID_3244_" cx="0.964" cy="0.964" rx="0.964" ry="0.964" transform="translate(22.511 6.502) rotate(-22.655)" fill="#00a69c"/>
          <ellipse id="XMLID_3243_" cx="0.964" cy="0.964" rx="0.964" ry="0.964" transform="translate(24.743 3.167)" fill="#00a69c"/>
          <ellipse id="XMLID_3242_" cx="0.964" cy="0.964" rx="0.964" ry="0.964" transform="translate(6.923 11.701)" fill="#00a69c"/>
          <ellipse id="XMLID_3241_" cx="0.964" cy="0.964" rx="0.964" ry="0.964" transform="translate(0 11.701)" fill="#00a69c"/>
          <ellipse id="XMLID_3240_" cx="0.964" cy="0.964" rx="0.964" ry="0.964" transform="translate(1.64 16.631) rotate(-22.655)" fill="#00a69c"/>
          <circle id="XMLID_3239_" cx="0.964" cy="0.964" r="0.964" transform="translate(7.494 16.773) rotate(-40.783)" fill="#00a69c"/>
          <ellipse id="XMLID_3238_" cx="0.964" cy="0.964" rx="0.964" ry="0.964" transform="translate(2.323 22.124) rotate(-77.444)" fill="#00a69c"/>
          <ellipse id="XMLID_3237_" cx="0.964" cy="0.964" rx="0.964" ry="0.964" transform="translate(8.998 19.436)" fill="#00a69c"/>
          <ellipse id="XMLID_3236_" cx="0.964" cy="0.964" rx="0.964" ry="0.964" transform="translate(21.401 17.446) rotate(-81.756)" fill="#00a69c"/>
          <circle id="XMLID_3235_" cx="0.964" cy="0.964" r="0.964" transform="translate(30.845 16.163) rotate(-45)" fill="#00a69c"/>
          <circle id="XMLID_3234_" cx="0.964" cy="0.964" r="0.964" transform="translate(26.686 22.389) rotate(-45)" fill="#00a69c"/>
          <circle id="XMLID_3233_" cx="0.964" cy="0.964" r="0.964" transform="translate(15.775 20.074) rotate(-45)" fill="#00a69c"/>
          <ellipse id="XMLID_3232_" cx="0.964" cy="0.964" rx="0.964" ry="0.964" transform="translate(3.85 25.415) rotate(-79.333)" fill="#00a69c"/>
          <circle id="XMLID_3231_" cx="0.964" cy="0.964" r="0.964" transform="translate(3.12 29.625) rotate(-45)" fill="#00a69c"/>
          <ellipse id="XMLID_3230_" cx="0.964" cy="0.964" rx="0.964" ry="0.964" transform="translate(9.208 3.466) rotate(-22.655)" fill="#00a69c"/>
          <ellipse id="XMLID_3229_" cx="0.964" cy="0.964" rx="0.964" ry="0.964" transform="translate(5.774 2.126) rotate(-22.655)" fill="#00a69c"/>
          <ellipse id="XMLID_3228_" cx="0.964" cy="0.964" rx="0.964" ry="0.964" transform="matrix(0.26, -0.966, 0.966, 0.26, 2.835, 7.323)" fill="#00a69c"/>
          <ellipse id="XMLID_3227_" cx="0.964" cy="0.964" rx="0.964" ry="0.964" transform="translate(10.935 7.049)" fill="#00a69c"/>
          <circle id="XMLID_3226_" cx="0.964" cy="0.964" r="0.964" transform="translate(14.138 5.923) rotate(-45)" fill="#00a69c"/>
          <ellipse id="XMLID_3225_" cx="0.964" cy="0.964" rx="0.964" ry="0.964" transform="matrix(0.229, -0.974, 0.974, 0.229, 18.059, 3.36)" fill="#00a69c"/>
          <ellipse id="XMLID_3224_" cx="0.964" cy="0.964" rx="0.964" ry="0.964" transform="translate(16.526 7.66)" fill="#00a69c"/>
          <ellipse id="XMLID_3223_" cx="0.964" cy="0.964" rx="0.964" ry="0.964" transform="matrix(0.229, -0.974, 0.974, 0.229, 21.984, 23.1)" fill="#00a69c"/>
          <circle id="XMLID_3222_" cx="0.964" cy="0.964" r="0.964" transform="translate(12.878 27.02) rotate(-45)" fill="#00a69c"/>
          <ellipse id="XMLID_3221_" cx="0.964" cy="0.964" rx="0.964" ry="0.964" transform="translate(8.378 27.779) rotate(-79.188)" fill="#00a69c"/>
          <ellipse id="XMLID_3220_" cx="0.964" cy="0.964" rx="0.964" ry="0.964" transform="translate(9.502 30.9)" fill="#00a69c"/>
          <ellipse id="XMLID_3219_" cx="0.964" cy="0.964" rx="0.964" ry="0.964" transform="translate(14.24 33.177)" fill="#00a69c"/>
          <ellipse id="XMLID_3218_" cx="0.964" cy="0.964" rx="0.964" ry="0.964" transform="translate(22.503 25.658)" fill="#00a69c"/>
          <ellipse id="XMLID_3217_" cx="0.964" cy="0.964" rx="0.964" ry="0.964" transform="translate(28.351 27.039)" fill="#00a69c"/>
          <ellipse id="XMLID_3216_" cx="0.964" cy="0.964" rx="0.964" ry="0.964" transform="translate(18.463 25.385)" fill="#00a69c"/>
          <ellipse id="XMLID_3215_" cx="0.964" cy="0.964" rx="0.964" ry="0.964" transform="translate(17.623 31.656) rotate(-79.309)" fill="#00a69c"/>
          <ellipse id="XMLID_3214_" cx="0.964" cy="0.964" rx="0.964" ry="0.964" transform="translate(22.513 29.105) rotate(-22.655)" fill="#00a69c"/>
          <circle id="XMLID_3213_" cx="0.964" cy="0.964" r="0.964" transform="translate(11.903 14.649) rotate(-45)" fill="#00a69c"/>
          <ellipse id="XMLID_3212_" cx="0.964" cy="0.964" rx="0.964" ry="0.964" transform="translate(22.512 10.47) rotate(-22.655)" fill="#00a69c"/>
          <ellipse id="XMLID_3211_" cx="0.964" cy="0.964" rx="0.964" ry="0.964" transform="translate(31.243 11.015)" fill="#00a69c"/>
          <ellipse id="XMLID_3210_" cx="0.964" cy="0.964" rx="0.964" ry="0.964" transform="translate(26.68 11.701)" fill="#00a69c"/>
        </g>
        <g id="XMLID_3068_">
          <ellipse id="XMLID_3208_" cx="0.964" cy="0.964" rx="0.964" ry="0.964" transform="translate(11.231 1.807) rotate(-22.655)" fill="#26a9e0"/>
          <ellipse id="XMLID_3207_" cx="0.964" cy="0.964" rx="0.964" ry="0.964" transform="translate(18.202 3.923)" fill="#26a9e0"/>
          <ellipse id="XMLID_3206_" cx="0.964" cy="0.964" rx="0.964" ry="0.964" transform="translate(14.327 4.896)" fill="#26a9e0"/>
          <ellipse id="XMLID_3205_" cx="0.964" cy="0.964" rx="0.964" ry="0.964" transform="matrix(0.229, -0.974, 0.974, 0.229, 2.797, 10.031)" fill="#26a9e0"/>
          <ellipse id="XMLID_3204_" cx="0.964" cy="0.964" rx="0.964" ry="0.964" transform="translate(7.01 4.896)" fill="#26a9e0"/>
          <ellipse id="XMLID_3203_" cx="0.964" cy="0.964" rx="0.964" ry="0.964" transform="translate(7.478 8.961)" fill="#26a9e0"/>
          <circle id="XMLID_3202_" cx="0.964" cy="0.964" r="0.964" transform="translate(12.101 12.332) rotate(-45)" fill="#26a9e0"/>
          <ellipse id="XMLID_3201_" cx="0.964" cy="0.964" rx="0.964" ry="0.964" transform="translate(15.916 8.961)" fill="#26a9e0"/>
          <ellipse id="XMLID_3200_" cx="0.964" cy="0.964" rx="0.964" ry="0.964" transform="translate(10.728 7.43) rotate(-22.655)" fill="#26a9e0"/>
          <ellipse id="XMLID_3199_" cx="0.964" cy="0.964" rx="0.964" ry="0.964" transform="matrix(0.249, -0.969, 0.969, 0.249, 22.375, 5.579)" fill="#26a9e0"/>
          <ellipse id="XMLID_3198_" cx="0.964" cy="0.964" rx="0.964" ry="0.964" transform="translate(17.853 12.361)" fill="#26a9e0"/>
          <circle id="XMLID_3197_" cx="0.964" cy="0.964" r="0.964" transform="translate(0 17.457) rotate(-45)" fill="#26a9e0"/>
          <ellipse id="XMLID_3196_" cx="0.964" cy="0.964" rx="0.964" ry="0.964" transform="translate(5.232 14.879) rotate(-19.02)" fill="#26a9e0"/>
          <ellipse id="XMLID_3195_" cx="0.964" cy="0.964" rx="0.964" ry="0.964" transform="matrix(0.217, -0.976, 0.976, 0.217, 6.819, 20.444)" fill="#26a9e0"/>
          <ellipse id="XMLID_3194_" cx="0.964" cy="0.964" rx="0.964" ry="0.964" transform="translate(12.959 18.192)" fill="#26a9e0"/>
          <ellipse id="XMLID_3193_" cx="0.964" cy="0.964" rx="0.964" ry="0.964" transform="translate(7.478 22.38)" fill="#26a9e0"/>
          <circle id="XMLID_3192_" cx="0.964" cy="0.964" r="0.964" transform="translate(25.807 15.945) rotate(-45)" fill="#26a9e0"/>
          <ellipse id="XMLID_3191_" cx="0.964" cy="0.964" rx="0.964" ry="0.964" transform="translate(30.908 15.756) rotate(-80.752)" fill="#26a9e0"/>
          <ellipse id="XMLID_3190_" cx="0.964" cy="0.964" rx="0.964" ry="0.964" transform="translate(33.901 19.413)" fill="#26a9e0"/>
          <circle id="XMLID_3189_" cx="0.964" cy="0.964" r="0.964" transform="translate(29.682 17.926) rotate(-45)" fill="#26a9e0"/>
          <circle id="XMLID_3188_" cx="0.964" cy="0.964" r="0.964" transform="translate(31.904 23.676) rotate(-45)" fill="#26a9e0"/>
          <ellipse id="XMLID_3187_" cx="0.964" cy="0.964" rx="0.964" ry="0.964" transform="translate(26.208 20.728)" fill="#26a9e0"/>
          <ellipse id="XMLID_3186_" cx="0.964" cy="0.964" rx="0.964" ry="0.964" transform="translate(21.098 20.513) rotate(-80.752)" fill="#26a9e0"/>
          <ellipse id="XMLID_3185_" cx="0.964" cy="0.964" rx="0.964" ry="0.964" transform="translate(1.06 22.38)" fill="#26a9e0"/>
          <ellipse id="XMLID_3184_" cx="0.964" cy="0.964" rx="0.964" ry="0.964" transform="translate(13.3 23.884) rotate(-79.093)" fill="#26a9e0"/>
          <ellipse id="XMLID_3183_" cx="0.964" cy="0.964" rx="0.964" ry="0.964" transform="matrix(0.229, -0.974, 0.974, 0.229, 12.759, 27.36)" fill="#26a9e0"/>
          <ellipse id="XMLID_3182_" cx="0.964" cy="0.964" rx="0.964" ry="0.964" transform="matrix(0.229, -0.974, 0.974, 0.229, 8.256, 27.637)" fill="#26a9e0"/>
          <ellipse id="XMLID_3181_" cx="0.964" cy="0.964" rx="0.964" ry="0.964" transform="matrix(0.184, -0.983, 0.983, 0.184, 3.405, 29.076)" fill="#26a9e0"/>
          <circle id="XMLID_3180_" cx="0.964" cy="0.964" r="0.964" transform="translate(21.814 8.323) rotate(-45)" fill="#26a9e0"/>
          <ellipse id="XMLID_3179_" cx="0.964" cy="0.964" rx="0.964" ry="0.964" transform="translate(10.881 15.281) rotate(-80.752)" fill="#26a9e0"/>
          <ellipse id="XMLID_3178_" cx="0.964" cy="0.964" rx="0.964" ry="0.964" transform="matrix(0.229, -0.974, 0.974, 0.229, 26.984, 13.049)" fill="#26a9e0"/>
          <ellipse id="XMLID_3177_" cx="0.964" cy="0.964" rx="0.964" ry="0.964" transform="translate(27.173 7.431) rotate(-22.655)" fill="#26a9e0"/>
          <ellipse id="XMLID_3176_" cx="0.964" cy="0.964" rx="0.964" ry="0.964" transform="translate(29.027 26.382) rotate(-33.87)" fill="#26a9e0"/>
          <ellipse id="XMLID_3175_" cx="0.964" cy="0.964" rx="0.964" ry="0.964" transform="translate(18.464 23.879) rotate(-35.324)" fill="#26a9e0"/>
          <circle id="XMLID_3174_" cx="0.964" cy="0.964" r="0.964" transform="translate(8.668 30.898) rotate(-45)" fill="#26a9e0"/>
          <ellipse id="XMLID_3173_" cx="0.964" cy="0.964" rx="0.964" ry="0.964" transform="translate(13.628 31.653) rotate(-22.655)" fill="#26a9e0"/>
          <ellipse id="XMLID_3079_" cx="0.964" cy="0.964" rx="0.964" ry="0.964" transform="translate(18.463 34.539) rotate(-35.324)" fill="#26a9e0"/>
          <circle id="XMLID_3078_" cx="0.964" cy="0.964" r="0.964" transform="translate(22.197 26.059) rotate(-39.807)" fill="#26a9e0"/>
          <ellipse id="XMLID_3077_" cx="0.964" cy="0.964" rx="0.964" ry="0.964" transform="translate(18.202 28.926)" fill="#26a9e0"/>
          <circle id="XMLID_3076_" cx="0.964" cy="0.964" r="0.964" transform="translate(21.815 31.204) rotate(-45)" fill="#26a9e0"/>
          <ellipse id="XMLID_3075_" cx="0.964" cy="0.964" rx="0.964" ry="0.964" transform="translate(13.085 35.873) rotate(-76.656)" fill="#26a9e0"/>
          <ellipse id="XMLID_3074_" cx="0.964" cy="0.964" rx="0.964" ry="0.964" transform="translate(27.439 30.688) rotate(-22.655)" fill="#26a9e0"/>
          <ellipse id="XMLID_3073_" cx="0.964" cy="0.964" rx="0.964" ry="0.964" transform="translate(25.482 32.518)" fill="#26a9e0"/>
          <ellipse id="XMLID_3072_" cx="0.964" cy="0.964" rx="0.964" ry="0.964" transform="matrix(0.503, -0.864, 0.864, 0.503, 21.262, 15.656)" fill="#26a9e0"/>
          <circle id="XMLID_3071_" cx="0.964" cy="0.964" r="0.964" transform="translate(16.834 18.442) rotate(-45)" fill="#26a9e0"/>
          <ellipse id="XMLID_3070_" cx="0.964" cy="0.964" rx="0.964" ry="0.964" transform="translate(30.905 11.711) rotate(-80.752)" fill="#26a9e0"/>
          <circle id="XMLID_3069_" cx="0.964" cy="0.964" r="0.964" transform="translate(19.118 1.363) rotate(-45)" fill="#26a9e0"/>
        </g>
        <g id="XMLID_3034_" transform="translate(1.73 0.965)">
          <ellipse id="XMLID_3067_" cx="0.964" cy="0.964" rx="0.964" ry="0.964" transform="translate(17.925 7.73) rotate(-79.309)" fill="#1b75bb"/>
          <circle id="XMLID_3066_" cx="0.964" cy="0.964" r="0.964" transform="translate(27.955 6.234) rotate(-45)" fill="#1b75bb"/>
          <ellipse id="XMLID_3065_" cx="0.964" cy="0.964" rx="0.964" ry="0.964" transform="translate(26.415 8.366)" fill="#1b75bb"/>
          <ellipse id="XMLID_3064_" cx="0.964" cy="0.964" rx="0.964" ry="0.964" transform="matrix(0.3, -0.954, 0.954, 0.3, 19.642, 10.948)" fill="#1b75bb"/>
          <ellipse id="XMLID_3063_" cx="0.964" cy="0.964" rx="0.964" ry="0.964" transform="translate(2.597 12.009) rotate(-75.907)" fill="#1b75bb"/>
          <ellipse id="XMLID_3062_" cx="0.964" cy="0.964" rx="0.964" ry="0.964" transform="translate(0 19.218) rotate(-22.655)" fill="#1b75bb"/>
          <ellipse id="XMLID_3061_" cx="0.964" cy="0.964" rx="0.964" ry="0.964" transform="matrix(0.229, -0.974, 0.974, 0.229, 13.376, 20.448)" fill="#1b75bb"/>
          <ellipse id="XMLID_3060_" cx="0.964" cy="0.964" rx="0.964" ry="0.964" transform="translate(26.002 17.219)" fill="#1b75bb"/>
          <ellipse id="XMLID_3059_" cx="0.964" cy="0.964" rx="0.964" ry="0.964" transform="matrix(0.229, -0.974, 0.974, 0.229, 28.711, 20.888)" fill="#1b75bb"/>
          <ellipse id="XMLID_3058_" cx="0.964" cy="0.964" rx="0.964" ry="0.964" transform="translate(21.575 19.115) rotate(-17.993)" fill="#1b75bb"/>
          <ellipse id="XMLID_3057_" cx="0.964" cy="0.964" rx="0.964" ry="0.964" transform="translate(1.07 25.401) rotate(-76.656)" fill="#1b75bb"/>
          <ellipse id="XMLID_3056_" cx="0.964" cy="0.964" rx="0.964" ry="0.964" transform="translate(8.319 23.008)" fill="#1b75bb"/>
          <ellipse id="XMLID_3055_" cx="0.964" cy="0.964" rx="0.964" ry="0.964" transform="translate(4.784 26.692)" fill="#1b75bb"/>
          <ellipse id="XMLID_3054_" cx="0.964" cy="0.964" rx="0.964" ry="0.964" transform="translate(14.239 22.621) rotate(-22.655)" fill="#1b75bb"/>
          <ellipse id="XMLID_3053_" cx="0.964" cy="0.964" rx="0.964" ry="0.964" transform="translate(19.374 22.515) rotate(-80.752)" fill="#1b75bb"/>
          <ellipse id="XMLID_3052_" cx="0.964" cy="0.964" rx="0.964" ry="0.964" transform="translate(13.166 11.336)" fill="#1b75bb"/>
          <ellipse id="XMLID_3051_" cx="0.964" cy="0.964" rx="0.964" ry="0.964" transform="translate(6.857 6.051) rotate(-30.897)" fill="#1b75bb"/>
          <ellipse id="XMLID_3050_" cx="0.964" cy="0.964" rx="0.964" ry="0.964" transform="translate(12.193 1.37)" fill="#1b75bb"/>
          <ellipse id="XMLID_3049_" cx="0.964" cy="0.964" rx="0.964" ry="0.964" transform="translate(7.995 10.664) rotate(-77.52)" fill="#1b75bb"/>
          <ellipse id="XMLID_3048_" cx="0.964" cy="0.964" rx="0.964" ry="0.964" transform="translate(5.748 15.001)" fill="#1b75bb"/>
          <circle id="XMLID_3047_" cx="0.964" cy="0.964" r="0.964" transform="translate(9.86 15.692) rotate(-45)" fill="#1b75bb"/>
          <ellipse id="XMLID_3046_" cx="0.964" cy="0.964" rx="0.964" ry="0.964" transform="translate(15.308 15.409) rotate(-76.656)" fill="#1b75bb"/>
          <ellipse id="XMLID_3045_" cx="0.964" cy="0.964" rx="0.964" ry="0.964" transform="translate(22.476 12.746)" fill="#1b75bb"/>
          <ellipse id="XMLID_3044_" cx="0.964" cy="0.964" rx="0.964" ry="0.964" transform="translate(24.771 23.008)" fill="#1b75bb"/>
          <circle id="XMLID_3043_" cx="0.964" cy="0.964" r="0.964" transform="translate(30.172 24.964) rotate(-45)" fill="#1b75bb"/>
          <ellipse id="XMLID_3042_" cx="0.964" cy="0.964" rx="0.964" ry="0.964" transform="translate(15.877 25.389) rotate(-20.254)" fill="#1b75bb"/>
          <ellipse id="XMLID_3041_" cx="0.964" cy="0.964" rx="0.964" ry="0.964" transform="translate(6.244 30.911)" fill="#1b75bb"/>
          <ellipse id="XMLID_3040_" cx="0.964" cy="0.964" rx="0.964" ry="0.964" transform="translate(10.66 27.877)" fill="#1b75bb"/>
          <circle id="XMLID_3039_" cx="0.964" cy="0.964" r="0.964" transform="translate(20.081 33.803) rotate(-45)" fill="#1b75bb"/>
          <ellipse id="XMLID_3038_" cx="0.964" cy="0.964" rx="0.964" ry="0.964" transform="translate(14.604 30.757) rotate(-22.508)" fill="#1b75bb"/>
          <circle id="XMLID_3037_" cx="0.964" cy="0.964" r="0.964" transform="translate(25.053 27.941) rotate(-45)" fill="#1b75bb"/>
          <ellipse id="XMLID_3036_" cx="0.964" cy="0.964" rx="0.964" ry="0.964" transform="translate(18.087 15.349)" fill="#1b75bb"/>
          <circle id="XMLID_3035_" cx="0.964" cy="0.964" r="0.964" transform="translate(21.103 1.363) rotate(-45)" fill="#1b75bb"/>
        </g>
      </g>
      <g id="XMLID_2929_" transform="translate(0.418 0.26)">
        <g id="XMLID_3005_" transform="translate(2.158 1.35)">
          <ellipse id="XMLID_3032_" cx="0.633" cy="0.633" rx="0.633" ry="0.633" transform="translate(7.804 1.056)" fill="#26a9e0"/>
          <ellipse id="XMLID_3031_" cx="0.633" cy="0.633" rx="0.633" ry="0.633" transform="translate(15.608 0.946)" fill="#26a9e0"/>
          <ellipse id="XMLID_3030_" cx="0.633" cy="0.633" rx="0.633" ry="0.633" transform="translate(19.17)" fill="#26a9e0"/>
          <ellipse id="XMLID_3029_" cx="0.633" cy="0.633" rx="0.633" ry="0.633" transform="translate(22.586 2.203)" fill="#26a9e0"/>
          <ellipse id="XMLID_3028_" cx="0.633" cy="0.633" rx="0.633" ry="0.633" transform="translate(10.632 4.921)" fill="#26a9e0"/>
          <ellipse id="XMLID_3027_" cx="0.633" cy="0.633" rx="0.633" ry="0.633" transform="translate(2.92 7.79)" fill="#26a9e0"/>
          <path id="XMLID_3026_" d="M145.567,209.134a.634.634,0,1,1-.633-.634A.635.635,0,0,1,145.567,209.134Z" transform="translate(-139.361 -196.106)" fill="#26a9e0"/>
          <ellipse id="XMLID_3025_" cx="0.633" cy="0.633" rx="0.633" ry="0.633" transform="translate(9.438 8.438)" fill="#26a9e0"/>
          <ellipse id="XMLID_3024_" cx="0.633" cy="0.633" rx="0.633" ry="0.633" transform="translate(29.325 14.517)" fill="#26a9e0"/>
          <ellipse id="XMLID_3023_" cx="0.633" cy="0.633" rx="0.633" ry="0.633" transform="translate(8.887 17.543)" fill="#26a9e0"/>
          <ellipse id="XMLID_3022_" cx="0.633" cy="0.633" rx="0.633" ry="0.633" transform="translate(0.413 20.212)" fill="#26a9e0"/>
          <ellipse id="XMLID_3021_" cx="0.633" cy="0.633" rx="0.633" ry="0.633" transform="translate(13.689 24.045)" fill="#26a9e0"/>
          <ellipse id="XMLID_3020_" cx="0.633" cy="0.633" rx="0.633" ry="0.633" transform="translate(14.02 27.989)" fill="#26a9e0"/>
          <ellipse id="XMLID_3019_" cx="0.633" cy="0.633" rx="0.633" ry="0.633" transform="translate(18.243 33.498)" fill="#26a9e0"/>
          <ellipse id="XMLID_3018_" cx="0.633" cy="0.633" rx="0.633" ry="0.633" transform="translate(28.388 22.683)" fill="#26a9e0"/>
          <ellipse id="XMLID_3017_" cx="0.633" cy="0.633" rx="0.633" ry="0.633" transform="translate(30.178 19.356)" fill="#26a9e0"/>
          <ellipse id="XMLID_3016_" cx="0.633" cy="0.633" rx="0.633" ry="0.633" transform="translate(17.27 9.453)" fill="#26a9e0"/>
          <ellipse id="XMLID_3015_" cx="0.633" cy="0.633" rx="0.633" ry="0.633" transform="translate(23.963 11.698)" fill="#26a9e0"/>
          <ellipse id="XMLID_3014_" cx="0.633" cy="0.633" rx="0.633" ry="0.633" transform="translate(21.309 7.79)" fill="#26a9e0"/>
          <ellipse id="XMLID_3013_" cx="0.633" cy="0.633" rx="0.633" ry="0.633" transform="translate(29.095 10.712)" fill="#26a9e0"/>
          <ellipse id="XMLID_3012_" cx="0.633" cy="0.633" rx="0.633" ry="0.633" transform="translate(18.537 11.059)" fill="#26a9e0"/>
          <ellipse id="XMLID_3011_" cx="0.633" cy="0.633" rx="0.633" ry="0.633" transform="translate(0 15.391)" fill="#26a9e0"/>
          <ellipse id="XMLID_3010_" cx="0.633" cy="0.633" rx="0.633" ry="0.633" transform="translate(7.547 30.312)" fill="#26a9e0"/>
          <ellipse id="XMLID_3009_" cx="0.633" cy="0.633" rx="0.633" ry="0.633" transform="translate(7.152 20.86)" fill="#26a9e0"/>
          <ellipse id="XMLID_3008_" cx="0.633" cy="0.633" rx="0.633" ry="0.633" transform="translate(6.482 26.563)" fill="#26a9e0"/>
          <ellipse id="XMLID_3007_" cx="0.633" cy="0.633" rx="0.633" ry="0.633" transform="translate(20.024 25.915)" fill="#26a9e0"/>
          <ellipse id="XMLID_3006_" cx="0.633" cy="0.633" rx="0.633" ry="0.633" transform="translate(22.292 23.669)" fill="#26a9e0"/>
        </g>
        <g id="XMLID_2972_">
          <ellipse id="XMLID_3004_" cx="0.633" cy="0.633" rx="0.633" ry="0.633" transform="translate(6.923 7.069)" fill="#00a69c"/>
          <ellipse id="XMLID_3003_" cx="0.633" cy="0.633" rx="0.633" ry="0.633" transform="translate(17.637)" fill="#00a69c"/>
          <ellipse id="XMLID_3002_" cx="0.633" cy="0.633" rx="0.633" ry="0.633" transform="translate(23.146 5.772)" fill="#00a69c"/>
          <ellipse id="XMLID_3001_" cx="0.633" cy="0.633" rx="0.633" ry="0.633" transform="translate(15.635 3.223)" fill="#00a69c"/>
          <ellipse id="XMLID_3000_" cx="0.633" cy="0.633" rx="0.633" ry="0.633" transform="translate(25.083 1.974)" fill="#00a69c"/>
          <ellipse id="XMLID_2999_" cx="0.633" cy="0.633" rx="0.633" ry="0.633" transform="translate(14.167 10.19)" fill="#00a69c"/>
          <ellipse id="XMLID_2998_" cx="0.633" cy="0.633" rx="0.633" ry="0.633" transform="translate(9.659 8.253)" fill="#00a69c"/>
          <ellipse id="XMLID_2997_" cx="0.633" cy="0.633" rx="0.633" ry="0.633" transform="translate(29.655 8.526)" fill="#00a69c"/>
          <ellipse id="XMLID_2996_" cx="0.633" cy="0.633" rx="0.633" ry="0.633" transform="translate(27.718 16.065)" fill="#00a69c"/>
          <ellipse id="XMLID_2995_" cx="0.633" cy="0.633" rx="0.633" ry="0.633" transform="translate(8.006 20.699)" fill="#00a69c"/>
          <ellipse id="XMLID_2994_" cx="0.633" cy="0.633" rx="0.633" ry="0.633" transform="translate(7.731 24.318)" fill="#00a69c"/>
          <ellipse id="XMLID_2993_" cx="0.633" cy="0.633" rx="0.633" ry="0.633" transform="translate(10.797 30.083)" fill="#00a69c"/>
          <ellipse id="XMLID_2992_" cx="0.633" cy="0.633" rx="0.633" ry="0.633" transform="translate(26.12 8.893)" fill="#00a69c"/>
          <ellipse id="XMLID_2991_" cx="0.633" cy="0.633" rx="0.633" ry="0.633" transform="translate(29.242 11.027)" fill="#00a69c"/>
          <ellipse id="XMLID_2990_" cx="0.633" cy="0.633" rx="0.633" ry="0.633" transform="translate(19.225 14.082)" fill="#00a69c"/>
          <ellipse id="XMLID_2989_" cx="0.633" cy="0.633" rx="0.633" ry="0.633" transform="translate(12.872 13.395)" fill="#00a69c"/>
          <ellipse id="XMLID_2988_" cx="0.633" cy="0.633" rx="0.633" ry="0.633" transform="translate(1.937 15.069)" fill="#00a69c"/>
          <ellipse id="XMLID_2987_" cx="0.633" cy="0.633" rx="0.633" ry="0.633" transform="translate(5.757 17.165)" fill="#00a69c"/>
          <ellipse id="XMLID_2986_" cx="0.633" cy="0.633" rx="0.633" ry="0.633" transform="translate(0 18.631)" fill="#00a69c"/>
          <ellipse id="XMLID_2985_" cx="0.633" cy="0.633" rx="0.633" ry="0.633" transform="translate(11.899 23.792)" fill="#00a69c"/>
          <ellipse id="XMLID_2984_" cx="0.633" cy="0.633" rx="0.633" ry="0.633" transform="translate(13.193 20.267)" fill="#00a69c"/>
          <ellipse id="XMLID_2983_" cx="0.633" cy="0.633" rx="0.633" ry="0.633" transform="translate(14.58 24.441)" fill="#00a69c"/>
          <ellipse id="XMLID_2982_" cx="0.633" cy="0.633" rx="0.633" ry="0.633" transform="translate(14.974 32.91)" fill="#00a69c"/>
          <ellipse id="XMLID_2981_" cx="0.633" cy="0.633" rx="0.633" ry="0.633" transform="translate(23.467 32.323)" fill="#00a69c"/>
          <ellipse id="XMLID_2980_" cx="0.633" cy="0.633" rx="0.633" ry="0.633" transform="translate(20.401 29.036)" fill="#00a69c"/>
          <ellipse id="XMLID_2979_" cx="0.633" cy="0.633" rx="0.633" ry="0.633" transform="translate(20.566 24.441)" fill="#00a69c"/>
          <ellipse id="XMLID_2978_" cx="0.633" cy="0.633" rx="0.633" ry="0.633" transform="translate(31.886 18.284)" fill="#00a69c"/>
          <ellipse id="XMLID_2977_" cx="0.633" cy="0.633" rx="0.633" ry="0.633" transform="translate(28.351 20.493)" fill="#00a69c"/>
          <ellipse id="XMLID_2976_" cx="0.633" cy="0.633" rx="0.633" ry="0.633" transform="translate(19.088 18.631)" fill="#00a69c"/>
          <ellipse id="XMLID_2975_" cx="0.633" cy="0.633" rx="0.633" ry="0.633" transform="translate(26.029 17.052)" fill="#00a69c"/>
          <ellipse id="XMLID_2974_" cx="0.633" cy="0.633" rx="0.633" ry="0.633" transform="translate(8.006 11.027)" fill="#00a69c"/>
          <ellipse id="XMLID_2973_" cx="0.633" cy="0.633" rx="0.633" ry="0.633" transform="translate(1.607 10.19)" fill="#00a69c"/>
        </g>
        <g id="XMLID_2930_" transform="translate(0.312 0.239)">
          <ellipse id="XMLID_2971_" cx="0.633" cy="0.633" rx="0.633" ry="0.633" transform="translate(9.016 4.278)" fill="#1b75bb"/>
          <ellipse id="XMLID_2970_" cx="0.633" cy="0.633" rx="0.633" ry="0.633" transform="translate(13.753)" fill="#1b75bb"/>
          <ellipse id="XMLID_2969_" cx="0.633" cy="0.633" rx="0.633" ry="0.633" transform="translate(14.35 7.2)" fill="#1b75bb"/>
          <path id="XMLID_2968_" d="M355.967,92.233a.633.633,0,1,1-.634-.633A.635.635,0,0,1,355.967,92.233Z" transform="translate(-328.598 -89.112)" fill="#1b75bb"/>
          <ellipse id="XMLID_2967_" cx="0.633" cy="0.633" rx="0.633" ry="0.633" transform="translate(28.305 4.278)" fill="#1b75bb"/>
          <ellipse id="XMLID_2966_" cx="0.633" cy="0.633" rx="0.633" ry="0.633" transform="translate(20.033 8.647)" fill="#1b75bb"/>
          <ellipse id="XMLID_2965_" cx="0.633" cy="0.633" rx="0.633" ry="0.633" transform="translate(3.562 13.15)" fill="#1b75bb"/>
          <ellipse id="XMLID_2964_" cx="0.633" cy="0.633" rx="0.633" ry="0.633" transform="translate(3.158 15.349)" fill="#1b75bb"/>
          <path id="XMLID_2963_" d="M138.267,186.633a.633.633,0,1,1-.633-.633A.635.635,0,0,1,138.267,186.633Z" transform="translate(-130.885 -174.58)" fill="#1b75bb"/>
          <ellipse id="XMLID_2962_" cx="0.633" cy="0.633" rx="0.633" ry="0.633" transform="translate(4.765 4.765)" fill="#1b75bb"/>
          <ellipse id="XMLID_2961_" cx="0.633" cy="0.633" rx="0.633" ry="0.633" transform="translate(2.341 11.082)" fill="#1b75bb"/>
          <ellipse id="XMLID_2960_" cx="0.633" cy="0.633" rx="0.633" ry="0.633" transform="translate(9.98 11.552)" fill="#1b75bb"/>
          <ellipse id="XMLID_2959_" cx="0.633" cy="0.633" rx="0.633" ry="0.633" transform="translate(24.771 5.252)" fill="#1b75bb"/>
          <ellipse id="XMLID_2958_" cx="0.633" cy="0.633" rx="0.633" ry="0.633" transform="translate(21.346 16.167)" fill="#1b75bb"/>
          <ellipse id="XMLID_2957_" cx="0.633" cy="0.633" rx="0.633" ry="0.633" transform="translate(16.085 21.101)" fill="#1b75bb"/>
          <ellipse id="XMLID_2956_" cx="0.633" cy="0.633" rx="0.633" ry="0.633" transform="translate(20.088 32.708)" fill="#1b75bb"/>
          <ellipse id="XMLID_2955_" cx="0.633" cy="0.633" rx="0.633" ry="0.633" transform="translate(21.98 23.179)" fill="#1b75bb"/>
          <ellipse id="XMLID_2954_" cx="0.633" cy="0.633" rx="0.633" ry="0.633" transform="translate(31.207 7.801)" fill="#1b75bb"/>
          <ellipse id="XMLID_2953_" cx="0.633" cy="0.633" rx="0.633" ry="0.633" transform="translate(32.538 10.17)" fill="#1b75bb"/>
          <path id="XMLID_2952_" d="M429.667,216.034a.633.633,0,1,1-.633-.633A.635.635,0,0,1,429.667,216.034Z" transform="translate(-395.532 -201.217)" fill="#1b75bb"/>
          <ellipse id="XMLID_2951_" cx="0.633" cy="0.633" rx="0.633" ry="0.633" transform="translate(20.088 4.728)" fill="#1b75bb"/>
          <ellipse id="XMLID_2950_" cx="0.633" cy="0.633" rx="0.633" ry="0.633" transform="translate(28.709 14.823)" fill="#1b75bb"/>
          <ellipse id="XMLID_2949_" cx="0.633" cy="0.633" rx="0.633" ry="0.633" transform="translate(22.521 11.852)" fill="#1b75bb"/>
          <ellipse id="XMLID_2948_" cx="0.633" cy="0.633" rx="0.633" ry="0.633" transform="translate(15.865 10.781)" fill="#1b75bb"/>
          <ellipse id="XMLID_2947_" cx="0.633" cy="0.633" rx="0.633" ry="0.633" transform="translate(9.631 15.18)" fill="#1b75bb"/>
          <ellipse id="XMLID_2946_" cx="0.633" cy="0.633" rx="0.633" ry="0.633" transform="translate(8.548 19.034)" fill="#1b75bb"/>
          <ellipse id="XMLID_2945_" cx="0.633" cy="0.633" rx="0.633" ry="0.633" transform="translate(5.977 20.575)" fill="#1b75bb"/>
          <ellipse id="XMLID_2944_" cx="0.633" cy="0.633" rx="0.633" ry="0.633" transform="translate(3.562 19.259)" fill="#1b75bb"/>
          <ellipse id="XMLID_2943_" cx="0.633" cy="0.633" rx="0.633" ry="0.633" transform="translate(4.196 23.545)" fill="#1b75bb"/>
          <ellipse id="XMLID_2942_" cx="0.633" cy="0.633" rx="0.633" ry="0.633" transform="translate(10.742 25.378)" fill="#1b75bb"/>
          <ellipse id="XMLID_2941_" cx="0.633" cy="0.633" rx="0.633" ry="0.633" transform="translate(6.904 29.265)" fill="#1b75bb"/>
          <path id="XMLID_2940_" d="M365.067,300.334a.634.634,0,1,1-.634-.634A.635.635,0,0,1,365.067,300.334Z" transform="translate(-336.863 -277.593)" fill="#1b75bb"/>
          <ellipse id="XMLID_2939_" cx="0.633" cy="0.633" rx="0.633" ry="0.633" transform="translate(14.901 16.533)" fill="#1b75bb"/>
          <ellipse id="XMLID_2938_" cx="0.633" cy="0.633" rx="0.633" ry="0.633" transform="translate(14.029 29.1)" fill="#1b75bb"/>
          <ellipse id="XMLID_2937_" cx="0.633" cy="0.633" rx="0.633" ry="0.633" transform="translate(9.19 33.057)" fill="#1b75bb"/>
          <ellipse id="XMLID_2936_" cx="0.633" cy="0.633" rx="0.633" ry="0.633" transform="translate(22.834 28.476)" fill="#1b75bb"/>
          <ellipse id="XMLID_2935_" cx="0.633" cy="0.633" rx="0.633" ry="0.633" transform="translate(26.974 25.688)" fill="#1b75bb"/>
          <ellipse id="XMLID_2934_" cx="0.633" cy="0.633" rx="0.633" ry="0.633" transform="translate(31.207 26.797)" fill="#1b75bb"/>
          <ellipse id="XMLID_2933_" cx="0.633" cy="0.633" rx="0.633" ry="0.633" transform="translate(33.502 21.355)" fill="#1b75bb"/>
          <ellipse id="XMLID_2932_" cx="0.633" cy="0.633" rx="0.633" ry="0.633" transform="translate(25.083 18.385)" fill="#1b75bb"/>
          <ellipse id="XMLID_2931_" cx="0.633" cy="0.633" rx="0.633" ry="0.633" transform="translate(0 14.202)" fill="#1b75bb"/>
        </g>
      </g>
      <g id="XMLID_2658_" transform="translate(0.757 0.388)">
        <g id="XMLID_2851_">
          <path id="XMLID_2928_" d="M183.006,125.6a.3.3,0,1,1-.3-.3A.306.306,0,0,1,183.006,125.6Z" transform="translate(-172.145 -119.608)" fill="#00a69c"/>
          <ellipse id="XMLID_2927_" cx="0.303" cy="0.303" rx="0.303" ry="0.303" transform="translate(11.431 3.122)" fill="#00a69c"/>
          <ellipse id="XMLID_2926_" cx="0.303" cy="0.303" rx="0.303" ry="0.303" transform="translate(5.784 4.196)" fill="#00a69c"/>
          <ellipse id="XMLID_2925_" cx="0.303" cy="0.303" rx="0.303" ry="0.303" transform="translate(3.268 7.019)" fill="#00a69c"/>
          <path id="XMLID_2924_" d="M110.306,174.2a.3.3,0,1,1-.3-.3A.306.306,0,0,1,110.306,174.2Z" transform="translate(-106.119 -163.522)" fill="#00a69c"/>
          <ellipse id="XMLID_2923_" cx="0.303" cy="0.303" rx="0.303" ry="0.303" transform="translate(6.151 10.012)" fill="#00a69c"/>
          <ellipse id="XMLID_2922_" cx="0.303" cy="0.303" rx="0.303" ry="0.303" transform="translate(3.957 14.704)" fill="#00a69c"/>
          <ellipse id="XMLID_2921_" cx="0.303" cy="0.303" rx="0.303" ry="0.303" transform="translate(5.922 16.159)" fill="#00a69c"/>
          <path id="XMLID_2920_" d="M158.406,221.1a.3.3,0,1,1-.3-.3A.306.306,0,0,1,158.406,221.1Z" transform="translate(-149.803 -206.021)" fill="#00a69c"/>
          <path id="XMLID_2919_" d="M126.506,270.9a.3.3,0,1,1-.3-.3A.294.294,0,0,1,126.506,270.9Z" transform="translate(-120.832 -251.143)" fill="#00a69c"/>
          <ellipse id="XMLID_2918_" cx="0.303" cy="0.303" rx="0.303" ry="0.303" transform="translate(5.747 19.987)" fill="#00a69c"/>
          <path id="XMLID_2917_" d="M96.506,313a.3.3,0,1,1-.3-.3A.306.306,0,0,1,96.506,313Z" transform="translate(-93.586 -289.297)" fill="#00a69c"/>
          <ellipse id="XMLID_2916_" cx="0.303" cy="0.303" rx="0.303" ry="0.303" transform="translate(3.865 26.096)" fill="#00a69c"/>
          <ellipse id="XMLID_2915_" cx="0.303" cy="0.303" rx="0.303" ry="0.303" transform="translate(5.444 23.253)" fill="#00a69c"/>
          <path id="XMLID_2914_" d="M125.506,357.7a.3.3,0,1,1-.3-.3A.3.3,0,0,1,125.506,357.7Z" transform="translate(-119.924 -329.803)" fill="#00a69c"/>
          <path id="XMLID_2913_" d="M151.706,390.9a.3.3,0,1,1-.3-.3A.306.306,0,0,1,151.706,390.9Z" transform="translate(-143.718 -359.783)" fill="#00a69c"/>
          <ellipse id="XMLID_2912_" cx="0.303" cy="0.303" rx="0.303" ry="0.303" transform="translate(16.802 24.82)" fill="#00a69c"/>
          <ellipse id="XMLID_2911_" cx="0.303" cy="0.303" rx="0.303" ry="0.303" transform="translate(18.748 24.951)" fill="#00a69c"/>
          <ellipse id="XMLID_2910_" cx="0.303" cy="0.303" rx="0.303" ry="0.303" transform="translate(18.766 27.775)" fill="#00a69c"/>
          <ellipse id="XMLID_2909_" cx="0.303" cy="0.303" rx="0.303" ry="0.303" transform="translate(17.674 27.775)" fill="#00a69c"/>
          <path id="XMLID_2908_" d="M310.506,370.4a.3.3,0,1,1-.3-.3A.306.306,0,0,1,310.506,370.4Z" transform="translate(-287.939 -341.311)" fill="#00a69c"/>
          <ellipse id="XMLID_2907_" cx="0.303" cy="0.303" rx="0.303" ry="0.303" transform="translate(25.781 22.624)" fill="#00a69c"/>
          <path id="XMLID_2906_" d="M201.906,354.4a.3.3,0,1,1-.3-.3A.289.289,0,0,1,201.906,354.4Z" transform="translate(-189.309 -326.808)" fill="#00a69c"/>
          <circle id="XMLID_2905_" cx="0.401" cy="0.401" r="0.401" transform="translate(11.786 33.871)" fill="#00a69c"/>
          <path id="XMLID_2904_" d="M236.906,385.6a.3.3,0,1,1-.3-.3A.306.306,0,0,1,236.906,385.6Z" transform="translate(-221.096 -354.97)" fill="#00a69c"/>
          <path id="XMLID_2903_" d="M302.106,401.4a.3.3,0,1,1-.3-.3A.306.306,0,0,1,302.106,401.4Z" transform="translate(-280.31 -369.319)" fill="#00a69c"/>
          <path id="XMLID_2902_" d="M326.806,395.4a.3.3,0,1,1-.3-.3A.306.306,0,0,1,326.806,395.4Z" transform="translate(-302.742 -363.87)" fill="#00a69c"/>
          <ellipse id="XMLID_2901_" cx="0.303" cy="0.303" rx="0.303" ry="0.303" transform="translate(26.093 26.818)" fill="#00a69c"/>
          <ellipse id="XMLID_2900_" cx="0.303" cy="0.303" rx="0.303" ry="0.303" transform="translate(29.012 29.541)" fill="#00a69c"/>
          <ellipse id="XMLID_2899_" cx="0.303" cy="0.303" rx="0.303" ry="0.303" transform="translate(30.307 26.969)" fill="#00a69c"/>
          <ellipse id="XMLID_2898_" cx="0.303" cy="0.303" rx="0.303" ry="0.303" transform="translate(27.874 24.885)" fill="#00a69c"/>
          <path id="XMLID_2897_" d="M390.706,291.6a.3.3,0,1,1-.3-.3A.306.306,0,0,1,390.706,291.6Z" transform="translate(-360.775 -269.905)" fill="#00a69c"/>
          <ellipse id="XMLID_2896_" cx="0.303" cy="0.303" rx="0.303" ry="0.303" transform="translate(33.805 23.009)" fill="#00a69c"/>
          <path id="XMLID_2895_" d="M373.106,403.9a.3.3,0,1,1-.3-.3A.306.306,0,0,1,373.106,403.9Z" transform="translate(-344.791 -371.589)" fill="#00a69c"/>
          <ellipse id="XMLID_2894_" cx="0.303" cy="0.303" rx="0.303" ry="0.303" transform="translate(17.371 32.975)" fill="#00a69c"/>
          <path id="XMLID_2893_" d="M276.806,442.5a.3.3,0,1,1-.3-.3A.306.306,0,0,1,276.806,442.5Z" transform="translate(-257.333 -406.646)" fill="#00a69c"/>
          <ellipse id="XMLID_2892_" cx="0.303" cy="0.303" rx="0.303" ry="0.303" transform="translate(2.011 18.157)" fill="#00a69c"/>
          <path id="XMLID_2891_" d="M71.306,287.3a.3.3,0,1,1-.3-.3A.306.306,0,0,1,71.306,287.3Z" transform="translate(-70.7 -266.009)" fill="#00a69c"/>
          <ellipse id="XMLID_2890_" cx="0.303" cy="0.303" rx="0.303" ry="0.303" transform="translate(17.398 11.026)" fill="#00a69c"/>
          <path id="XMLID_2889_" d="M248.706,198.5a.3.3,0,1,1-.3-.3A.306.306,0,0,1,248.706,198.5Z" transform="translate(-231.813 -185.542)" fill="#00a69c"/>
          <ellipse id="XMLID_2888_" cx="0.303" cy="0.303" rx="0.303" ry="0.303" transform="translate(16.287 16.309)" fill="#00a69c"/>
          <path id="XMLID_2887_" d="M282.906,198.5a.3.3,0,1,1-.3-.3A.306.306,0,0,1,282.906,198.5Z" transform="translate(-262.873 -185.542)" fill="#00a69c"/>
          <ellipse id="XMLID_2886_" cx="0.303" cy="0.303" rx="0.303" ry="0.303" transform="translate(22.916 15.014)" fill="#00a69c"/>
          <path id="XMLID_2885_" d="M299.406,251.1a.3.3,0,1,1-.3-.3A.294.294,0,0,1,299.406,251.1Z" transform="translate(-277.858 -233.201)" fill="#00a69c"/>
          <ellipse id="XMLID_2884_" cx="0.303" cy="0.303" rx="0.303" ry="0.303" transform="translate(18.583 17.604)" fill="#00a69c"/>
          <path id="XMLID_2883_" d="M227.506,264.4a.3.3,0,1,1-.3-.3A.3.3,0,0,1,227.506,264.4Z" transform="translate(-212.559 -245.258)" fill="#00a69c"/>
          <path id="XMLID_2882_" d="M296.606,281.4a.3.3,0,1,1-.3-.3A.306.306,0,0,1,296.606,281.4Z" transform="translate(-275.315 -260.663)" fill="#00a69c"/>
          <path id="XMLID_2881_" d="M310.506,281.4a.3.3,0,1,1-.3-.3A.306.306,0,0,1,310.506,281.4Z" transform="translate(-287.939 -260.663)" fill="#00a69c"/>
          <path id="XMLID_2880_" d="M262.006,299.8a.3.3,0,1,1-.3-.3A.306.306,0,0,1,262.006,299.8Z" transform="translate(-243.892 -277.336)" fill="#00a69c"/>
          <ellipse id="XMLID_2879_" cx="0.303" cy="0.303" rx="0.303" ry="0.303" transform="translate(15.204 21.986)" fill="#00a69c"/>
          <ellipse id="XMLID_2878_" cx="0.303" cy="0.303" rx="0.303" ry="0.303" transform="translate(24.954 19.987)" fill="#00a69c"/>
          <path id="XMLID_2877_" d="M358.906,270a.3.3,0,1,1-.3-.3A.306.306,0,0,1,358.906,270Z" transform="translate(-331.895 -250.332)" fill="#00a69c"/>
          <path id="XMLID_2876_" d="M227.506,253.8a.3.3,0,1,1-.3-.3A.306.306,0,0,1,227.506,253.8Z" transform="translate(-212.559 -235.652)" fill="#00a69c"/>
          <ellipse id="XMLID_2875_" cx="0.303" cy="0.303" rx="0.303" ry="0.303" transform="translate(14.69 1.377)" fill="#00a69c"/>
          <ellipse id="XMLID_2874_" cx="0.303" cy="0.303" rx="0.303" ry="0.303" transform="translate(15.204)" fill="#00a69c"/>
          <ellipse id="XMLID_2873_" cx="0.303" cy="0.303" rx="0.303" ry="0.303" transform="translate(22.016 0.615)" fill="#00a69c"/>
          <ellipse id="XMLID_2872_" cx="0.303" cy="0.303" rx="0.303" ry="0.303" transform="translate(20.3 1.809)" fill="#00a69c"/>
          <ellipse id="XMLID_2871_" cx="0.303" cy="0.303" rx="0.303" ry="0.303" transform="translate(19.078 2.112)" fill="#00a69c"/>
          <ellipse id="XMLID_2870_" cx="0.303" cy="0.303" rx="0.303" ry="0.303" transform="translate(16.388 4.719)" fill="#00a69c"/>
          <ellipse id="XMLID_2869_" cx="0.303" cy="0.303" rx="0.303" ry="0.303" transform="translate(13.937 6.709)" fill="#00a69c"/>
          <ellipse id="XMLID_2868_" cx="0.303" cy="0.303" rx="0.303" ry="0.303" transform="translate(19.519 4.535)" fill="#00a69c"/>
          <ellipse id="XMLID_2867_" cx="0.303" cy="0.303" rx="0.303" ry="0.303" transform="translate(23.458 3.122)" fill="#00a69c"/>
          <ellipse id="XMLID_2866_" cx="0.303" cy="0.303" rx="0.303" ry="0.303" transform="translate(28.388 5.839)" fill="#00a69c"/>
          <ellipse id="XMLID_2865_" cx="0.303" cy="0.303" rx="0.303" ry="0.303" transform="translate(26.019 6.298)" fill="#00a69c"/>
          <ellipse id="XMLID_2864_" cx="0.303" cy="0.303" rx="0.303" ry="0.303" transform="translate(20.97 6.298)" fill="#00a69c"/>
          <ellipse id="XMLID_2863_" cx="0.303" cy="0.303" rx="0.303" ry="0.303" transform="translate(22.329 9.215)" fill="#00a69c"/>
          <ellipse id="XMLID_2862_" cx="0.303" cy="0.303" rx="0.303" ry="0.303" transform="translate(23.458 8.239)" fill="#00a69c"/>
          <ellipse id="XMLID_2861_" cx="0.303" cy="0.303" rx="0.303" ry="0.303" transform="translate(25.716 10.378)" fill="#00a69c"/>
          <path id="XMLID_2860_" d="M322.706,175.8a.3.3,0,1,1-.3-.3A.3.3,0,0,1,322.706,175.8Z" transform="translate(-299.019 -164.972)" fill="#00a69c"/>
          <ellipse id="XMLID_2859_" cx="0.303" cy="0.303" rx="0.303" ry="0.303" transform="translate(32.51 9.233)" fill="#00a69c"/>
          <path id="XMLID_2858_" d="M401.106,189.1a.3.3,0,1,1-.3-.3A.3.3,0,0,1,401.106,189.1Z" transform="translate(-370.221 -177.024)" fill="#00a69c"/>
          <path id="XMLID_2857_" d="M445.006,219.9a.3.3,0,1,1-.3-.3A.306.306,0,0,1,445.006,219.9Z" transform="translate(-410.09 -204.933)" fill="#00a69c"/>
          <ellipse id="XMLID_2856_" cx="0.303" cy="0.303" rx="0.303" ry="0.303" transform="translate(30.279 15.755)" fill="#00a69c"/>
          <ellipse id="XMLID_2855_" cx="0.303" cy="0.303" rx="0.303" ry="0.303" transform="translate(22.512 13.456)" fill="#00a69c"/>
          <ellipse id="XMLID_2854_" cx="0.303" cy="0.303" rx="0.303" ry="0.303" transform="translate(34.613 18.157)" fill="#00a69c"/>
          <path id="XMLID_2853_" d="M274.406,128.9a.3.3,0,1,1-.3-.3A.306.306,0,0,1,274.406,128.9Z" transform="translate(-255.153 -122.605)" fill="#00a69c"/>
          <ellipse id="XMLID_2852_" cx="0.303" cy="0.303" rx="0.303" ry="0.303" transform="translate(12.477 0.514)" fill="#00a69c"/>
        </g>
        <g id="XMLID_2764_" transform="translate(0.496 0.303)">
          <ellipse id="XMLID_2850_" cx="0.303" cy="0.303" rx="0.303" ry="0.303" transform="translate(12.468 3.792)" fill="#1b75bb"/>
          <path id="XMLID_2849_" d="M206.406,98.8a.3.3,0,1,1-.3-.3A.3.3,0,0,1,206.406,98.8Z" transform="translate(-193.892 -95.571)" fill="#1b75bb"/>
          <ellipse id="XMLID_2848_" cx="0.303" cy="0.303" rx="0.303" ry="0.303" transform="translate(3.507 5.692)" fill="#1b75bb"/>
          <ellipse id="XMLID_2847_" cx="0.303" cy="0.303" rx="0.303" ry="0.303" transform="translate(3.507 9.317)" fill="#1b75bb"/>
          <ellipse id="XMLID_2846_" cx="0.303" cy="0.303" rx="0.303" ry="0.303" transform="translate(4.985 10.228)" fill="#1b75bb"/>
          <ellipse id="XMLID_2845_" cx="0.303" cy="0.303" rx="0.303" ry="0.303" transform="translate(5.444 12.811)" fill="#1b75bb"/>
          <ellipse id="XMLID_2844_" cx="0.303" cy="0.303" rx="0.303" ry="0.303" transform="translate(8.52 11.365)" fill="#1b75bb"/>
          <path id="XMLID_2843_" d="M78.106,189.9a.3.3,0,1,1-.3-.3A.306.306,0,0,1,78.106,189.9Z" transform="translate(-77.371 -178.047)" fill="#1b75bb"/>
          <path id="XMLID_2842_" d="M77.106,198.5a.3.3,0,1,1-.3-.3A.306.306,0,0,1,77.106,198.5Z" transform="translate(-76.463 -185.839)" fill="#1b75bb"/>
          <path id="XMLID_2841_" d="M103.606,219.1a.3.3,0,1,1-.3-.3A.3.3,0,0,1,103.606,219.1Z" transform="translate(-100.53 -204.505)" fill="#1b75bb"/>
          <path id="XMLID_2840_" d="M169.506,221.1a.3.3,0,1,1-.3-.3A.306.306,0,0,1,169.506,221.1Z" transform="translate(-160.38 -206.317)" fill="#1b75bb"/>
          <ellipse id="XMLID_2839_" cx="0.303" cy="0.303" rx="0.303" ry="0.303" transform="translate(7.804 17.179)" fill="#1b75bb"/>
          <ellipse id="XMLID_2838_" cx="0.303" cy="0.303" rx="0.303" ry="0.303" transform="translate(4.903 18.165)" fill="#1b75bb"/>
          <path id="XMLID_2837_" d="M125.506,281.4a.3.3,0,1,1-.3-.3A.306.306,0,0,1,125.506,281.4Z" transform="translate(-120.42 -260.953)" fill="#1b75bb"/>
          <ellipse id="XMLID_2836_" cx="0.303" cy="0.303" rx="0.303" ry="0.303" transform="translate(2.736 22.655)" fill="#1b75bb"/>
          <ellipse id="XMLID_2835_" cx="0.303" cy="0.303" rx="0.303" ry="0.303" transform="translate(1.019 25.247)" fill="#1b75bb"/>
          <path id="XMLID_2834_" d="M125.506,345.6a.3.3,0,1,1-.3-.3A.306.306,0,0,1,125.506,345.6Z" transform="translate(-120.42 -319.123)" fill="#1b75bb"/>
          <path id="XMLID_2833_" d="M139.706,316.3a.3.3,0,1,1-.3-.3A.306.306,0,0,1,139.706,316.3Z" transform="translate(-133.316 -292.575)" fill="#1b75bb"/>
          <path id="XMLID_2832_" d="M125.506,368.2a.3.3,0,1,1-.3-.3A.306.306,0,0,1,125.506,368.2Z" transform="translate(-120.42 -339.47)" fill="#1b75bb"/>
          <ellipse id="XMLID_2831_" cx="0.303" cy="0.303" rx="0.303" ry="0.303" transform="translate(17.288 24.317)" fill="#1b75bb"/>
          <ellipse id="XMLID_2830_" cx="0.303" cy="0.303" rx="0.303" ry="0.303" transform="translate(19.225 25.247)" fill="#1b75bb"/>
          <ellipse id="XMLID_2829_" cx="0.303" cy="0.303" rx="0.303" ry="0.303" transform="translate(15.966 26.431)" fill="#1b75bb"/>
          <ellipse id="XMLID_2828_" cx="0.303" cy="0.303" rx="0.303" ry="0.303" transform="translate(19.023 28.127)" fill="#1b75bb"/>
          <path id="XMLID_2827_" d="M317.306,290.7a.3.3,0,1,1-.3-.3A.3.3,0,0,1,317.306,290.7Z" transform="translate(-294.61 -269.38)" fill="#1b75bb"/>
          <path id="XMLID_2826_" d="M327.706,292.5a.3.3,0,1,1-.3-.3A.306.306,0,0,1,327.706,292.5Z" transform="translate(-304.055 -271.01)" fill="#1b75bb"/>
          <ellipse id="XMLID_2825_" cx="0.303" cy="0.303" rx="0.303" ry="0.303" transform="translate(13.175 28.127)" fill="#1b75bb"/>
          <path id="XMLID_2824_" d="M204.106,390.9a.3.3,0,1,1-.3-.3A.3.3,0,0,1,204.106,390.9Z" transform="translate(-191.803 -360.086)" fill="#1b75bb"/>
          <ellipse id="XMLID_2823_" cx="0.303" cy="0.303" rx="0.303" ry="0.303" transform="translate(17.609 31.781)" fill="#1b75bb"/>
          <path id="XMLID_2822_" d="M308.706,411.1a.3.3,0,1,1-.3-.3A.306.306,0,0,1,308.706,411.1Z" transform="translate(-286.8 -378.431)" fill="#1b75bb"/>
          <ellipse id="XMLID_2821_" cx="0.303" cy="0.303" rx="0.303" ry="0.303" transform="translate(20.189 29.982)" fill="#1b75bb"/>
          <path id="XMLID_2820_" d="M348.806,370.1a.3.3,0,1,1-.3-.3A.289.289,0,0,1,348.806,370.1Z" transform="translate(-323.218 -341.191)" fill="#1b75bb"/>
          <path id="XMLID_2819_" d="M351.206,338.4a.3.3,0,1,1-.3-.3A.294.294,0,0,1,351.206,338.4Z" transform="translate(-325.398 -312.599)" fill="#1b75bb"/>
          <path id="XMLID_2818_" d="M355.706,394.2a.3.3,0,1,1-.3-.3A.306.306,0,0,1,355.706,394.2Z" transform="translate(-329.485 -363.083)" fill="#1b75bb"/>
          <path id="XMLID_2817_" d="M331.006,423.4a.3.3,0,1,1-.3-.3A.306.306,0,0,1,331.006,423.4Z" transform="translate(-307.052 -389.602)" fill="#1b75bb"/>
          <path id="XMLID_2816_" d="M382.706,364.9a.3.3,0,1,1-.3-.3A.306.306,0,0,1,382.706,364.9Z" transform="translate(-354.006 -336.473)" fill="#1b75bb"/>
          <path id="XMLID_2815_" d="M379.406,352.7a.3.3,0,1,1-.3-.3A.306.306,0,0,1,379.406,352.7Z" transform="translate(-351.009 -325.556)" fill="#1b75bb"/>
          <ellipse id="XMLID_2814_" cx="0.303" cy="0.303" rx="0.303" ry="0.303" transform="translate(29.811 21.791)" fill="#1b75bb"/>
          <ellipse id="XMLID_2813_" cx="0.303" cy="0.303" rx="0.303" ry="0.303" transform="translate(30.114 22.721)" fill="#1b75bb"/>
          <ellipse id="XMLID_2812_" cx="0.303" cy="0.303" rx="0.303" ry="0.303" transform="translate(30.895 21.415)" fill="#1b75bb"/>
          <path id="XMLID_2811_" d="M435.906,321.1a.3.3,0,1,1-.3-.3A.306.306,0,0,1,435.906,321.1Z" transform="translate(-402.321 -296.924)" fill="#1b75bb"/>
          <path id="XMLID_2810_" d="M386.006,324.4a.3.3,0,1,1-.3-.3A.306.306,0,0,1,386.006,324.4Z" transform="translate(-357.003 -299.914)" fill="#1b75bb"/>
          <ellipse id="XMLID_2809_" cx="0.303" cy="0.303" rx="0.303" ry="0.303" transform="translate(15.893 32.791)" fill="#1b75bb"/>
          <path id="XMLID_2808_" d="M232.506,429.8a.3.3,0,1,1-.3-.3A.294.294,0,0,1,232.506,429.8Z" transform="translate(-217.596 -395.41)" fill="#1b75bb"/>
          <ellipse id="XMLID_2807_" cx="0.303" cy="0.303" rx="0.303" ry="0.303" transform="translate(2.286 18.475)" fill="#1b75bb"/>
          <path id="XMLID_2806_" d="M76.706,277a.3.3,0,1,1-.3-.3A.3.3,0,0,1,76.706,277Z" transform="translate(-76.1 -256.966)" fill="#1b75bb"/>
          <ellipse id="XMLID_2805_" cx="0.303" cy="0.303" rx="0.303" ry="0.303" transform="translate(10.54 8.604)" fill="#1b75bb"/>
          <path id="XMLID_2804_" d="M252.006,208.7a.3.3,0,1,1-.3-.3A.306.306,0,0,1,252.006,208.7Z" transform="translate(-235.305 -195.081)" fill="#1b75bb"/>
          <ellipse id="XMLID_2803_" cx="0.303" cy="0.303" rx="0.303" ry="0.303" transform="translate(15.039 13.694)" fill="#1b75bb"/>
          <path id="XMLID_2802_" d="M197.506,250.9a.3.3,0,1,1-.3-.3A.306.306,0,0,1,197.506,250.9Z" transform="translate(-185.809 -233.318)" fill="#1b75bb"/>
          <path id="XMLID_2801_" d="M268.506,239.2a.3.3,0,1,1-.3-.3A.306.306,0,0,1,268.506,239.2Z" transform="translate(-250.291 -222.717)" fill="#1b75bb"/>
          <ellipse id="XMLID_2800_" cx="0.303" cy="0.303" rx="0.303" ry="0.303" transform="translate(21.328 12.699)" fill="#1b75bb"/>
          <ellipse id="XMLID_2799_" cx="0.303" cy="0.303" rx="0.303" ry="0.303" transform="translate(19.556 14.831)" fill="#1b75bb"/>
          <path id="XMLID_2798_" d="M330.206,229.9a.3.3,0,1,1-.3-.3A.294.294,0,0,1,330.206,229.9Z" transform="translate(-306.326 -214.286)" fill="#1b75bb"/>
          <path id="XMLID_2797_" d="M343.206,252.7a.3.3,0,1,1-.3-.3A.306.306,0,0,1,343.206,252.7Z" transform="translate(-318.132 -234.949)" fill="#1b75bb"/>
          <path id="XMLID_2796_" d="M317.806,262.9a.3.3,0,1,1-.3-.3A.306.306,0,0,1,317.806,262.9Z" transform="translate(-295.064 -244.191)" fill="#1b75bb"/>
          <ellipse id="XMLID_2795_" cx="0.303" cy="0.303" rx="0.303" ry="0.303" transform="translate(17.306 18.813)" fill="#1b75bb"/>
          <ellipse id="XMLID_2794_" cx="0.303" cy="0.303" rx="0.303" ry="0.303" transform="translate(16.196 19.715)" fill="#1b75bb"/>
          <path id="XMLID_2793_" d="M285.906,288.3a.3.3,0,1,1-.3-.3A.294.294,0,0,1,285.906,288.3Z" transform="translate(-266.093 -267.205)" fill="#1b75bb"/>
          <ellipse id="XMLID_2792_" cx="0.303" cy="0.303" rx="0.303" ry="0.303" transform="translate(19.023 21.697)" fill="#1b75bb"/>
          <ellipse id="XMLID_2791_" cx="0.303" cy="0.303" rx="0.303" ry="0.303" transform="translate(13.836 21.011)" fill="#1b75bb"/>
          <ellipse id="XMLID_2790_" cx="0.303" cy="0.303" rx="0.303" ry="0.303" transform="translate(9.457 19.386)" fill="#1b75bb"/>
          <ellipse id="XMLID_2789_" cx="0.303" cy="0.303" rx="0.303" ry="0.303" transform="translate(10.072 22.354)" fill="#1b75bb"/>
          <ellipse id="XMLID_2788_" cx="0.303" cy="0.303" rx="0.303" ry="0.303" transform="translate(17.738 10.538)" fill="#1b75bb"/>
          <ellipse id="XMLID_2787_" cx="0.303" cy="0.303" rx="0.303" ry="0.303" transform="translate(12.587 0.909)" fill="#1b75bb"/>
          <ellipse id="XMLID_2786_" cx="0.303" cy="0.303" rx="0.303" ry="0.303" transform="translate(20.41)" fill="#1b75bb"/>
          <ellipse id="XMLID_2785_" cx="0.303" cy="0.303" rx="0.303" ry="0.303" transform="translate(17.609 0.973)" fill="#1b75bb"/>
          <path id="XMLID_2784_" d="M253.206,106.1a.3.3,0,1,1-.3-.3A.306.306,0,0,1,253.206,106.1Z" transform="translate(-236.395 -102.201)" fill="#1b75bb"/>
          <path id="XMLID_2783_" d="M333.706,93.2a.3.3,0,1,1-.3-.3A.306.306,0,0,1,333.706,93.2Z" transform="translate(-309.504 -90.485)" fill="#1b75bb"/>
          <path id="XMLID_2782_" d="M386.006,145.5a.3.3,0,1,1-.3-.3A.306.306,0,0,1,386.006,145.5Z" transform="translate(-357.003 -137.817)" fill="#1b75bb"/>
          <ellipse id="XMLID_2781_" cx="0.303" cy="0.303" rx="0.303" ry="0.303" transform="translate(24.238 9.768)" fill="#1b75bb"/>
          <path id="XMLID_2780_" d="M331.906,174.2a.3.3,0,1,1-.3-.3A.306.306,0,0,1,331.906,174.2Z" transform="translate(-307.87 -163.822)" fill="#1b75bb"/>
          <path id="XMLID_2779_" d="M326.006,184.4a.3.3,0,1,1-.3-.3A.294.294,0,0,1,326.006,184.4Z" transform="translate(-302.511 -173.064)" fill="#1b75bb"/>
          <ellipse id="XMLID_2778_" cx="0.303" cy="0.303" rx="0.303" ry="0.303" transform="translate(29.609 12.501)" fill="#1b75bb"/>
          <ellipse id="XMLID_2777_" cx="0.303" cy="0.303" rx="0.303" ry="0.303" transform="translate(33.649 13.469)" fill="#1b75bb"/>
          <ellipse id="XMLID_2776_" cx="0.303" cy="0.303" rx="0.303" ry="0.303" transform="translate(31.95 15.15)" fill="#1b75bb"/>
          <ellipse id="XMLID_2775_" cx="0.303" cy="0.303" rx="0.303" ry="0.303" transform="translate(26.745 13.779)" fill="#1b75bb"/>
          <ellipse id="XMLID_2774_" cx="0.303" cy="0.303" rx="0.303" ry="0.303" transform="translate(31.198 16.944)" fill="#1b75bb"/>
          <ellipse id="XMLID_2773_" cx="0.303" cy="0.303" rx="0.303" ry="0.303" transform="translate(34.117 16.662)" fill="#1b75bb"/>
          <ellipse id="XMLID_2772_" cx="0.303" cy="0.303" rx="0.303" ry="0.303" transform="translate(28.829 18.513)" fill="#1b75bb"/>
          <ellipse id="XMLID_2771_" cx="0.303" cy="0.303" rx="0.303" ry="0.303" transform="translate(28.397 19.386)" fill="#1b75bb"/>
          <ellipse id="XMLID_2770_" cx="0.303" cy="0.303" rx="0.303" ry="0.303" transform="translate(21.521 5.802)" fill="#1b75bb"/>
          <ellipse id="XMLID_2769_" cx="0.303" cy="0.303" rx="0.303" ry="0.303" transform="translate(17.306 5.49)" fill="#1b75bb"/>
          <ellipse id="XMLID_2768_" cx="0.303" cy="0.303" rx="0.303" ry="0.303" transform="translate(18.638 5.031)" fill="#1b75bb"/>
          <path id="XMLID_2767_" d="M271.106,145a.3.3,0,1,1-.3-.3A.3.3,0,0,1,271.106,145Z" transform="translate(-252.652 -137.364)" fill="#1b75bb"/>
          <path id="XMLID_2766_" d="M261.906,145.9a.3.3,0,1,1-.3-.3A.306.306,0,0,1,261.906,145.9Z" transform="translate(-244.297 -138.18)" fill="#1b75bb"/>
          <ellipse id="XMLID_2765_" cx="0.303" cy="0.303" rx="0.303" ry="0.303" transform="translate(9.457 1.074)" fill="#1b75bb"/>
        </g>
        <g id="XMLID_2659_" transform="translate(0.193)">
          <ellipse id="XMLID_2763_" cx="0.303" cy="0.303" rx="0.303" ry="0.303" transform="translate(12.587 5.206)" fill="#26a9e0"/>
          <ellipse id="XMLID_2762_" cx="0.303" cy="0.303" rx="0.303" ry="0.303" transform="translate(9.925 3.792)" fill="#26a9e0"/>
          <ellipse id="XMLID_2761_" cx="0.303" cy="0.303" rx="0.303" ry="0.303" transform="translate(6.262 3.709)" fill="#26a9e0"/>
          <ellipse id="XMLID_2760_" cx="0.303" cy="0.303" rx="0.303" ry="0.303" transform="translate(5.894 8.446)" fill="#26a9e0"/>
          <ellipse id="XMLID_2759_" cx="0.303" cy="0.303" rx="0.303" ry="0.303" transform="translate(2.589 10.22)" fill="#26a9e0"/>
          <ellipse id="XMLID_2758_" cx="0.303" cy="0.303" rx="0.303" ry="0.303" transform="translate(6.721 10.689)" fill="#26a9e0"/>
          <ellipse id="XMLID_2757_" cx="0.303" cy="0.303" rx="0.303" ry="0.303" transform="translate(5.959 10.839)" fill="#26a9e0"/>
          <ellipse id="XMLID_2756_" cx="0.303" cy="0.303" rx="0.303" ry="0.303" transform="translate(4.783 13.269)" fill="#26a9e0"/>
          <ellipse id="XMLID_2755_" cx="0.303" cy="0.303" rx="0.303" ry="0.303" transform="translate(7.189 12.584)" fill="#26a9e0"/>
          <ellipse id="XMLID_2754_" cx="0.303" cy="0.303" rx="0.303" ry="0.303" transform="translate(1.322 11.665)" fill="#26a9e0"/>
          <path id="XMLID_2753_" d="M73.406,207.3a.3.3,0,1,1-.3-.3A.294.294,0,0,1,73.406,207.3Z" transform="translate(-72.8 -193.51)" fill="#26a9e0"/>
          <path id="XMLID_2752_" d="M106.606,196.8a.3.3,0,1,1-.3-.3A.306.306,0,0,1,106.606,196.8Z" transform="translate(-102.952 -184)" fill="#26a9e0"/>
          <ellipse id="XMLID_2751_" cx="0.303" cy="0.303" rx="0.303" ry="0.303" transform="translate(4.48 16.413)" fill="#26a9e0"/>
          <path id="XMLID_2750_" d="M167.706,232.5a.3.3,0,1,1-.3-.3A.306.306,0,0,1,167.706,232.5Z" transform="translate(-158.442 -216.35)" fill="#26a9e0"/>
          <path id="XMLID_2749_" d="M162.306,260.3a.3.3,0,1,1-.3-.3A.306.306,0,0,1,162.306,260.3Z" transform="translate(-153.538 -241.541)" fill="#26a9e0"/>
          <path id="XMLID_2748_" d="M109.106,286a.3.3,0,1,1-.3-.3A.306.306,0,0,1,109.106,286Z" transform="translate(-105.222 -264.829)" fill="#26a9e0"/>
          <ellipse id="XMLID_2747_" cx="0.303" cy="0.303" rx="0.303" ry="0.303" transform="translate(1.111 24.24)" fill="#26a9e0"/>
          <ellipse id="XMLID_2746_" cx="0.303" cy="0.303" rx="0.303" ry="0.303" transform="translate(1.956 26.605)" fill="#26a9e0"/>
          <ellipse id="XMLID_2745_" cx="0.303" cy="0.303" rx="0.303" ry="0.303" transform="translate(4.177 25.131)" fill="#26a9e0"/>
          <ellipse id="XMLID_2744_" cx="0.303" cy="0.303" rx="0.303" ry="0.303" transform="translate(5.729 22.297)" fill="#26a9e0"/>
          <path id="XMLID_2743_" d="M165.306,313a.3.3,0,1,1-.3-.3A.306.306,0,0,1,165.306,313Z" transform="translate(-156.263 -289.296)" fill="#26a9e0"/>
          <ellipse id="XMLID_2742_" cx="0.303" cy="0.303" rx="0.303" ry="0.303" transform="translate(6.721 26.407)" fill="#26a9e0"/>
          <path id="XMLID_2741_" d="M141.606,398.1a.3.3,0,1,1-.3-.3A.306.306,0,0,1,141.606,398.1Z" transform="translate(-134.738 -366.322)" fill="#26a9e0"/>
          <ellipse id="XMLID_2740_" cx="0.303" cy="0.303" rx="0.303" ry="0.303" transform="translate(3.874 29.238)" fill="#26a9e0"/>
          <path id="XMLID_2739_" d="M181.606,373.7a.3.3,0,1,1-.3-.3A.306.306,0,0,1,181.606,373.7Z" transform="translate(-171.066 -344.162)" fill="#26a9e0"/>
          <path id="XMLID_2738_" d="M179.506,340a.3.3,0,1,1-.3-.3A.306.306,0,0,1,179.506,340Z" transform="translate(-169.159 -313.762)" fill="#26a9e0"/>
          <ellipse id="XMLID_2737_" cx="0.303" cy="0.303" rx="0.303" ry="0.303" transform="translate(13.074 24.24)" fill="#26a9e0"/>
          <ellipse id="XMLID_2736_" cx="0.303" cy="0.303" rx="0.303" ry="0.303" transform="translate(14.451 23.32)" fill="#26a9e0"/>
          <path id="XMLID_2735_" d="M293.306,313a.3.3,0,1,1-.3-.3A.306.306,0,0,1,293.306,313Z" transform="translate(-272.511 -289.296)" fill="#26a9e0"/>
          <ellipse id="XMLID_2734_" cx="0.303" cy="0.303" rx="0.303" ry="0.303" transform="translate(16.499 28.115)" fill="#26a9e0"/>
          <ellipse id="XMLID_2733_" cx="0.303" cy="0.303" rx="0.303" ry="0.303" transform="translate(20.997 28.275)" fill="#26a9e0"/>
          <path id="XMLID_2732_" d="M317.306,302.5a.3.3,0,1,1-.3-.3A.3.3,0,0,1,317.306,302.5Z" transform="translate(-294.307 -279.781)" fill="#26a9e0"/>
          <ellipse id="XMLID_2731_" cx="0.303" cy="0.303" rx="0.303" ry="0.303" transform="translate(24.247 21.18)" fill="#26a9e0"/>
          <path id="XMLID_2730_" d="M230.006,340a.3.3,0,1,1-.3-.3A.306.306,0,0,1,230.006,340Z" transform="translate(-215.022 -313.762)" fill="#26a9e0"/>
          <ellipse id="XMLID_2729_" cx="0.303" cy="0.303" rx="0.303" ry="0.303" transform="translate(13.175 27.468)" fill="#26a9e0"/>
          <ellipse id="XMLID_2728_" cx="0.303" cy="0.303" rx="0.303" ry="0.303" transform="translate(12.872 32.791)" fill="#26a9e0"/>
          <path id="XMLID_2727_" d="M188.806,426.1a.3.3,0,1,1-.3-.3A.306.306,0,0,1,188.806,426.1Z" transform="translate(-177.605 -391.751)" fill="#26a9e0"/>
          <ellipse id="XMLID_2726_" cx="0.303" cy="0.303" rx="0.303" ry="0.303" transform="translate(17.894 30.918)" fill="#26a9e0"/>
          <path id="XMLID_2725_" d="M282.906,382.3a.3.3,0,1,1-.3-.3A.306.306,0,0,1,282.906,382.3Z" transform="translate(-263.066 -351.973)" fill="#26a9e0"/>
          <path id="XMLID_2724_" d="M276.806,411.1a.3.3,0,1,1-.3-.3A.306.306,0,0,1,276.806,411.1Z" transform="translate(-257.526 -378.128)" fill="#26a9e0"/>
          <path id="XMLID_2723_" d="M315.306,403.9a.3.3,0,1,1-.3-.3A.306.306,0,0,1,315.306,403.9Z" transform="translate(-292.491 -371.589)" fill="#26a9e0"/>
          <ellipse id="XMLID_2722_" cx="0.303" cy="0.303" rx="0.303" ry="0.303" transform="translate(26.166 29.66)" fill="#26a9e0"/>
          <ellipse id="XMLID_2721_" cx="0.303" cy="0.303" rx="0.303" ry="0.303" transform="translate(24.247 31.708)" fill="#26a9e0"/>
          <ellipse id="XMLID_2720_" cx="0.303" cy="0.303" rx="0.303" ry="0.303" transform="translate(26.534 31.91)" fill="#26a9e0"/>
          <ellipse id="XMLID_2719_" cx="0.303" cy="0.303" rx="0.303" ry="0.303" transform="translate(29.132 30.615)" fill="#26a9e0"/>
          <path id="XMLID_2718_" d="M390.506,356.3a.3.3,0,1,1-.3-.3A.306.306,0,0,1,390.506,356.3Z" transform="translate(-360.787 -328.532)" fill="#26a9e0"/>
          <path id="XMLID_2717_" d="M407.606,340a.3.3,0,1,1-.3-.3A.306.306,0,0,1,407.606,340Z" transform="translate(-376.317 -313.762)" fill="#26a9e0"/>
          <ellipse id="XMLID_2716_" cx="0.303" cy="0.303" rx="0.303" ry="0.303" transform="translate(27.718 23.93)" fill="#26a9e0"/>
          <ellipse id="XMLID_2715_" cx="0.303" cy="0.303" rx="0.303" ry="0.303" transform="translate(27.984 21.772)" fill="#26a9e0"/>
          <ellipse id="XMLID_2714_" cx="0.303" cy="0.303" rx="0.303" ry="0.303" transform="translate(14.378 35.435)" fill="#26a9e0"/>
          <ellipse id="XMLID_2713_" cx="0.303" cy="0.303" rx="0.303" ry="0.303" transform="translate(17.481 35.435)" fill="#26a9e0"/>
          <ellipse id="XMLID_2712_" cx="0.303" cy="0.303" rx="0.303" ry="0.303" transform="translate(23.265 24.296)" fill="#26a9e0"/>
          <path id="XMLID_2711_" d="M84.506,261.1a.3.3,0,1,1-.3-.3A.3.3,0,0,1,84.506,261.1Z" transform="translate(-82.881 -242.266)" fill="#26a9e0"/>
          <path id="XMLID_2710_" d="M80.006,288.7a.3.3,0,1,1-.3-.3A.306.306,0,0,1,80.006,288.7Z" transform="translate(-78.794 -267.276)" fill="#26a9e0"/>
          <path id="XMLID_2709_" d="M164.406,151.8a.3.3,0,1,1-.3-.3A.306.306,0,0,1,164.406,151.8Z" transform="translate(-155.445 -143.223)" fill="#26a9e0"/>
          <path id="XMLID_2708_" d="M228.006,160.4a.3.3,0,1,1-.3-.3A.306.306,0,0,1,228.006,160.4Z" transform="translate(-213.206 -151.016)" fill="#26a9e0"/>
          <path id="XMLID_2707_" d="M211.406,172.5a.3.3,0,1,1-.3-.3A.306.306,0,0,1,211.406,172.5Z" transform="translate(-198.13 -161.98)" fill="#26a9e0"/>
          <ellipse id="XMLID_2706_" cx="0.303" cy="0.303" rx="0.303" ry="0.303" transform="translate(16.93 8.446)" fill="#26a9e0"/>
          <ellipse id="XMLID_2705_" cx="0.303" cy="0.303" rx="0.303" ry="0.303" transform="translate(16.948 10.013)" fill="#26a9e0"/>
          <ellipse id="XMLID_2704_" cx="0.303" cy="0.303" rx="0.303" ry="0.303" transform="translate(14.8 11.149)" fill="#26a9e0"/>
          <path id="XMLID_2703_" d="M242.106,225.8a.3.3,0,1,1-.3-.3A.3.3,0,0,1,242.106,225.8Z" transform="translate(-226.011 -210.279)" fill="#26a9e0"/>
          <ellipse id="XMLID_2702_" cx="0.303" cy="0.303" rx="0.303" ry="0.303" transform="translate(13.331 16.882)" fill="#26a9e0"/>
          <ellipse id="XMLID_2701_" cx="0.303" cy="0.303" rx="0.303" ry="0.303" transform="translate(12.67 14.705)" fill="#26a9e0"/>
          <ellipse id="XMLID_2700_" cx="0.303" cy="0.303" rx="0.303" ry="0.303" transform="translate(18.39 15.531)" fill="#26a9e0"/>
          <ellipse id="XMLID_2699_" cx="0.303" cy="0.303" rx="0.303" ry="0.303" transform="translate(20.143 13.767)" fill="#26a9e0"/>
          <path id="XMLID_2698_" d="M317.806,233.8a.3.3,0,1,1-.3-.3A.294.294,0,0,1,317.806,233.8Z" transform="translate(-294.761 -217.524)" fill="#26a9e0"/>
          <path id="XMLID_2697_" d="M341.006,237.1a.3.3,0,1,1-.3-.3A.3.3,0,0,1,341.006,237.1Z" transform="translate(-315.831 -220.518)" fill="#26a9e0"/>
          <path id="XMLID_2696_" d="M335.306,261.1a.3.3,0,1,1-.3-.3A.3.3,0,0,1,335.306,261.1Z" transform="translate(-310.655 -242.266)" fill="#26a9e0"/>
          <path id="XMLID_2695_" d="M312.206,252.7a.3.3,0,1,1-.3-.3A.306.306,0,0,1,312.206,252.7Z" transform="translate(-289.675 -234.654)" fill="#26a9e0"/>
          <ellipse id="XMLID_2694_" cx="0.303" cy="0.303" rx="0.303" ry="0.303" transform="translate(15.342 18.224)" fill="#26a9e0"/>
          <ellipse id="XMLID_2693_" cx="0.303" cy="0.303" rx="0.303" ry="0.303" transform="translate(16.196 19.078)" fill="#26a9e0"/>
          <path id="XMLID_2692_" d="M285.906,274.5a.3.3,0,1,1-.3-.3A.3.3,0,0,1,285.906,274.5Z" transform="translate(-265.79 -254.409)" fill="#26a9e0"/>
          <ellipse id="XMLID_2691_" cx="0.303" cy="0.303" rx="0.303" ry="0.303" transform="translate(12 19.763)" fill="#26a9e0"/>
          <path id="XMLID_2690_" d="M172.806,285.4a.3.3,0,1,1-.3-.3A.306.306,0,0,1,172.806,285.4Z" transform="translate(-163.074 -264.286)" fill="#26a9e0"/>
          <ellipse id="XMLID_2689_" cx="0.303" cy="0.303" rx="0.303" ry="0.303" transform="translate(11.394 22.644)" fill="#26a9e0"/>
          <path id="XMLID_2688_" d="M205.306,290.7a.3.3,0,1,1-.3-.3A.306.306,0,0,1,205.306,290.7Z" transform="translate(-192.59 -269.088)" fill="#26a9e0"/>
          <ellipse id="XMLID_2687_" cx="0.303" cy="0.303" rx="0.303" ry="0.303" transform="translate(15.975)" fill="#26a9e0"/>
          <path id="XMLID_2686_" d="M254.206,97.4a.3.3,0,1,1-.3-.3A.3.3,0,0,1,254.206,97.4Z" transform="translate(-237.001 -93.997)" fill="#26a9e0"/>
          <path id="XMLID_2685_" d="M241.506,113.4a.3.3,0,1,1-.3-.3A.3.3,0,0,1,241.506,113.4Z" transform="translate(-225.466 -108.528)" fill="#26a9e0"/>
          <ellipse id="XMLID_2684_" cx="0.303" cy="0.303" rx="0.303" ry="0.303" transform="translate(16.902 5.206)" fill="#26a9e0"/>
          <ellipse id="XMLID_2683_" cx="0.303" cy="0.303" rx="0.303" ry="0.303" transform="translate(14.8 6.408)" fill="#26a9e0"/>
          <ellipse id="XMLID_2682_" cx="0.303" cy="0.303" rx="0.303" ry="0.303" transform="translate(18.638 2.819)" fill="#26a9e0"/>
          <path id="XMLID_2681_" d="M308.406,93.2a.3.3,0,1,1-.3-.3A.3.3,0,0,1,308.406,93.2Z" transform="translate(-286.224 -90.182)" fill="#26a9e0"/>
          <ellipse id="XMLID_2680_" cx="0.303" cy="0.303" rx="0.303" ry="0.303" transform="translate(27.442 3.406)" fill="#26a9e0"/>
          <ellipse id="XMLID_2679_" cx="0.303" cy="0.303" rx="0.303" ry="0.303" transform="translate(21.392 5.353)" fill="#26a9e0"/>
          <ellipse id="XMLID_2678_" cx="0.303" cy="0.303" rx="0.303" ry="0.303" transform="translate(21.328 9.084)" fill="#26a9e0"/>
          <ellipse id="XMLID_2677_" cx="0.303" cy="0.303" rx="0.303" ry="0.303" transform="translate(24.844 9.215)" fill="#26a9e0"/>
          <ellipse id="XMLID_2676_" cx="0.303" cy="0.303" rx="0.303" ry="0.303" transform="translate(26.46 10.22)" fill="#26a9e0"/>
          <path id="XMLID_2675_" d="M392.606,169.8a.3.3,0,1,1-.3-.3A.3.3,0,0,1,392.606,169.8Z" transform="translate(-362.694 -159.534)" fill="#26a9e0"/>
          <ellipse id="XMLID_2674_" cx="0.303" cy="0.303" rx="0.303" ry="0.303" transform="translate(31.95 11.468)" fill="#26a9e0"/>
          <ellipse id="XMLID_2673_" cx="0.303" cy="0.303" rx="0.303" ry="0.303" transform="translate(32.134 13.889)" fill="#26a9e0"/>
          <ellipse id="XMLID_2672_" cx="0.303" cy="0.303" rx="0.303" ry="0.303" transform="translate(34.246 15.775)" fill="#26a9e0"/>
          <ellipse id="XMLID_2671_" cx="0.303" cy="0.303" rx="0.303" ry="0.303" transform="translate(28.287 17.201)" fill="#26a9e0"/>
          <path id="XMLID_2670_" d="M355.506,148.3a.3.3,0,1,1-.3-.3A.3.3,0,0,1,355.506,148.3Z" transform="translate(-329 -140.052)" fill="#26a9e0"/>
          <path id="XMLID_2669_" d="M326.006,139.4a.3.3,0,1,1-.3-.3A.3.3,0,0,1,326.006,139.4Z" transform="translate(-302.208 -131.987)" fill="#26a9e0"/>
          <ellipse id="XMLID_2668_" cx="0.303" cy="0.303" rx="0.303" ry="0.303" transform="translate(19.804 18.065)" fill="#26a9e0"/>
          <path id="XMLID_2667_" d="M374.906,222.5a.3.3,0,1,1-.3-.3A.294.294,0,0,1,374.906,222.5Z" transform="translate(-346.619 -207.284)" fill="#26a9e0"/>
          <path id="XMLID_2666_" d="M435.906,257.8a.3.3,0,1,1-.3-.3A.294.294,0,0,1,435.906,257.8Z" transform="translate(-402.018 -239.271)" fill="#26a9e0"/>
          <ellipse id="XMLID_2665_" cx="0.303" cy="0.303" rx="0.303" ry="0.303" transform="translate(31.95 19.679)" fill="#26a9e0"/>
          <ellipse id="XMLID_2664_" cx="0.303" cy="0.303" rx="0.303" ry="0.303" transform="translate(30.417 18.806)" fill="#26a9e0"/>
          <ellipse id="XMLID_2663_" cx="0.303" cy="0.303" rx="0.303" ry="0.303" transform="translate(27.048 19.989)" fill="#26a9e0"/>
          <ellipse id="XMLID_2662_" cx="0.303" cy="0.303" rx="0.303" ry="0.303" transform="translate(23.899 4.838)" fill="#26a9e0"/>
          <ellipse id="XMLID_2661_" cx="0.303" cy="0.303" rx="0.303" ry="0.303" transform="translate(17.738 6.804)" fill="#26a9e0"/>
          <path id="XMLID_2660_" d="M169.006,84.6a.3.3,0,1,1-.3-.3A.306.306,0,0,1,169.006,84.6Z" transform="translate(-159.623 -82.372)" fill="#26a9e0"/>
        </g>
      </g>
    </g>
    <g id="XMLID_2129_" transform="translate(1584.794 927.473)">
      <g id="XMLID_3876_" transform="translate(1.983 0)">
        <g id="XMLID_3997_" transform="translate(1.469 0.877)">
          <ellipse id="XMLID_4056_" cx="0.964" cy="0.964" rx="0.964" ry="0.964" transform="translate(15.588 0.743) rotate(-22.655)" fill="#ec1c24"/>
          <ellipse id="XMLID_4053_" cx="0.964" cy="0.964" rx="0.964" ry="0.964" transform="translate(0 5.807)" fill="#ec1c24"/>
          <circle id="XMLID_4049_" cx="0.964" cy="0.964" r="0.964" transform="translate(0.571 10.782) rotate(-40.783)" fill="#ec1c24"/>
          <ellipse id="XMLID_4046_" cx="0.964" cy="0.964" rx="0.964" ry="0.964" transform="translate(14.478 11.46) rotate(-81.756)" fill="#ec1c24"/>
          <circle id="XMLID_4040_" cx="0.964" cy="0.964" r="0.964" transform="translate(8.852 14.008) rotate(-45)" fill="#ec1c24"/>
          <ellipse id="XMLID_4021_" cx="0.964" cy="0.964" rx="0.964" ry="0.964" transform="matrix(0.229, -0.974, 0.974, 0.229, 15.062, 16.98)" fill="#ec1c24"/>
          <ellipse id="XMLID_4019_" cx="0.964" cy="0.964" rx="0.964" ry="0.964" transform="translate(1.455 21.551) rotate(-79.188)" fill="#ec1c24"/>
          <ellipse id="XMLID_4014_" cx="0.964" cy="0.964" rx="0.964" ry="0.964" transform="translate(15.58 19.441)" fill="#ec1c24"/>
          <ellipse id="XMLID_4003_" cx="0.964" cy="0.964" rx="0.964" ry="0.964" transform="translate(15.59 4.617) rotate(-22.655)" fill="#ec1c24"/>
        </g>
        <g id="XMLID_3919_" transform="translate(0 0.51)">
          <ellipse id="XMLID_3988_" cx="0.964" cy="0.964" rx="0.964" ry="0.964" transform="translate(0 2.226)" fill="#f8a374"/>
          <ellipse id="XMLID_3985_" cx="0.964" cy="0.964" rx="0.964" ry="0.964" transform="translate(3.25 0.743) rotate(-22.655)" fill="#f8a374"/>
          <circle id="XMLID_3977_" cx="0.964" cy="0.964" r="0.964" transform="translate(18.329 9.077) rotate(-45)" fill="#f8a374"/>
          <ellipse id="XMLID_3962_" cx="0.964" cy="0.964" rx="0.964" ry="0.964" transform="translate(18.73 13.73)" fill="#f8a374"/>
          <ellipse id="XMLID_3958_" cx="0.964" cy="0.964" rx="0.964" ry="0.964" transform="translate(5.822 16.854) rotate(-79.093)" fill="#f8a374"/>
          <ellipse id="XMLID_3956_" cx="0.964" cy="0.964" rx="0.964" ry="0.964" transform="matrix(0.229, -0.974, 0.974, 0.229, 0.778, 20.52)" fill="#f8a374"/>
          <circle id="XMLID_3925_" cx="0.964" cy="0.964" r="0.964" transform="translate(9.356 11.516) rotate(-45)" fill="#f8a374"/>
        </g>
        <g id="XMLID_3877_" transform="translate(1.109)">
          <ellipse id="XMLID_3913_" cx="0.964" cy="0.964" rx="0.964" ry="0.964" transform="matrix(0.3, -0.954, 0.954, 0.3, 12.785, 5.674)" fill="#f37c47"/>
          <ellipse id="XMLID_3910_" cx="0.964" cy="0.964" rx="0.964" ry="0.964" transform="matrix(0.229, -0.974, 0.974, 0.229, 6.519, 14.954)" fill="#f37c47"/>
          <ellipse id="XMLID_3906_" cx="0.964" cy="0.964" rx="0.964" ry="0.964" transform="translate(14.718 13.621) rotate(-17.993)" fill="#f37c47"/>
          <ellipse id="XMLID_3904_" cx="0.964" cy="0.964" rx="0.964" ry="0.964" transform="translate(1.462 17.417)" fill="#f37c47"/>
          <ellipse id="XMLID_3901_" cx="0.964" cy="0.964" rx="0.964" ry="0.964" transform="translate(12.518 16.974) rotate(-80.752)" fill="#f37c47"/>
          <ellipse id="XMLID_3894_" cx="0.964" cy="0.964" rx="0.964" ry="0.964" transform="translate(0 0.99) rotate(-30.897)" fill="#f37c47"/>
          <ellipse id="XMLID_3892_" cx="0.964" cy="0.964" rx="0.964" ry="0.964" transform="translate(1.139 5.398) rotate(-77.52)" fill="#f37c47"/>
          <ellipse id="XMLID_3889_" cx="0.964" cy="0.964" rx="0.964" ry="0.964" transform="translate(8.451 10.032) rotate(-76.656)" fill="#f37c47"/>
          <ellipse id="XMLID_3888_" cx="0.964" cy="0.964" rx="0.964" ry="0.964" transform="translate(15.619 7.391)" fill="#f37c47"/>
        </g>
      </g>
      <g id="XMLID_3731_" transform="translate(0 1.139)">
        <g id="XMLID_3841_" transform="translate(0 2.057)">
          <ellipse id="XMLID_3870_" cx="0.633" cy="0.633" rx="0.633" ry="0.633" fill="#f8a374"/>
          <ellipse id="XMLID_3854_" cx="0.633" cy="0.633" rx="0.633" ry="0.633" transform="translate(21.043 3.819)" fill="#f8a374"/>
          <ellipse id="XMLID_3853_" cx="0.633" cy="0.633" rx="0.633" ry="0.633" transform="translate(18.39)" fill="#f8a374"/>
          <ellipse id="XMLID_3851_" cx="0.633" cy="0.633" rx="0.633" ry="0.633" transform="translate(15.617 3.195)" fill="#f8a374"/>
          <ellipse id="XMLID_3848_" cx="0.633" cy="0.633" rx="0.633" ry="0.633" transform="translate(4.233 12.771)" fill="#f8a374"/>
          <ellipse id="XMLID_3847_" cx="0.633" cy="0.633" rx="0.633" ry="0.633" transform="translate(3.562 18.344)" fill="#f8a374"/>
          <ellipse id="XMLID_3842_" cx="0.633" cy="0.633" rx="0.633" ry="0.633" transform="translate(19.372 15.516)" fill="#f8a374"/>
        </g>
        <g id="XMLID_3793_" transform="translate(1.845)">
          <ellipse id="XMLID_3839_" cx="0.633" cy="0.633" rx="0.633" ry="0.633" fill="#ec1c24"/>
          <ellipse id="XMLID_3830_" cx="0.633" cy="0.633" rx="0.633" ry="0.633" transform="translate(2.736 1.157)" fill="#ec1c24"/>
          <ellipse id="XMLID_3827_" cx="0.633" cy="0.633" rx="0.633" ry="0.633" transform="translate(1.083 13.313)" fill="#ec1c24"/>
          <ellipse id="XMLID_3826_" cx="0.633" cy="0.633" rx="0.633" ry="0.633" transform="translate(0.808 16.847)" fill="#ec1c24"/>
          <ellipse id="XMLID_3821_" cx="0.633" cy="0.633" rx="0.633" ry="0.633" transform="translate(19.198 1.781)" fill="#ec1c24"/>
          <ellipse id="XMLID_3819_" cx="0.633" cy="0.633" rx="0.633" ry="0.633" transform="translate(12.303 6.849)" fill="#ec1c24"/>
          <ellipse id="XMLID_3810_" cx="0.633" cy="0.633" rx="0.633" ry="0.633" transform="translate(6.271 12.89)" fill="#ec1c24"/>
          <ellipse id="XMLID_3803_" cx="0.633" cy="0.633" rx="0.633" ry="0.633" transform="translate(21.429 13.111)" fill="#ec1c24"/>
          <ellipse id="XMLID_3797_" cx="0.633" cy="0.633" rx="0.633" ry="0.633" transform="translate(19.106 9.75)" fill="#ec1c24"/>
          <ellipse id="XMLID_3796_" cx="0.633" cy="0.633" rx="0.633" ry="0.633" transform="translate(1.083 3.865)" fill="#ec1c24"/>
        </g>
        <g id="XMLID_3732_" transform="translate(3.783 4.618)">
          <ellipse id="XMLID_3779_" cx="0.633" cy="0.633" rx="0.633" ry="0.633" transform="translate(1.432)" fill="#f37c47"/>
          <ellipse id="XMLID_3775_" cx="0.633" cy="0.633" rx="0.633" ry="0.633" transform="translate(7.538 9.328)" fill="#f37c47"/>
          <ellipse id="XMLID_3760_" cx="0.633" cy="0.633" rx="0.633" ry="0.633" transform="translate(1.083 3.544)" fill="#f37c47"/>
          <ellipse id="XMLID_3759_" cx="0.633" cy="0.633" rx="0.633" ry="0.633" transform="translate(0 7.308)" fill="#f37c47"/>
          <ellipse id="XMLID_3753_" cx="0.633" cy="0.633" rx="0.633" ry="0.633" transform="translate(2.194 13.505)" fill="#f37c47"/>
          <path id="XMLID_3750_" d="M365.067,300.334a.634.634,0,1,1-.634-.634A.635.635,0,0,1,365.067,300.334Z" transform="translate(-345.41 -289.39)" fill="#f37c47"/>
          <ellipse id="XMLID_3747_" cx="0.633" cy="0.633" rx="0.633" ry="0.633" transform="translate(6.353 4.866)" fill="#f37c47"/>
          <ellipse id="XMLID_3741_" cx="0.633" cy="0.633" rx="0.633" ry="0.633" transform="translate(14.286 16.425)" fill="#f37c47"/>
          <ellipse id="XMLID_3737_" cx="0.633" cy="0.633" rx="0.633" ry="0.633" transform="translate(16.535 6.675)" fill="#f37c47"/>
        </g>
      </g>
      <g id="XMLID_2130_" transform="translate(1.35 0.661)">
        <g id="XMLID_3575_" transform="translate(1.91)">
          <path id="XMLID_3715_" d="M158.406,221.1a.3.3,0,1,1-.3-.3A.306.306,0,0,1,158.406,221.1Z" transform="translate(-157.8 -212.638)" fill="#ec1c24"/>
          <ellipse id="XMLID_3689_" cx="0.303" cy="0.303" rx="0.303" ry="0.303" transform="translate(17.784 15.837)" fill="#ec1c24"/>
          <ellipse id="XMLID_3677_" cx="0.303" cy="0.303" rx="0.303" ry="0.303" transform="translate(18.096 19.941)" fill="#ec1c24"/>
          <path id="XMLID_3673_" d="M390.706,291.6a.3.3,0,1,1-.3-.3A.306.306,0,0,1,390.706,291.6Z" transform="translate(-368.772 -276.665)" fill="#ec1c24"/>
          <ellipse id="XMLID_3658_" cx="0.303" cy="0.303" rx="0.303" ry="0.303" transform="translate(8.291 9.659)" fill="#ec1c24"/>
          <path id="XMLID_3657_" d="M282.906,198.5a.3.3,0,1,1-.3-.3A.306.306,0,0,1,282.906,198.5Z" transform="translate(-270.87 -192.113)" fill="#ec1c24"/>
          <path id="XMLID_3651_" d="M227.506,264.4a.3.3,0,1,1-.3-.3A.3.3,0,0,1,227.506,264.4Z" transform="translate(-220.556 -251.962)" fill="#ec1c24"/>
          <path id="XMLID_3642_" d="M262.006,299.8a.3.3,0,1,1-.3-.3A.306.306,0,0,1,262.006,299.8Z" transform="translate(-251.888 -284.112)" fill="#ec1c24"/>
          <ellipse id="XMLID_3640_" cx="0.303" cy="0.303" rx="0.303" ry="0.303" transform="translate(7.207 15.213)" fill="#ec1c24"/>
          <ellipse id="XMLID_3639_" cx="0.303" cy="0.303" rx="0.303" ry="0.303" transform="translate(16.958 13.258)" fill="#ec1c24"/>
          <path id="XMLID_3636_" d="M227.506,253.8a.3.3,0,1,1-.3-.3A.306.306,0,0,1,227.506,253.8Z" transform="translate(-220.556 -242.336)" fill="#ec1c24"/>
          <ellipse id="XMLID_3617_" cx="0.303" cy="0.303" rx="0.303" ry="0.303" transform="translate(18.023)" fill="#ec1c24"/>
          <ellipse id="XMLID_3614_" cx="0.303" cy="0.303" rx="0.303" ry="0.303" transform="translate(14.332 2.718)" fill="#ec1c24"/>
          <ellipse id="XMLID_3611_" cx="0.303" cy="0.303" rx="0.303" ry="0.303" transform="translate(15.461 1.763)" fill="#ec1c24"/>
          <ellipse id="XMLID_3610_" cx="0.303" cy="0.303" rx="0.303" ry="0.303" transform="translate(17.72 3.856)" fill="#ec1c24"/>
          <path id="XMLID_3609_" d="M322.706,175.8a.3.3,0,1,1-.3-.3A.3.3,0,0,1,322.706,175.8Z" transform="translate(-307.015 -171.497)" fill="#ec1c24"/>
        </g>
        <g id="XMLID_3374_" transform="translate(2.213 2.415)">
          <ellipse id="XMLID_3558_" cx="0.303" cy="0.303" rx="0.303" ry="0.303" transform="translate(0.716 2.699)" fill="#f37c47"/>
          <path id="XMLID_3550_" d="M169.506,221.1a.3.3,0,1,1-.3-.3A.306.306,0,0,1,169.506,221.1Z" transform="translate(-168.184 -215.053)" fill="#f37c47"/>
          <ellipse id="XMLID_3542_" cx="0.303" cy="0.303" rx="0.303" ry="0.303" transform="translate(0 8.382)" fill="#f37c47"/>
          <path id="XMLID_3522_" d="M317.306,290.7a.3.3,0,1,1-.3-.3A.3.3,0,0,1,317.306,290.7Z" transform="translate(-302.414 -278.263)" fill="#f37c47"/>
          <path id="XMLID_3517_" d="M327.706,292.5a.3.3,0,1,1-.3-.3A.306.306,0,0,1,327.706,292.5Z" transform="translate(-311.859 -279.897)" fill="#f37c47"/>
          <path id="XMLID_3506_" d="M348.806,370.1a.3.3,0,1,1-.3-.3A.289.289,0,0,1,348.806,370.1Z" transform="translate(-331.022 -350.368)" fill="#f37c47"/>
          <path id="XMLID_3505_" d="M351.206,338.4a.3.3,0,1,1-.3-.3A.294.294,0,0,1,351.206,338.4Z" transform="translate(-333.202 -321.583)" fill="#f37c47"/>
          <ellipse id="XMLID_3472_" cx="0.303" cy="0.303" rx="0.303" ry="0.303" transform="translate(2.736)" fill="#f37c47"/>
          <path id="XMLID_3467_" d="M268.506,239.2a.3.3,0,1,1-.3-.3A.306.306,0,0,1,268.506,239.2Z" transform="translate(-258.095 -231.491)" fill="#f37c47"/>
          <path id="XMLID_3450_" d="M330.206,229.9a.3.3,0,1,1-.3-.3A.294.294,0,0,1,330.206,229.9Z" transform="translate(-314.13 -223.04)" fill="#f37c47"/>
          <path id="XMLID_3449_" d="M343.206,252.7a.3.3,0,1,1-.3-.3A.306.306,0,0,1,343.206,252.7Z" transform="translate(-325.936 -243.751)" fill="#f37c47"/>
          <path id="XMLID_3444_" d="M285.906,288.3a.3.3,0,1,1-.3-.3A.294.294,0,0,1,285.906,288.3Z" transform="translate(-273.897 -276.083)" fill="#f37c47"/>
          <ellipse id="XMLID_3443_" cx="0.303" cy="0.303" rx="0.303" ry="0.303" transform="translate(11.219 12.799)" fill="#f37c47"/>
          <ellipse id="XMLID_3442_" cx="0.303" cy="0.303" rx="0.303" ry="0.303" transform="translate(6.032 12.128)" fill="#f37c47"/>
          <ellipse id="XMLID_3439_" cx="0.303" cy="0.303" rx="0.303" ry="0.303" transform="translate(1.653 10.54)" fill="#f37c47"/>
          <ellipse id="XMLID_3437_" cx="0.303" cy="0.303" rx="0.303" ry="0.303" transform="translate(2.268 13.441)" fill="#f37c47"/>
          <ellipse id="XMLID_3416_" cx="0.303" cy="0.303" rx="0.303" ry="0.303" transform="translate(16.434 1.138)" fill="#f37c47"/>
          <path id="XMLID_3414_" d="M331.906,174.2a.3.3,0,1,1-.3-.3A.306.306,0,0,1,331.906,174.2Z" transform="translate(-315.674 -172.459)" fill="#f37c47"/>
          <path id="XMLID_3413_" d="M326.006,184.4a.3.3,0,1,1-.3-.3A.294.294,0,0,1,326.006,184.4Z" transform="translate(-310.315 -181.722)" fill="#f37c47"/>
        </g>
        <g id="XMLID_2131_" transform="translate(0 1.478)">
          <ellipse id="XMLID_3367_" cx="0.303" cy="0.303" rx="0.303" ry="0.303" transform="translate(0 0.487)" fill="#f8a374"/>
          <path id="XMLID_3351_" d="M167.706,232.5a.3.3,0,1,1-.3-.3A.306.306,0,0,1,167.706,232.5Z" transform="translate(-164.336 -224.469)" fill="#f8a374"/>
          <path id="XMLID_3346_" d="M162.306,260.3a.3.3,0,1,1-.3-.3A.306.306,0,0,1,162.306,260.3Z" transform="translate(-159.432 -249.717)" fill="#f8a374"/>
          <path id="XMLID_3336_" d="M165.306,313a.3.3,0,1,1-.3-.3A.306.306,0,0,1,165.306,313Z" transform="translate(-162.157 -297.579)" fill="#f8a374"/>
          <path id="XMLID_3331_" d="M179.506,340a.3.3,0,1,1-.3-.3A.306.306,0,0,1,179.506,340Z" transform="translate(-175.053 -322.1)" fill="#f8a374"/>
          <path id="XMLID_3301_" d="M317.306,302.5a.3.3,0,1,1-.3-.3A.3.3,0,0,1,317.306,302.5Z" transform="translate(-300.202 -288.043)" fill="#f8a374"/>
          <ellipse id="XMLID_3300_" cx="0.303" cy="0.303" rx="0.303" ry="0.303" transform="translate(18.353 12.945)" fill="#f8a374"/>
          <ellipse id="XMLID_3263_" cx="0.303" cy="0.303" rx="0.303" ry="0.303" transform="translate(22.09 13.524)" fill="#f8a374"/>
          <ellipse id="XMLID_3256_" cx="0.303" cy="0.303" rx="0.303" ry="0.303" transform="translate(17.371 15.994)" fill="#f8a374"/>
          <path id="XMLID_3253_" d="M164.406,151.8a.3.3,0,1,1-.3-.3A.306.306,0,0,1,164.406,151.8Z" transform="translate(-161.339 -151.179)" fill="#f8a374"/>
          <ellipse id="XMLID_3150_" cx="0.303" cy="0.303" rx="0.303" ry="0.303" transform="translate(12.496 7.418)" fill="#f8a374"/>
          <ellipse id="XMLID_3146_" cx="0.303" cy="0.303" rx="0.303" ry="0.303" transform="translate(14.249 5.692)" fill="#f8a374"/>
          <path id="XMLID_3141_" d="M341.006,237.1a.3.3,0,1,1-.3-.3A.3.3,0,0,1,341.006,237.1Z" transform="translate(-321.726 -228.647)" fill="#f8a374"/>
          <path id="XMLID_3137_" d="M335.306,261.1a.3.3,0,1,1-.3-.3A.3.3,0,0,1,335.306,261.1Z" transform="translate(-316.549 -250.444)" fill="#f8a374"/>
          <ellipse id="XMLID_3132_" cx="0.303" cy="0.303" rx="0.303" ry="0.303" transform="translate(9.447 10.053)" fill="#f8a374"/>
          <ellipse id="XMLID_3131_" cx="0.303" cy="0.303" rx="0.303" ry="0.303" transform="translate(10.301 10.889)" fill="#f8a374"/>
          <path id="XMLID_3122_" d="M172.806,285.4a.3.3,0,1,1-.3-.3A.306.306,0,0,1,172.806,285.4Z" transform="translate(-168.968 -272.513)" fill="#f8a374"/>
          <ellipse id="XMLID_3089_" cx="0.303" cy="0.303" rx="0.303" ry="0.303" transform="translate(18.95 1.239)" fill="#f8a374"/>
          <path id="XMLID_2647_" d="M355.506,148.3a.3.3,0,1,1-.3-.3A.3.3,0,0,1,355.506,148.3Z" transform="translate(-334.894 -148)" fill="#f8a374"/>
        </g>
      </g>
    </g>
  </g>
</svg>
