<svg id="eye-able-circle-x" xmlns="http://www.w3.org/2000/svg" width="30" height="30" viewBox="0 0 21.326 21.326">
    <path id="Path"
        d="M21.326,16.986a1.723,1.723,0,0,0-.532-1.258l-3.66-3.66a1.99,1.99,0,0,1,0-2.81l3.66-3.66a1.723,1.723,0,0,0,.532-1.258,1.761,1.761,0,0,0-.532-1.288L18.274.532A1.756,1.756,0,0,0,16.986,0a1.723,1.723,0,0,0-1.258.532l-3.66,3.66a1.99,1.99,0,0,1-2.81,0L5.6.532A1.723,1.723,0,0,0,4.34,0,1.761,1.761,0,0,0,3.052.532L.532,3.052A1.756,1.756,0,0,0,0,4.34,1.723,1.723,0,0,0,.532,5.6l3.66,3.66a1.99,1.99,0,0,1,0,2.81l-3.66,3.66A1.723,1.723,0,0,0,0,16.986a1.761,1.761,0,0,0,.532,1.288l2.519,2.519a1.756,1.756,0,0,0,1.288.532A1.723,1.723,0,0,0,5.6,20.794l3.66-3.66a1.99,1.99,0,0,1,2.81,0l3.66,3.66a1.723,1.723,0,0,0,1.258.532,1.761,1.761,0,0,0,1.288-.532l2.519-2.519A1.756,1.756,0,0,0,21.326,16.986Z"
        transform="translate(0 0)" />
</svg>
