<svg xmlns="http://www.w3.org/2000/svg" width="33" height="32" viewBox="0 0 29.9 28.016">
    <g id="eye-able-settings" transform="translate(-15 -65.781)">
        <g id="Group_343" data-name="Group 343" transform="translate(15.5 66.295)">
            <g id="Group_342" data-name="Group 342" transform="translate(0 0)">
                <path id="Path_609" data-name="Path 609"
                    d="M44.284,77.98a2.362,2.362,0,0,0-1.129-1.732,2.327,2.327,0,0,0-2.033-.181,1.16,1.16,0,0,1-1.445-.649A10.546,10.546,0,0,0,38.6,73.552a1.151,1.151,0,0,1,.162-1.58,2.321,2.321,0,0,0,.85-1.844,2.363,2.363,0,0,0-.942-1.842,14.433,14.433,0,0,0-3.116-1.8,2.367,2.367,0,0,0-2.073.1,2.31,2.31,0,0,0-1.171,1.655,1.151,1.151,0,0,1-1.295.929,10.156,10.156,0,0,0-2.137,0,1.151,1.151,0,0,1-1.295-.929,2.307,2.307,0,0,0-1.171-1.655,2.362,2.362,0,0,0-2.073-.1,14.387,14.387,0,0,0-3.116,1.8,2.36,2.36,0,0,0-.94,1.84,2.326,2.326,0,0,0,.85,1.848,1.15,1.15,0,0,1,.162,1.578,10.546,10.546,0,0,0-1.073,1.865,1.158,1.158,0,0,1-1.459.644,2.33,2.33,0,0,0-2.019.185,2.359,2.359,0,0,0-1.129,1.732,14.223,14.223,0,0,0-.118,1.811,14.583,14.583,0,0,0,.116,1.811,2.362,2.362,0,0,0,1.129,1.732,2.334,2.334,0,0,0,2.033.181,1.158,1.158,0,0,1,1.445.649A10.547,10.547,0,0,0,21.3,86.028a1.151,1.151,0,0,1-.162,1.58,2.321,2.321,0,0,0-.85,1.844,2.357,2.357,0,0,0,.942,1.842,14.433,14.433,0,0,0,3.116,1.8,2.368,2.368,0,0,0,2.073-.1,2.31,2.31,0,0,0,1.171-1.655,1.154,1.154,0,0,1,1.295-.929,10.155,10.155,0,0,0,2.137,0,1.151,1.151,0,0,1,1.295.929,2.307,2.307,0,0,0,1.171,1.655,2.352,2.352,0,0,0,1.141.295,2.38,2.38,0,0,0,.931-.191,14.479,14.479,0,0,0,3.116-1.8,2.359,2.359,0,0,0,.942-1.84,2.317,2.317,0,0,0-.85-1.848,1.15,1.15,0,0,1-.162-1.578,10.545,10.545,0,0,0,1.073-1.865,1.16,1.16,0,0,1,1.445-.649l.013,0a2.316,2.316,0,0,0,2.019-.185A2.362,2.362,0,0,0,44.282,81.6a14.339,14.339,0,0,0,.118-1.811A14.719,14.719,0,0,0,44.284,77.98Zm-1.2,3.47a1.167,1.167,0,0,1-.553.854,1.126,1.126,0,0,1-.988.085l-.008,0a2.364,2.364,0,0,0-2.96,1.289,9.475,9.475,0,0,1-.952,1.655A2.344,2.344,0,0,0,38,88.542a1.114,1.114,0,0,1,.408.892,1.163,1.163,0,0,1-.464.908,13.131,13.131,0,0,1-2.855,1.647,1.168,1.168,0,0,1-1.025-.05,1.112,1.112,0,0,1-.565-.8A2.329,2.329,0,0,0,31.165,89.2c-.089,0-.181,0-.272.012a9.077,9.077,0,0,1-1.886,0A2.334,2.334,0,0,0,26.4,91.138a1.109,1.109,0,0,1-.565.8,1.174,1.174,0,0,1-1.025.05,13.255,13.255,0,0,1-2.855-1.647,1.16,1.16,0,0,1-.464-.906,1.116,1.116,0,0,1,.41-.892,2.342,2.342,0,0,0,.374-3.212,9.474,9.474,0,0,1-.952-1.655,2.37,2.37,0,0,0-2.981-1.279,1.122,1.122,0,0,1-.975-.089,1.153,1.153,0,0,1-.553-.854,12.777,12.777,0,0,1,0-3.314,1.167,1.167,0,0,1,.553-.854,1.128,1.128,0,0,1,.987-.085,2.367,2.367,0,0,0,2.967-1.285,9.458,9.458,0,0,1,.952-1.653,2.344,2.344,0,0,0-.374-3.212,1.114,1.114,0,0,1-.408-.892,1.163,1.163,0,0,1,.464-.908A13.131,13.131,0,0,1,24.808,67.6a1.168,1.168,0,0,1,1.025.05,1.109,1.109,0,0,1,.565.8,2.339,2.339,0,0,0,2.609,1.927,9.077,9.077,0,0,1,1.886,0A2.346,2.346,0,0,0,33.5,68.452a1.109,1.109,0,0,1,.565-.8,1.161,1.161,0,0,1,1.025-.05,13.255,13.255,0,0,1,2.855,1.647,1.16,1.16,0,0,1,.464.906,1.116,1.116,0,0,1-.41.892,2.342,2.342,0,0,0-.374,3.212,9.475,9.475,0,0,1,.952,1.655A2.369,2.369,0,0,0,41.56,77.2a1.122,1.122,0,0,1,.975.089,1.156,1.156,0,0,1,.553.854,12.763,12.763,0,0,1,0,3.312Z"
                    transform="translate(-15.5 -66.295)" fill="#fff" stroke="#fff" stroke-width="1" />
            </g>
        </g>
        <g id="Group_345" data-name="Group 345" transform="translate(25.257 75.099)">
            <g id="Group_344" data-name="Group 344">
                <path id="Path_610" data-name="Path 610"
                    d="M526.594,523.2a4.694,4.694,0,1,0,4.694,4.694A4.7,4.7,0,0,0,526.594,523.2Zm0,8.447a3.754,3.754,0,1,1,3.755-3.753A3.759,3.759,0,0,1,526.594,531.647Z"
                    transform="translate(-521.9 -523.2)" fill="#fff" />
            </g>
        </g>
    </g>
</svg>