<?xml version="1.0"?>
<svg xmlns="http://www.w3.org/2000/svg" xmlns:xlink="http://www.w3.org/1999/xlink" xmlns:svgjs="http://svgjs.com/svgjs" version="1.1" width="512" height="512" x="0" y="0" viewBox="0 0 512 512" style="enable-background:new 0 0 512 512" xml:space="preserve" class=""><g><link type="text/css" rel="stylesheet" id="dark-mode-general-link"/><link type="text/css" rel="stylesheet" id="dark-mode-custom-link"/><style lang="en" type="text/css" id="dark-mode-custom-style"/><g xmlns="http://www.w3.org/2000/svg"><path d="m314.593 355.965h29.65v-44.106h-29.65zm122.741-274.652c9.496 0 18.085 3.855 24.293 10.064 6.208 6.207 10.064 14.796 10.064 24.292 0 9.468-3.856 18.058-10.064 24.294-6.208 6.208-14.797 10.063-24.293 10.063s-18.057-3.855-24.293-10.063c-4.252-4.28-7.398-9.666-8.957-15.705-6.52 2.239-12.784 7.825-18.397 15.96-8.563 12.359-15.394 30.246-19.504 51.506-.538 2.947-2.835 5.442-5.982 6.037-4.053.766-7.993-1.87-8.759-5.952-4.11-21.288-10.97-39.203-19.53-51.591-7.455-10.773-15.987-17.066-24.804-17.066s-17.349 6.293-24.804 17.066c-8.561 12.359-15.393 30.246-19.503 51.506-.538 2.947-2.834 5.442-5.98 6.037-4.054.766-7.994-1.87-8.76-5.952-4.109-21.288-10.97-39.203-19.53-51.591-7.455-10.773-16.017-17.066-24.804-17.066-8.816 0-17.349 6.293-24.804 17.066-8.561 12.388-15.42 30.303-19.53 51.591-.794 4.082-4.706 6.718-8.759 5.952-4.054-.765-6.719-4.705-5.953-8.758 4.507-23.301 12.188-43.201 21.94-57.289 10.289-14.883 23.017-23.557 37.105-23.557s26.816 8.674 37.107 23.557c5.612 8.107 10.545 18.17 14.569 29.707 4.054-11.537 8.986-21.6 14.599-29.707 10.29-14.883 23.018-23.557 37.107-23.557s26.816 8.674 37.105 23.557c5.613 8.107 10.545 18.17 14.57 29.707 4.054-11.537 8.985-21.6 14.599-29.707 8.589-12.444 18.908-20.523 30.274-22.849 1.361-6.774 4.706-12.813 9.383-17.488 6.238-6.209 14.799-10.064 24.295-10.064zm13.691 20.665c-3.515-3.486-8.334-5.669-13.691-5.669-5.329 0-10.176 2.183-13.691 5.669-3.486 3.515-5.641 8.334-5.641 13.691 0 5.329 2.154 10.177 5.641 13.692 3.516 3.486 8.362 5.642 13.691 5.642 5.357 0 10.177-2.155 13.691-5.642 3.486-3.516 5.67-8.363 5.67-13.692 0-5.357-2.183-10.177-5.67-13.691zm-273.461 221.984c0-4.167 3.373-7.512 7.512-7.512s7.512 3.345 7.512 7.512v104.911c0 4.139-3.373 7.512-7.512 7.512s-7.512-3.373-7.512-7.512zm-41.074 2.75c3.43 2.295 4.337 6.944 2.013 10.374-2.296 3.431-6.973 4.337-10.403 2.041-3.685-2.495-7.711-4.45-11.963-5.755-4.11-1.245-8.532-1.927-13.182-1.927-12.415 0-23.641 5.046-31.805 13.182-8.135 8.135-13.152 19.36-13.152 31.776s5.018 23.669 13.152 31.806c8.164 8.135 19.39 13.181 31.805 13.181 11.623 0 20.722-4.479 27.016-11.735 5.669-6.605 9.213-15.563 10.375-25.738h-23.472c-4.167 0-7.513-3.347-7.513-7.513 0-4.139 3.346-7.484 7.513-7.484h31.38c4.139 0 7.512 3.346 7.512 7.484 0 16.781-5.045 32.06-14.484 43.03-9.071 10.517-22.026 16.951-38.326 16.951-16.554 0-31.549-6.719-42.406-17.574-10.828-10.857-17.547-25.824-17.547-42.407 0-16.555 6.719-31.551 17.547-42.379 10.858-10.856 25.853-17.574 42.406-17.574 6.038 0 11.935.906 17.519 2.636 5.81 1.757 11.197 4.365 16.015 7.625zm127.617-10.262c4.139 0 7.512 3.345 7.512 7.512 0 4.139-3.373 7.483-7.512 7.483h-34.696v36.085h31.351c4.139 0 7.513 3.373 7.513 7.513 0 4.138-3.374 7.511-7.513 7.511h-31.351v45.554c0 4.139-3.373 7.512-7.512 7.512s-7.512-3.373-7.512-7.512v-104.146c0-4.167 3.373-7.512 7.512-7.512zm-249.112 42.973c0 4.139-3.345 7.512-7.483 7.512s-7.512-3.373-7.512-7.512v-41.697c0-12.728 5.216-24.322 13.606-32.713 8.391-8.391 19.984-13.606 32.713-13.606h55.9v-95.812c0-4.139 3.345-7.484 7.483-7.484 4.139 0 7.512 3.346 7.512 7.484v65.482h379.791v-65.482c0-4.139 3.373-7.484 7.512-7.484s7.483 3.346 7.483 7.484v72.993 25.229c0 10.459-4.28 19.984-11.169 26.873-6.888 6.888-16.412 11.169-26.872 11.169h-114.72v44.106h22.024c6.578 0 12.53 2.665 16.839 6.974s6.974 10.261 6.974 16.809c0 6.55-2.665 12.502-6.974 16.811s-10.261 7.001-16.839 7.001h-66.671v31.55c0 12.728-5.188 24.32-13.578 32.711-8.391 8.392-19.984 13.608-32.74 13.608h-221.955c-12.729 0-24.322-5.217-32.713-13.608-8.39-8.391-13.606-19.984-13.606-32.712v-41.697c0-4.139 3.374-7.514 7.512-7.514 4.139 0 7.483 3.375 7.483 7.514v41.697c0 8.589 3.544 16.412 9.213 22.109 5.697 5.67 13.521 9.213 22.111 9.213h221.955c8.617 0 16.44-3.543 22.11-9.213 5.697-5.697 9.213-13.521 9.213-22.109 0-39.147 0-78.266 0-117.384 0-8.306-3.317-16.215-9.213-22.111-5.67-5.698-13.493-9.212-22.11-9.212h-221.955c-8.59 0-16.414 3.514-22.111 9.212-5.669 5.67-9.213 13.522-9.213 22.111zm102.219-88.017h151.061c12.756 0 24.35 5.216 32.74 13.606 3.459 3.458 6.379 7.455 8.59 11.849h164.355c6.321 0 12.075-2.58 16.27-6.774 4.195-4.195 6.775-9.95 6.775-16.271v-17.716h-379.791zm270.259 102.134c-1.587-1.588-3.77-2.58-6.209-2.58h-66.671v17.605h66.671c2.439 0 4.622-.992 6.209-2.608 1.616-1.588 2.608-3.8 2.608-6.21 0-2.409-.992-4.62-2.608-6.207zm-270.259-231.904c0 4.139-3.373 7.482-7.512 7.482s-7.483-3.344-7.483-7.482v-72.993c0-10.488 4.252-19.984 11.168-26.902 6.889-6.888 16.414-11.169 26.874-11.169h333.698c10.46 0 19.984 4.281 26.872 11.169 6.889 6.917 11.169 16.413 11.169 26.902v72.993c0 4.139-3.345 7.482-7.483 7.482s-7.512-3.344-7.512-7.482v-72.993c0-6.35-2.58-12.104-6.775-16.3-4.195-4.167-9.949-6.774-16.27-6.774h-333.699c-6.321 0-12.104 2.607-16.272 6.774-4.195 4.195-6.774 9.95-6.774 16.3v72.993z" fill="#ffffff" data-original="#000000" style=""/></g></g></svg>
