<svg xmlns="http://www.w3.org/2000/svg" width="42" height="29.142" viewBox="0 0 42 29.142">
  <g id="eyeAble-keyboard" transform="translate(0 -66.376)" style="isolation: isolate">
    <path id="Path_502" data-name="Path 502" d="M39.9,72.6H7.125v-.484a.945.945,0,0,1,.944-.944h27.4a2.4,2.4,0,0,0,0-4.794H28.844a.726.726,0,0,0,0,1.453h6.629a.944.944,0,0,1,0,1.889H8.07a2.4,2.4,0,0,0-2.4,2.4V72.6H2.1a2.1,2.1,0,0,0-2.1,2.1V93.423a2.1,2.1,0,0,0,2.1,2.1H39.9a2.1,2.1,0,0,0,2.1-2.1V74.694A2.1,2.1,0,0,0,39.9,72.6Zm.642,20.824a.643.643,0,0,1-.642.642H2.1a.643.643,0,0,1-.643-.642V74.694a.643.643,0,0,1,.643-.643H39.9a.643.643,0,0,1,.642.643Z" fill="#fff"/>
    <path id="Path_503" data-name="Path 503" d="M61.431,155.627h-35.7a.726.726,0,0,0-.726.726v16.623a.726.726,0,0,0,.726.726h35.7a.726.726,0,0,0,.726-.726V156.353A.726.726,0,0,0,61.431,155.627ZM50.256,157.08h4.5v2.7h-4.5ZM32.4,165.392h4.5V168.1H32.4Zm-2.975-1.453v-2.706h4.5v2.706Zm5.951,0v-2.706h4.5v2.706Zm2.975,1.453h4.5V168.1h-4.5Zm2.975-1.453v-2.706h4.5v2.706Zm2.975,1.453h4.5V168.1h-4.5Zm2.975-1.453v-2.706h4.5v2.706Zm2.975,1.453h4.5V168.1h-4.5Zm2.975-1.453v-2.706h3.158v2.706Zm-8.926-6.859h4.5v2.7h-4.5Zm-5.951,0h4.5v2.7h-4.5Zm-5.951,0h4.5v2.7H32.4Zm-5.951,0h4.5v2.7h-4.5Zm0,4.153h1.523v2.706H26.453Zm0,4.159h4.5V168.1h-4.5Zm1.523,6.859H26.453v-2.7h1.523Zm5.951,0h-4.5v-2.7h4.5v2.7Zm5.951,0h-4.5v-2.7h4.5Zm5.951,0h-4.5v-2.7h4.5Zm5.951,0h-4.5v-2.7h4.5Zm5.951,0h-4.5v-2.7h4.5Zm2.975,0H59.182v-2.7H60.7Zm0-4.153h-4.5v-2.706h.909a.726.726,0,0,0,.726-.726v-3.433H60.7V168.1Zm0-8.318h-4.5v-2.7h4.5Z" transform="translate(-22.579 -80.606)" fill="#fff"/>
    <path id="Path_504" data-name="Path 504" d="M270.08,76.653l0-.01Z" transform="translate(-243.917 -9.273)" fill="#fff"/>
    <path id="Path_505" data-name="Path 505" d="M270.785,67.626a.726.726,0,1,0-1.185-.236A.733.733,0,0,0,270.785,67.626Z" transform="translate(-243.438 -0.009)" fill="#fff"/>
    <path id="Path_506" data-name="Path 506" d="M270.067,76.622Z" transform="translate(-243.909 -9.251)" fill="#fff"/>
  </g>
</svg>
