<svg xmlns="http://www.w3.org/2000/svg" width="37" height="26.432" viewBox="0 0 37 26.432">
  <g id="eyeable_icon-settings-image" transform="translate(-0.5 -21.5)">
    <path id="Path_501" data-name="Path 501" d="M35.386,22.5H2.614A2.112,2.112,0,0,0,.5,24.614v22.2a2.112,2.112,0,0,0,2.114,2.114H35.386A2.112,2.112,0,0,0,37.5,46.819v-22.2A2.112,2.112,0,0,0,35.386,22.5ZM13.728,26.18a2.636,2.636,0,1,1-2.661,2.661A2.68,2.68,0,0,1,13.728,26.18ZM29.792,45.227H8.208a1.828,1.828,0,0,1-1.567-2.785L9.825,37.27a1.574,1.574,0,0,1,2.71.05l2.636,4.724,6.589-9.872a1.58,1.58,0,0,1,2.611-.025l6.962,10.17A1.869,1.869,0,0,1,29.792,45.227Z" transform="translate(0 -1)" fill="#fff"/>
  </g>
</svg>
