<svg xmlns="http://www.w3.org/2000/svg" width="26.328" height="40.369" viewBox="0 0 26.328 40.369">
  <path id="Path" d="M26.328,38.693v-8.41a1.663,1.663,0,0,0-.461-1.209,1.588,1.588,0,0,0-1.183-.472H20.265a.527.527,0,0,1-.52-.531V1.681A1.663,1.663,0,0,0,19.284.472,1.588,1.588,0,0,0,18.1,0H1.644A1.588,1.588,0,0,0,.461.472,1.663,1.663,0,0,0,0,1.681v8.41A1.663,1.663,0,0,0,.461,11.3a1.588,1.588,0,0,0,1.183.472H6.062a.527.527,0,0,1,.52.531V28.066a.527.527,0,0,1-.52.531H1.644a1.588,1.588,0,0,0-1.183.472A1.663,1.663,0,0,0,0,30.278v8.41A1.663,1.663,0,0,0,.461,39.9a1.588,1.588,0,0,0,1.183.472H24.683a1.588,1.588,0,0,0,1.183-.472A1.641,1.641,0,0,0,26.328,38.693Z"/>
</svg>
